<svg xmlns="http://www.w3.org/2000/svg" xmlns:xlink="http://www.w3.org/1999/xlink" width="500" zoomAndPan="magnify" viewBox="0 0 375 374.999991" height="500" preserveAspectRatio="xMidYMid meet" version="1.0"><defs><clipPath id="f8c3770c06"><path d="M 112.5 113.53125 L 177 113.53125 L 177 178 L 112.5 178 Z M 112.5 113.53125 " clip-rule="nonzero"/></clipPath><clipPath id="0de8562c30"><path d="M 112.5 197 L 177 197 L 177 261.28125 L 112.5 261.28125 Z M 112.5 197 " clip-rule="nonzero"/></clipPath><clipPath id="e2755fcc13"><path d="M 198 113.53125 L 262.5 113.53125 L 262.5 178 L 198 178 Z M 198 113.53125 " clip-rule="nonzero"/></clipPath><clipPath id="4490984684"><path d="M 198 197 L 262.5 197 L 262.5 261.28125 L 198 261.28125 Z M 198 197 " clip-rule="nonzero"/></clipPath></defs><g clip-path="url(#f8c3770c06)"><path fill="#ffffff" d="M 163.5625 177.414062 L 125.246094 177.414062 C 118.183594 177.414062 112.4375 171.675781 112.4375 164.621094 L 112.4375 126.355469 C 112.4375 119.304688 118.183594 113.566406 125.246094 113.566406 L 163.5625 113.566406 C 170.621094 113.566406 176.367188 119.304688 176.367188 126.355469 L 176.367188 164.621094 C 176.367188 171.675781 170.621094 177.414062 163.5625 177.414062 Z M 125.246094 119.960938 C 121.714844 119.960938 118.84375 122.828125 118.84375 126.355469 L 118.84375 164.621094 C 118.84375 168.148438 121.714844 171.019531 125.246094 171.019531 L 163.5625 171.019531 C 167.09375 171.019531 169.964844 168.148438 169.964844 164.621094 L 169.964844 126.355469 C 169.964844 122.828125 167.09375 119.960938 163.5625 119.960938 Z M 125.246094 119.960938 " fill-opacity="1" fill-rule="nonzero"/></g><g clip-path="url(#0de8562c30)"><path fill="#ffffff" d="M 163.5625 261.085938 L 125.246094 261.085938 C 118.183594 261.085938 112.4375 255.347656 112.4375 248.296875 L 112.4375 210.03125 C 112.4375 202.976562 118.183594 197.238281 125.246094 197.238281 L 163.5625 197.238281 C 170.621094 197.238281 176.367188 202.976562 176.367188 210.03125 L 176.367188 248.296875 C 176.367188 255.347656 170.621094 261.085938 163.5625 261.085938 Z M 125.246094 203.632812 C 121.714844 203.632812 118.84375 206.503906 118.84375 210.03125 L 118.84375 248.296875 C 118.84375 251.824219 121.714844 254.691406 125.246094 254.691406 L 163.5625 254.691406 C 167.09375 254.691406 169.964844 251.824219 169.964844 248.296875 L 169.964844 210.03125 C 169.964844 206.503906 167.09375 203.632812 163.5625 203.632812 Z M 125.246094 203.632812 " fill-opacity="1" fill-rule="nonzero"/></g><g clip-path="url(#e2755fcc13)"><path fill="#ffffff" d="M 249.59375 177.414062 L 211.277344 177.414062 C 204.21875 177.414062 198.472656 171.675781 198.472656 164.621094 L 198.472656 126.355469 C 198.472656 119.304688 204.21875 113.566406 211.277344 113.566406 L 249.59375 113.566406 C 256.65625 113.566406 262.402344 119.304688 262.402344 126.355469 L 262.402344 164.621094 C 262.402344 171.675781 256.65625 177.414062 249.59375 177.414062 Z M 211.277344 119.960938 C 207.746094 119.960938 204.875 122.828125 204.875 126.355469 L 204.875 164.621094 C 204.875 168.148438 207.746094 171.019531 211.277344 171.019531 L 249.59375 171.019531 C 253.125 171.019531 255.996094 168.148438 255.996094 164.621094 L 255.996094 126.355469 C 255.996094 122.828125 253.125 119.960938 249.59375 119.960938 Z M 211.277344 119.960938 " fill-opacity="1" fill-rule="nonzero"/></g><g clip-path="url(#4490984684)"><path fill="#ffffff" d="M 249.59375 261.085938 L 211.277344 261.085938 C 204.21875 261.085938 198.472656 255.347656 198.472656 248.296875 L 198.472656 210.03125 C 198.472656 202.976562 204.21875 197.238281 211.277344 197.238281 L 249.59375 197.238281 C 256.65625 197.238281 262.402344 202.976562 262.402344 210.03125 L 262.402344 248.296875 C 262.402344 255.347656 256.65625 261.085938 249.59375 261.085938 Z M 211.277344 203.632812 C 207.746094 203.632812 204.875 206.503906 204.875 210.03125 L 204.875 248.296875 C 204.875 251.824219 207.746094 254.691406 211.277344 254.691406 L 249.59375 254.691406 C 253.125 254.691406 255.996094 251.824219 255.996094 248.296875 L 255.996094 210.03125 C 255.996094 206.503906 253.125 203.632812 249.59375 203.632812 Z M 211.277344 203.632812 " fill-opacity="1" fill-rule="nonzero"/></g></svg>