<svg xmlns="http://www.w3.org/2000/svg" xmlns:xlink="http://www.w3.org/1999/xlink" width="500" zoomAndPan="magnify" viewBox="0 0 375 374.999991" height="500" preserveAspectRatio="xMidYMid meet" version="1.0"><defs><clipPath id="08615148ec"><path d="M 112.5 132.65625 L 262.5 132.65625 L 262.5 242 L 112.5 242 Z M 112.5 132.65625 " clip-rule="nonzero"/></clipPath></defs><path fill="#ffffff" d="M 205.15625 177.183594 L 205.378906 202.660156 C 205.414062 206.65625 208.796875 209.933594 212.917969 209.964844 L 212.980469 209.964844 C 215.011719 209.964844 216.90625 209.191406 218.316406 207.78125 C 219.683594 206.417969 220.429688 204.613281 220.414062 202.695312 L 220.1875 177.257812 C 224.007812 174.859375 226.292969 170.785156 226.253906 166.289062 C 226.207031 160.871094 222.804688 156.082031 217.585938 154.042969 C 217.570312 154.035156 217.554688 154.027344 217.539062 154.019531 C 217.519531 154.011719 217.503906 154.003906 217.484375 153.996094 C 217.21875 153.894531 216.949219 153.859375 216.679688 153.847656 C 216.648438 153.847656 216.621094 153.832031 216.589844 153.832031 L 216.570312 153.832031 C 216.539062 153.832031 216.511719 153.847656 216.484375 153.847656 C 216.195312 153.859375 215.910156 153.914062 215.640625 154.023438 C 215.59375 154.042969 215.554688 154.074219 215.507812 154.09375 C 215.390625 154.148438 215.273438 154.199219 215.164062 154.273438 C 215.0625 154.34375 214.988281 154.429688 214.898438 154.511719 C 214.859375 154.546875 214.816406 154.582031 214.777344 154.621094 C 214.585938 154.824219 214.4375 155.054688 214.324219 155.304688 C 214.300781 155.363281 214.28125 155.417969 214.261719 155.476562 C 214.160156 155.753906 214.089844 156.042969 214.09375 156.34375 L 214.164062 164.632812 L 210.972656 164.609375 L 210.902344 156.234375 C 210.898438 155.9375 210.828125 155.65625 210.722656 155.382812 C 210.703125 155.328125 210.6875 155.273438 210.660156 155.222656 C 210.476562 154.820312 210.195312 154.464844 209.824219 154.203125 C 209.417969 153.925781 208.941406 153.792969 208.464844 153.78125 C 208.433594 153.777344 208.410156 153.761719 208.378906 153.761719 C 208.351562 153.761719 208.324219 153.777344 208.296875 153.777344 C 208.039062 153.789062 207.785156 153.824219 207.539062 153.914062 C 207.503906 153.925781 207.472656 153.945312 207.441406 153.957031 C 207.417969 153.96875 207.402344 153.976562 207.378906 153.984375 C 202.183594 155.96875 198.867188 160.722656 198.910156 166.148438 C 198.949219 170.640625 201.308594 174.738281 205.15625 177.175781 Z M 205.941406 160.8125 L 205.996094 167.109375 C 206.007812 168.46875 207.109375 169.570312 208.472656 169.578125 L 216.664062 169.644531 L 216.683594 169.644531 C 217.347656 169.644531 217.984375 169.382812 218.449219 168.914062 C 218.921875 168.441406 219.1875 167.796875 219.183594 167.128906 L 219.128906 160.972656 C 220.460938 162.4375 221.242188 164.316406 221.257812 166.332031 C 221.285156 169.40625 219.503906 172.167969 216.609375 173.539062 C 215.730469 173.957031 215.175781 174.84375 215.183594 175.816406 L 215.417969 202.734375 C 215.425781 203.300781 215.199219 203.839844 214.785156 204.253906 C 214.320312 204.71875 213.683594 204.972656 212.980469 204.972656 L 212.957031 204.972656 C 211.546875 204.964844 210.390625 203.902344 210.378906 202.613281 L 210.140625 175.691406 C 210.132812 174.746094 209.589844 173.886719 208.738281 173.472656 C 205.785156 172.035156 203.933594 169.214844 203.90625 166.113281 C 203.886719 164.105469 204.636719 162.242188 205.941406 160.8125 Z M 205.941406 160.8125 " fill-opacity="1" fill-rule="nonzero"/><path fill="#ffffff" d="M 240.90625 214.25 L 240.90625 145.03125 C 240.90625 143.65625 239.789062 142.539062 238.410156 142.539062 L 136.589844 142.539062 C 135.210938 142.539062 134.09375 143.65625 134.09375 145.03125 L 134.09375 214.25 C 134.09375 215.625 135.210938 216.746094 136.589844 216.746094 L 238.410156 216.746094 C 239.789062 216.746094 240.90625 215.625 240.90625 214.25 Z M 235.910156 211.753906 L 139.089844 211.753906 L 139.089844 147.527344 L 235.910156 147.527344 Z M 235.910156 211.753906 " fill-opacity="1" fill-rule="nonzero"/><g clip-path="url(#08615148ec)"><path fill="#ffffff" d="M 259.957031 221.734375 L 250.902344 221.734375 L 250.902344 143.941406 C 250.902344 137.667969 245.785156 132.5625 239.503906 132.5625 L 135.5 132.5625 C 129.214844 132.5625 124.101562 137.667969 124.101562 143.941406 L 124.101562 221.734375 L 115.042969 221.734375 C 113.660156 221.734375 112.546875 222.851562 112.546875 224.230469 C 112.546875 234.03125 120.53125 242 130.347656 242 L 244.65625 242 C 254.472656 242 262.460938 234.03125 262.460938 224.230469 C 262.460938 222.851562 261.34375 221.734375 259.960938 221.734375 Z M 129.097656 143.941406 C 129.097656 140.417969 131.964844 137.550781 135.496094 137.550781 L 239.5 137.550781 C 243.03125 137.550781 245.902344 140.417969 245.902344 143.941406 L 245.902344 221.734375 L 129.097656 221.734375 Z M 202.542969 226.722656 L 201.015625 229.371094 L 173.984375 229.371094 L 172.457031 226.722656 L 202.546875 226.722656 Z M 244.65625 237.011719 L 130.34375 237.011719 C 124.136719 237.011719 118.949219 232.582031 117.785156 226.722656 L 166.691406 226.722656 L 170.371094 233.113281 C 170.820312 233.886719 171.648438 234.363281 172.539062 234.363281 L 202.464844 234.363281 C 203.355469 234.363281 204.183594 233.886719 204.628906 233.113281 L 208.3125 226.722656 L 257.21875 226.722656 C 256.050781 232.582031 250.863281 237.011719 244.65625 237.011719 Z M 244.65625 237.011719 " fill-opacity="1" fill-rule="nonzero"/></g><path fill="#ffffff" d="M 145.535156 183.683594 L 148.144531 183.683594 C 148.164062 183.726562 148.183594 183.769531 148.199219 183.8125 L 146.351562 185.65625 C 145.375 186.632812 145.375 188.210938 146.351562 189.183594 L 152.628906 195.449219 C 153.605469 196.425781 155.1875 196.425781 156.164062 195.449219 L 158.007812 193.605469 C 158.054688 193.625 158.097656 193.640625 158.140625 193.660156 L 158.140625 196.265625 C 158.140625 197.644531 159.257812 198.761719 160.640625 198.761719 L 169.519531 198.761719 C 170.898438 198.761719 172.015625 197.644531 172.015625 196.265625 L 172.015625 193.660156 C 172.0625 193.640625 172.105469 193.621094 172.148438 193.605469 L 173.996094 195.449219 C 174.972656 196.425781 176.550781 196.425781 177.527344 195.449219 L 183.804688 189.183594 C 184.78125 188.210938 184.78125 186.632812 183.804688 185.65625 L 181.960938 183.8125 C 181.976562 183.769531 181.996094 183.726562 182.011719 183.683594 L 184.625 183.683594 C 186.003906 183.683594 187.121094 182.566406 187.121094 181.1875 L 187.121094 172.324219 C 187.121094 170.949219 186.003906 169.832031 184.625 169.832031 L 182.011719 169.832031 C 181.992188 169.785156 181.976562 169.742188 181.960938 169.699219 L 183.804688 167.855469 C 184.78125 166.878906 184.78125 165.304688 183.804688 164.328125 L 177.527344 158.0625 C 177.058594 157.59375 176.425781 157.332031 175.761719 157.332031 C 175.097656 157.332031 174.460938 157.59375 173.996094 158.0625 L 172.148438 159.90625 C 172.105469 159.890625 172.0625 159.867188 172.015625 159.855469 L 172.015625 157.246094 C 172.015625 155.867188 170.898438 154.75 169.519531 154.75 L 160.640625 154.75 C 159.257812 154.75 158.140625 155.867188 158.140625 157.246094 L 158.140625 159.855469 C 158.097656 159.871094 158.054688 159.890625 158.007812 159.90625 L 156.164062 158.0625 C 155.226562 157.128906 153.566406 157.128906 152.628906 158.0625 L 146.351562 164.328125 C 145.375 165.304688 145.375 166.878906 146.351562 167.855469 L 148.199219 169.699219 C 148.179688 169.742188 148.164062 169.785156 148.144531 169.832031 L 145.535156 169.832031 C 144.152344 169.832031 143.035156 170.949219 143.035156 172.324219 L 143.035156 181.1875 C 143.035156 182.566406 144.152344 183.683594 145.535156 183.683594 Z M 148.03125 174.820312 L 149.917969 174.820312 C 151.027344 174.820312 152.003906 174.089844 152.316406 173.023438 C 152.589844 172.085938 152.960938 171.199219 153.40625 170.378906 C 153.941406 169.40625 153.769531 168.199219 152.980469 167.417969 L 151.65625 166.089844 L 154.398438 163.351562 L 155.726562 164.679688 C 156.515625 165.464844 157.730469 165.632812 158.695312 165.101562 C 159.511719 164.652344 160.402344 164.285156 161.34375 164.011719 C 162.410156 163.699219 163.140625 162.726562 163.140625 161.617188 L 163.140625 159.734375 L 167.023438 159.734375 L 167.023438 161.617188 C 167.023438 162.726562 167.753906 163.699219 168.820312 164.011719 C 169.761719 164.285156 170.648438 164.652344 171.464844 165.101562 C 172.4375 165.628906 173.648438 165.464844 174.433594 164.679688 L 175.765625 163.351562 L 178.507812 166.089844 L 177.179688 167.417969 C 176.394531 168.199219 176.222656 169.40625 176.757812 170.378906 C 177.203125 171.195312 177.570312 172.085938 177.84375 173.023438 C 178.15625 174.089844 179.132812 174.820312 180.242188 174.820312 L 182.128906 174.820312 L 182.128906 178.695312 L 180.242188 178.695312 C 179.132812 178.695312 178.15625 179.425781 177.84375 180.488281 C 177.574219 181.425781 177.207031 182.316406 176.757812 183.132812 C 176.222656 184.105469 176.394531 185.3125 177.179688 186.097656 L 178.507812 187.421875 L 175.765625 190.164062 L 174.433594 188.835938 C 173.648438 188.050781 172.4375 187.882812 171.464844 188.414062 C 170.65625 188.859375 169.765625 189.222656 168.816406 189.5 C 167.753906 189.8125 167.023438 190.789062 167.023438 191.894531 L 167.023438 193.777344 L 163.140625 193.777344 L 163.140625 191.894531 C 163.140625 190.785156 162.410156 189.8125 161.34375 189.5 C 160.398438 189.222656 159.507812 188.859375 158.695312 188.414062 C 157.722656 187.878906 156.511719 188.050781 155.726562 188.835938 L 154.398438 190.164062 L 151.65625 187.421875 L 152.980469 186.097656 C 153.765625 185.3125 153.941406 184.105469 153.40625 183.132812 C 152.957031 182.316406 152.59375 181.425781 152.316406 180.488281 C 152.003906 179.425781 151.027344 178.695312 149.917969 178.695312 L 148.03125 178.695312 Z M 148.03125 174.820312 " fill-opacity="1" fill-rule="nonzero"/><path fill="#ffffff" d="M 165.078125 186.113281 C 170.246094 186.113281 174.449219 181.914062 174.449219 176.753906 C 174.449219 171.597656 170.246094 167.398438 165.078125 167.398438 C 159.910156 167.398438 155.707031 171.597656 155.707031 176.753906 C 155.707031 181.914062 159.910156 186.113281 165.078125 186.113281 Z M 165.078125 172.386719 C 167.492188 172.386719 169.453125 174.347656 169.453125 176.753906 C 169.453125 179.164062 167.492188 181.125 165.078125 181.125 C 162.664062 181.125 160.703125 179.164062 160.703125 176.753906 C 160.703125 174.347656 162.664062 172.386719 165.078125 172.386719 Z M 165.078125 172.386719 " fill-opacity="1" fill-rule="nonzero"/></svg>