<svg xmlns="http://www.w3.org/2000/svg" xmlns:xlink="http://www.w3.org/1999/xlink" width="500" zoomAndPan="magnify" viewBox="0 0 375 374.999991" height="500" preserveAspectRatio="xMidYMid meet" version="1.0"><defs><clipPath id="49678051f0"><path d="M 112.5 120.75 L 262.5 120.75 L 262.5 254.25 L 112.5 254.25 Z M 112.5 120.75 " clip-rule="nonzero"/></clipPath></defs><g clip-path="url(#49678051f0)"><path fill="#ffffff" d="M 115 254.273438 L 260 254.273438 C 260.332031 254.273438 260.648438 254.210938 260.957031 254.085938 C 261.261719 253.957031 261.535156 253.777344 261.769531 253.542969 C 262.003906 253.308594 262.183594 253.039062 262.308594 252.730469 C 262.4375 252.425781 262.5 252.105469 262.5 251.773438 L 262.5 241.816406 C 262.5 241.761719 262.472656 241.710938 262.46875 241.65625 C 262.453125 241.429688 262.410156 241.210938 262.335938 240.996094 C 262.304688 240.914062 262.28125 240.828125 262.242188 240.746094 C 262.136719 240.527344 262 240.324219 261.835938 240.144531 C 261.800781 240.109375 261.78125 240.066406 261.746094 240.03125 L 261.726562 240 L 242 221.203125 L 242 146.71875 C 242 146.386719 241.9375 146.070312 241.808594 145.761719 C 241.683594 145.457031 241.503906 145.1875 241.269531 144.953125 C 241.035156 144.71875 240.761719 144.539062 240.457031 144.410156 C 240.152344 144.285156 239.832031 144.21875 239.5 144.21875 L 219.039062 144.21875 C 219.175781 142.414062 218.792969 140.730469 217.886719 139.164062 L 216.339844 136.480469 C 216.050781 135.980469 215.714844 135.511719 215.332031 135.074219 C 214.949219 134.640625 214.527344 134.246094 214.070312 133.894531 C 213.609375 133.539062 213.121094 133.238281 212.601562 132.980469 C 212.082031 132.722656 211.542969 132.523438 210.980469 132.371094 C 210.421875 132.222656 209.855469 132.128906 209.277344 132.089844 C 208.699219 132.050781 208.121094 132.070312 207.546875 132.144531 C 206.972656 132.222656 206.410156 132.351562 205.863281 132.539062 C 205.316406 132.722656 204.789062 132.960938 204.289062 133.25 L 203.941406 133.449219 C 203.347656 133.789062 202.707031 133.960938 202.019531 133.957031 C 201.332031 133.953125 200.695312 133.773438 200.101562 133.425781 L 199.78125 133.238281 C 199.1875 132.902344 198.71875 132.4375 198.378906 131.847656 C 198.035156 131.257812 197.863281 130.625 197.867188 129.941406 L 197.867188 129.542969 C 197.867188 128.964844 197.808594 128.390625 197.695312 127.824219 C 197.582031 127.253906 197.414062 126.703125 197.191406 126.167969 C 196.972656 125.636719 196.699219 125.128906 196.378906 124.644531 C 196.054688 124.164062 195.691406 123.71875 195.28125 123.308594 C 194.871094 122.902344 194.425781 122.535156 193.945312 122.214844 C 193.464844 121.890625 192.957031 121.621094 192.421875 121.398438 C 191.886719 121.175781 191.335938 121.007812 190.765625 120.894531 C 190.199219 120.78125 189.625 120.726562 189.046875 120.726562 L 185.953125 120.726562 C 185.375 120.726562 184.800781 120.78125 184.234375 120.894531 C 183.664062 121.007812 183.113281 121.175781 182.578125 121.398438 C 182.042969 121.621094 181.535156 121.894531 181.054688 122.214844 C 180.574219 122.535156 180.128906 122.902344 179.71875 123.3125 C 179.308594 123.71875 178.945312 124.164062 178.621094 124.648438 C 178.300781 125.128906 178.027344 125.636719 177.804688 126.171875 C 177.585938 126.707031 177.417969 127.257812 177.304688 127.824219 C 177.191406 128.394531 177.132812 128.964844 177.132812 129.546875 L 177.132812 129.945312 C 177.132812 130.628906 176.964844 131.261719 176.621094 131.851562 C 176.28125 132.441406 175.8125 132.90625 175.21875 133.242188 L 174.84375 133.457031 C 174.257812 133.796875 173.628906 133.964844 172.953125 133.964844 C 172.273438 133.964844 171.644531 133.796875 171.058594 133.457031 L 170.710938 133.257812 C 170.210938 132.96875 169.683594 132.730469 169.136719 132.546875 C 168.589844 132.359375 168.027344 132.230469 167.453125 132.15625 C 166.878906 132.078125 166.304688 132.0625 165.726562 132.097656 C 165.148438 132.136719 164.578125 132.230469 164.019531 132.382812 C 163.460938 132.53125 162.921875 132.734375 162.402344 132.988281 C 161.882812 133.246094 161.394531 133.550781 160.933594 133.902344 C 160.472656 134.253906 160.054688 134.648438 159.671875 135.082031 C 159.289062 135.519531 158.953125 135.988281 158.664062 136.488281 L 157.113281 139.171875 C 156.207031 140.738281 155.824219 142.421875 155.960938 144.226562 L 135.5 144.226562 C 135.167969 144.226562 134.847656 144.289062 134.542969 144.417969 C 134.238281 144.542969 133.964844 144.726562 133.730469 144.960938 C 133.496094 145.195312 133.316406 145.464844 133.191406 145.769531 C 133.0625 146.078125 133 146.394531 133 146.726562 L 133 221.203125 L 113.273438 240 L 113.253906 240.027344 C 113.21875 240.0625 113.199219 240.105469 113.164062 240.140625 C 112.996094 240.324219 112.859375 240.527344 112.75 240.75 C 112.710938 240.828125 112.6875 240.914062 112.65625 241 C 112.582031 241.214844 112.539062 241.4375 112.523438 241.664062 C 112.515625 241.714844 112.507812 241.765625 112.5 241.816406 L 112.5 251.773438 C 112.5 252.105469 112.5625 252.425781 112.691406 252.730469 C 112.816406 253.039062 112.996094 253.308594 113.230469 253.542969 C 113.464844 253.777344 113.738281 253.957031 114.042969 254.085938 C 114.347656 254.210938 114.667969 254.273438 115 254.273438 Z M 161.445312 141.664062 L 162.992188 138.980469 C 163.246094 138.542969 163.574219 138.167969 163.976562 137.859375 C 164.378906 137.550781 164.824219 137.332031 165.3125 137.203125 C 165.800781 137.070312 166.296875 137.039062 166.800781 137.101562 C 167.300781 137.167969 167.773438 137.328125 168.210938 137.578125 L 168.558594 137.78125 C 169.226562 138.167969 169.933594 138.460938 170.683594 138.664062 C 171.429688 138.863281 172.191406 138.964844 172.964844 138.964844 C 173.738281 138.964844 174.496094 138.863281 175.246094 138.664062 C 175.992188 138.460938 176.699219 138.167969 177.371094 137.78125 L 177.671875 137.609375 C 178.347656 137.226562 178.964844 136.761719 179.519531 136.214844 C 180.074219 135.667969 180.546875 135.058594 180.9375 134.386719 C 181.328125 133.710938 181.628906 133 181.828125 132.25 C 182.03125 131.496094 182.132812 130.730469 182.132812 129.953125 L 182.132812 129.550781 C 182.132812 129.046875 182.230469 128.558594 182.421875 128.089844 C 182.617188 127.621094 182.890625 127.207031 183.25 126.847656 C 183.609375 126.488281 184.023438 126.210938 184.488281 126.019531 C 184.957031 125.824219 185.445312 125.726562 185.953125 125.726562 L 189.046875 125.726562 C 189.554688 125.726562 190.039062 125.824219 190.507812 126.015625 C 190.976562 126.210938 191.390625 126.488281 191.746094 126.84375 C 192.105469 127.203125 192.382812 127.617188 192.574219 128.082031 C 192.769531 128.550781 192.867188 129.039062 192.867188 129.546875 L 192.867188 129.945312 C 192.867188 130.722656 192.96875 131.488281 193.167969 132.238281 C 193.371094 132.992188 193.667969 133.703125 194.0625 134.375 C 194.453125 135.050781 194.925781 135.660156 195.480469 136.207031 C 196.035156 136.753906 196.648438 137.21875 197.328125 137.601562 L 197.636719 137.773438 C 198.304688 138.160156 199.011719 138.457031 199.757812 138.65625 C 200.503906 138.859375 201.265625 138.960938 202.039062 138.960938 C 202.8125 138.960938 203.574219 138.859375 204.320312 138.65625 C 205.066406 138.457031 205.773438 138.160156 206.441406 137.773438 L 206.789062 137.574219 C 207.226562 137.320312 207.695312 137.160156 208.199219 137.097656 C 208.703125 137.03125 209.199219 137.0625 209.6875 137.191406 C 210.175781 137.324219 210.625 137.542969 211.027344 137.851562 C 211.429688 138.160156 211.757812 138.535156 212.011719 138.972656 L 213.554688 141.65625 C 213.808594 142.09375 213.96875 142.5625 214.035156 143.066406 C 214.101562 143.566406 214.066406 144.0625 213.9375 144.550781 C 213.808594 145.039062 213.589844 145.484375 213.28125 145.886719 C 212.972656 146.289062 212.601562 146.617188 212.164062 146.871094 L 211.796875 147.082031 C 211.125 147.484375 210.511719 147.964844 209.964844 148.523438 C 209.417969 149.085938 208.953125 149.707031 208.566406 150.390625 C 208.183594 151.074219 207.894531 151.796875 207.699219 152.558594 C 207.507812 153.316406 207.414062 154.089844 207.421875 154.871094 L 209.265625 154.898438 L 209.238281 154.917969 L 207.421875 154.941406 C 207.414062 155.726562 207.507812 156.5 207.699219 157.261719 C 207.894531 158.023438 208.183594 158.742188 208.570312 159.429688 C 208.953125 160.113281 209.417969 160.734375 209.96875 161.296875 C 210.515625 161.859375 211.128906 162.339844 211.800781 162.742188 L 212.15625 162.945312 C 212.59375 163.199219 212.96875 163.527344 213.277344 163.929688 C 213.585938 164.332031 213.804688 164.777344 213.9375 165.265625 C 214.070312 165.753906 214.101562 166.253906 214.035156 166.753906 C 213.96875 167.257812 213.808594 167.726562 213.554688 168.167969 L 212 170.855469 C 211.746094 171.292969 211.417969 171.667969 211.015625 171.976562 C 210.613281 172.285156 210.167969 172.503906 209.679688 172.636719 C 209.1875 172.765625 208.691406 172.800781 208.191406 172.734375 C 207.6875 172.667969 207.214844 172.507812 206.777344 172.253906 L 206.433594 172.050781 C 205.761719 171.664062 205.054688 171.371094 204.308594 171.167969 C 203.558594 170.96875 202.800781 170.867188 202.027344 170.867188 C 201.253906 170.867188 200.492188 170.96875 199.746094 171.167969 C 198.996094 171.371094 198.289062 171.664062 197.621094 172.050781 L 197.324219 172.222656 C 196.644531 172.605469 196.027344 173.070312 195.472656 173.617188 C 194.917969 174.164062 194.445312 174.773438 194.050781 175.445312 C 193.660156 176.121094 193.363281 176.832031 193.160156 177.582031 C 192.957031 178.335938 192.855469 179.101562 192.859375 179.878906 L 192.859375 180.28125 C 192.855469 180.785156 192.757812 181.273438 192.566406 181.742188 C 192.371094 182.210938 192.09375 182.621094 191.738281 182.980469 C 191.378906 183.339844 190.964844 183.613281 190.5 183.808594 C 190.03125 184.003906 189.542969 184.101562 189.039062 184.101562 L 185.953125 184.101562 C 185.445312 184.101562 184.957031 184.003906 184.492188 183.808594 C 184.023438 183.613281 183.609375 183.339844 183.253906 182.980469 C 182.894531 182.621094 182.617188 182.210938 182.425781 181.742188 C 182.230469 181.273438 182.132812 180.785156 182.132812 180.28125 L 182.132812 179.878906 C 182.132812 179.101562 182.03125 178.332031 181.828125 177.582031 C 181.625 176.828125 181.324219 176.113281 180.933594 175.441406 C 180.539062 174.765625 180.0625 174.15625 179.507812 173.609375 C 178.953125 173.0625 178.335938 172.597656 177.65625 172.214844 L 177.367188 172.050781 C 176.007812 171.257812 174.542969 170.863281 172.96875 170.863281 C 171.390625 170.863281 169.921875 171.257812 168.558594 172.046875 L 168.210938 172.242188 C 167.773438 172.496094 167.304688 172.65625 166.800781 172.722656 C 166.296875 172.789062 165.800781 172.757812 165.3125 172.625 C 164.824219 172.496094 164.378906 172.273438 163.976562 171.964844 C 163.574219 171.65625 163.246094 171.285156 162.992188 170.84375 L 161.445312 168.164062 C 161.191406 167.726562 161.03125 167.253906 160.964844 166.75 C 160.898438 166.25 160.929688 165.753906 161.0625 165.261719 C 161.195312 164.773438 161.414062 164.328125 161.722656 163.925781 C 162.03125 163.523438 162.40625 163.195312 162.847656 162.941406 L 163.199219 162.738281 C 164.082031 162.21875 164.851562 161.566406 165.503906 160.78125 C 166.15625 159.992188 166.65625 159.117188 167 158.152344 L 167 158.113281 C 167.378906 157.070312 167.566406 155.992188 167.566406 154.886719 C 167.578125 154.101562 167.484375 153.328125 167.289062 152.566406 C 167.097656 151.808594 166.808594 151.085938 166.425781 150.402344 C 166.039062 149.71875 165.574219 149.09375 165.027344 148.53125 C 164.476562 147.972656 163.867188 147.492188 163.191406 147.089844 L 162.832031 146.882812 C 162.394531 146.628906 162.023438 146.300781 161.714844 145.898438 C 161.40625 145.496094 161.1875 145.050781 161.058594 144.558594 C 160.929688 144.070312 160.898438 143.574219 160.964844 143.074219 C 161.03125 142.570312 161.191406 142.101562 161.445312 141.664062 Z M 218.765625 163.980469 C 218.3125 162.273438 217.425781 160.839844 216.101562 159.671875 L 223.625 159.671875 L 223.625 209.796875 L 151.375 209.796875 L 151.375 159.671875 L 158.894531 159.671875 C 158.519531 160.003906 158.171875 160.367188 157.859375 160.761719 C 157.542969 161.15625 157.265625 161.574219 157.023438 162.015625 C 156.78125 162.457031 156.578125 162.917969 156.414062 163.394531 C 156.25 163.867188 156.128906 164.355469 156.046875 164.851562 C 155.964844 165.351562 155.929688 165.851562 155.933594 166.355469 C 155.941406 166.859375 155.988281 167.359375 156.078125 167.855469 C 156.167969 168.347656 156.300781 168.832031 156.476562 169.304688 C 156.648438 169.777344 156.863281 170.234375 157.113281 170.671875 L 158.664062 173.351562 C 158.953125 173.851562 159.289062 174.320312 159.667969 174.757812 C 160.050781 175.191406 160.472656 175.585938 160.929688 175.9375 C 161.390625 176.292969 161.878906 176.59375 162.398438 176.851562 C 162.917969 177.109375 163.460938 177.3125 164.019531 177.460938 C 164.578125 177.609375 165.148438 177.703125 165.726562 177.742188 C 166.304688 177.78125 166.878906 177.761719 167.453125 177.683594 C 168.027344 177.609375 168.589844 177.476562 169.136719 177.292969 C 169.6875 177.105469 170.210938 176.867188 170.710938 176.578125 L 171.058594 176.378906 C 171.644531 176.039062 172.273438 175.871094 172.949219 175.871094 C 173.625 175.871094 174.257812 176.039062 174.84375 176.378906 L 175.21875 176.597656 C 175.8125 176.933594 176.28125 177.398438 176.621094 177.988281 C 176.964844 178.578125 177.136719 179.214844 177.132812 179.894531 L 177.132812 180.296875 C 177.132812 180.875 177.191406 181.449219 177.304688 182.015625 C 177.417969 182.582031 177.585938 183.132812 177.804688 183.667969 C 178.027344 184.203125 178.300781 184.710938 178.621094 185.191406 C 178.945312 185.675781 179.308594 186.121094 179.71875 186.53125 C 180.128906 186.9375 180.574219 187.304688 181.054688 187.625 C 181.535156 187.949219 182.042969 188.21875 182.578125 188.441406 C 183.113281 188.664062 183.664062 188.832031 184.230469 188.945312 C 184.800781 189.058594 185.375 189.117188 185.953125 189.117188 L 189.046875 189.117188 C 189.625 189.117188 190.199219 189.058594 190.769531 188.945312 C 191.335938 188.832031 191.886719 188.664062 192.421875 188.441406 C 192.957031 188.21875 193.464844 187.949219 193.945312 187.625 C 194.425781 187.304688 194.871094 186.9375 195.28125 186.53125 C 195.691406 186.121094 196.054688 185.675781 196.378906 185.191406 C 196.699219 184.710938 196.972656 184.203125 197.195312 183.667969 C 197.414062 183.132812 197.582031 182.582031 197.695312 182.015625 C 197.808594 181.449219 197.867188 180.875 197.867188 180.296875 L 197.867188 179.894531 C 197.863281 179.214844 198.03125 178.582031 198.371094 177.992188 C 198.710938 177.40625 199.175781 176.941406 199.765625 176.605469 L 200.15625 176.382812 C 200.742188 176.042969 201.371094 175.875 202.046875 175.875 C 202.726562 175.875 203.355469 176.042969 203.941406 176.382812 L 204.289062 176.582031 C 204.789062 176.871094 205.3125 177.109375 205.863281 177.296875 C 206.410156 177.484375 206.972656 177.613281 207.546875 177.691406 C 208.121094 177.765625 208.699219 177.785156 209.277344 177.746094 C 209.855469 177.707031 210.421875 177.613281 210.984375 177.464844 C 211.542969 177.316406 212.082031 177.113281 212.601562 176.855469 C 213.121094 176.597656 213.609375 176.292969 214.070312 175.941406 C 214.53125 175.589844 214.949219 175.195312 215.332031 174.757812 C 215.714844 174.324219 216.050781 173.855469 216.339844 173.351562 L 217.886719 170.675781 C 218.472656 169.664062 218.84375 168.578125 218.996094 167.414062 C 219.148438 166.253906 219.074219 165.109375 218.765625 163.980469 Z M 138 149.21875 L 158.015625 149.21875 C 158.671875 150.023438 159.445312 150.691406 160.339844 151.21875 L 160.699219 151.429688 C 161.265625 151.777344 161.714844 152.238281 162.039062 152.816406 C 162.367188 153.394531 162.535156 154.015625 162.546875 154.679688 L 148.875 154.679688 C 148.542969 154.679688 148.222656 154.742188 147.917969 154.871094 C 147.613281 154.996094 147.339844 155.179688 147.105469 155.414062 C 146.871094 155.648438 146.691406 155.917969 146.566406 156.222656 C 146.4375 156.53125 146.375 156.847656 146.375 157.179688 L 146.375 212.304688 C 146.375 212.636719 146.4375 212.957031 146.566406 213.261719 C 146.691406 213.566406 146.871094 213.839844 147.105469 214.074219 C 147.339844 214.308594 147.613281 214.488281 147.917969 214.613281 C 148.222656 214.742188 148.542969 214.804688 148.875 214.804688 L 226.125 214.804688 C 226.457031 214.804688 226.777344 214.742188 227.082031 214.613281 C 227.386719 214.488281 227.660156 214.308594 227.894531 214.074219 C 228.128906 213.839844 228.308594 213.566406 228.433594 213.261719 C 228.5625 212.957031 228.625 212.636719 228.625 212.304688 L 228.625 157.171875 C 228.625 156.839844 228.5625 156.519531 228.433594 156.214844 C 228.308594 155.90625 228.128906 155.636719 227.894531 155.402344 C 227.660156 155.167969 227.386719 154.988281 227.082031 154.859375 C 226.777344 154.734375 226.457031 154.671875 226.125 154.671875 L 212.449219 154.671875 C 212.453125 154.003906 212.621094 153.382812 212.949219 152.804688 C 213.277344 152.226562 213.726562 151.765625 214.292969 151.421875 L 214.65625 151.207031 C 215.550781 150.679688 216.324219 150.011719 216.980469 149.207031 L 237 149.207031 L 237 219.757812 L 138 219.757812 Z M 136.5 224.777344 L 238.5 224.777344 L 253.75 239.316406 L 121.25 239.316406 Z M 117.5 244.316406 L 257.5 244.316406 L 257.5 249.273438 L 117.5 249.273438 Z M 117.5 244.316406 " fill-opacity="1" fill-rule="nonzero"/></g><path fill="#ffffff" d="M 187.5 169.382812 C 188.449219 169.382812 189.390625 169.289062 190.320312 169.105469 C 191.253906 168.917969 192.15625 168.644531 193.035156 168.28125 C 193.914062 167.917969 194.746094 167.472656 195.535156 166.945312 C 196.324219 166.417969 197.058594 165.816406 197.726562 165.144531 C 198.398438 164.472656 199 163.742188 199.527344 162.953125 C 200.054688 162.164062 200.5 161.332031 200.863281 160.453125 C 201.226562 159.574219 201.5 158.671875 201.6875 157.738281 C 201.871094 156.808594 201.964844 155.867188 201.964844 154.917969 C 201.964844 153.96875 201.871094 153.027344 201.6875 152.09375 C 201.5 151.164062 201.226562 150.257812 200.863281 149.382812 C 200.5 148.503906 200.054688 147.671875 199.527344 146.882812 C 199 146.089844 198.398438 145.359375 197.726562 144.6875 C 197.058594 144.019531 196.324219 143.417969 195.535156 142.890625 C 194.746094 142.363281 193.914062 141.917969 193.035156 141.554688 C 192.15625 141.191406 191.253906 140.914062 190.320312 140.730469 C 189.390625 140.546875 188.449219 140.453125 187.5 140.453125 C 186.550781 140.453125 185.609375 140.546875 184.679688 140.730469 C 183.746094 140.914062 182.84375 141.191406 181.964844 141.554688 C 181.085938 141.917969 180.253906 142.363281 179.464844 142.890625 C 178.675781 143.417969 177.941406 144.019531 177.273438 144.6875 C 176.601562 145.359375 176 146.089844 175.472656 146.882812 C 174.945312 147.671875 174.5 148.503906 174.136719 149.382812 C 173.773438 150.257812 173.5 151.164062 173.3125 152.09375 C 173.128906 153.027344 173.035156 153.96875 173.035156 154.917969 C 173.035156 155.867188 173.128906 156.808594 173.316406 157.738281 C 173.5 158.667969 173.777344 159.574219 174.140625 160.449219 C 174.503906 161.328125 174.949219 162.160156 175.476562 162.949219 C 176.003906 163.738281 176.605469 164.46875 177.277344 165.140625 C 177.949219 165.8125 178.679688 166.414062 179.46875 166.941406 C 180.257812 167.46875 181.089844 167.914062 181.96875 168.277344 C 182.84375 168.640625 183.746094 168.917969 184.679688 169.101562 C 185.609375 169.289062 186.550781 169.382812 187.5 169.382812 Z M 187.5 145.453125 C 188.121094 145.453125 188.738281 145.511719 189.347656 145.632812 C 189.957031 145.753906 190.546875 145.933594 191.121094 146.171875 C 191.695312 146.410156 192.242188 146.703125 192.757812 147.046875 C 193.273438 147.394531 193.753906 147.785156 194.191406 148.226562 C 194.632812 148.664062 195.023438 149.140625 195.371094 149.660156 C 195.714844 150.175781 196.007812 150.722656 196.246094 151.296875 C 196.480469 151.871094 196.660156 152.460938 196.78125 153.070312 C 196.90625 153.679688 196.964844 154.296875 196.964844 154.917969 C 196.964844 155.539062 196.90625 156.15625 196.78125 156.765625 C 196.660156 157.375 196.480469 157.964844 196.246094 158.539062 C 196.007812 159.113281 195.714844 159.660156 195.371094 160.175781 C 195.023438 160.691406 194.632812 161.171875 194.191406 161.609375 C 193.753906 162.050781 193.273438 162.441406 192.757812 162.789062 C 192.242188 163.132812 191.695312 163.425781 191.121094 163.660156 C 190.546875 163.898438 189.957031 164.078125 189.347656 164.199219 C 188.738281 164.320312 188.121094 164.382812 187.5 164.382812 C 186.878906 164.382812 186.261719 164.320312 185.652344 164.199219 C 185.042969 164.078125 184.453125 163.898438 183.878906 163.660156 C 183.304688 163.425781 182.757812 163.132812 182.242188 162.789062 C 181.726562 162.441406 181.246094 162.050781 180.808594 161.609375 C 180.367188 161.171875 179.976562 160.691406 179.628906 160.175781 C 179.285156 159.660156 178.992188 159.113281 178.753906 158.539062 C 178.519531 157.964844 178.339844 157.375 178.21875 156.765625 C 178.09375 156.15625 178.035156 155.539062 178.035156 154.917969 C 178.035156 154.296875 178.097656 153.679688 178.21875 153.070312 C 178.339844 152.460938 178.519531 151.871094 178.757812 151.296875 C 178.996094 150.722656 179.289062 150.179688 179.632812 149.660156 C 179.976562 149.144531 180.371094 148.667969 180.808594 148.226562 C 181.25 147.789062 181.726562 147.394531 182.242188 147.050781 C 182.761719 146.707031 183.304688 146.414062 183.878906 146.175781 C 184.453125 145.9375 185.042969 145.757812 185.652344 145.636719 C 186.261719 145.515625 186.878906 145.453125 187.5 145.453125 Z M 187.5 145.453125 " fill-opacity="1" fill-rule="nonzero"/></svg>