<svg xmlns="http://www.w3.org/2000/svg" xmlns:xlink="http://www.w3.org/1999/xlink" width="500" zoomAndPan="magnify" viewBox="0 0 375 374.999991" height="500" preserveAspectRatio="xMidYMid meet" version="1.0"><defs><clipPath id="382ffbb6d4"><path d="M 112.5 112.5 L 262.5 112.5 L 262.5 262.5 L 112.5 262.5 Z M 112.5 112.5 " clip-rule="nonzero"/></clipPath></defs><path fill="#ffffff" d="M 132.960938 171.140625 C 134.222656 173.125 136.292969 174.347656 138.636719 174.496094 C 138.800781 174.507812 138.960938 174.511719 139.121094 174.511719 C 141.285156 174.511719 143.292969 173.574219 144.695312 171.894531 L 149.582031 166.027344 C 150.617188 164.785156 150.449219 162.9375 149.207031 161.902344 C 147.964844 160.867188 146.117188 161.035156 145.082031 162.277344 L 140.195312 168.140625 C 139.792969 168.625 139.28125 168.667969 139.011719 168.648438 C 138.742188 168.632812 138.242188 168.523438 137.90625 167.996094 L 137.042969 166.640625 C 136.175781 165.277344 134.363281 164.875 133 165.742188 C 131.632812 166.609375 131.230469 168.421875 132.097656 169.785156 Z M 132.960938 171.140625 " fill-opacity="1" fill-rule="nonzero"/><path fill="#ffffff" d="M 158.933594 172.304688 L 182.074219 172.304688 C 183.695312 172.304688 185.003906 170.992188 185.003906 169.375 C 185.003906 167.753906 183.695312 166.445312 182.074219 166.445312 L 158.933594 166.445312 C 157.316406 166.445312 156.003906 167.753906 156.003906 169.375 C 156.003906 170.992188 157.316406 172.304688 158.933594 172.304688 Z M 158.933594 172.304688 " fill-opacity="1" fill-rule="nonzero"/><path fill="#ffffff" d="M 132.960938 189.703125 C 134.222656 191.683594 136.292969 192.910156 138.636719 193.058594 C 138.800781 193.070312 138.960938 193.074219 139.121094 193.074219 C 141.285156 193.074219 143.292969 192.136719 144.695312 190.453125 L 149.582031 184.589844 C 150.617188 183.347656 150.449219 181.5 149.207031 180.464844 C 147.964844 179.429688 146.117188 179.597656 145.082031 180.839844 L 140.195312 186.703125 C 139.792969 187.1875 139.28125 187.226562 139.011719 187.210938 C 138.742188 187.195312 138.242188 187.085938 137.90625 186.554688 L 137.042969 185.203125 C 136.175781 183.835938 134.363281 183.433594 133 184.304688 C 131.632812 185.171875 131.230469 186.984375 132.097656 188.347656 Z M 132.960938 189.703125 " fill-opacity="1" fill-rule="nonzero"/><path fill="#ffffff" d="M 158.933594 190.863281 L 182.074219 190.863281 C 183.695312 190.863281 185.003906 189.554688 185.003906 187.933594 C 185.003906 186.316406 183.695312 185.003906 182.074219 185.003906 L 158.933594 185.003906 C 157.316406 185.003906 156.003906 186.316406 156.003906 187.933594 C 156.003906 189.554688 157.316406 190.863281 158.933594 190.863281 Z M 158.933594 190.863281 " fill-opacity="1" fill-rule="nonzero"/><path fill="#ffffff" d="M 132.960938 208.261719 C 134.222656 210.246094 136.292969 211.46875 138.636719 211.621094 C 138.800781 211.628906 138.960938 211.636719 139.121094 211.636719 C 141.285156 211.636719 143.292969 210.695312 144.695312 209.015625 L 149.582031 203.152344 C 150.617188 201.910156 150.449219 200.0625 149.207031 199.023438 C 147.964844 197.988281 146.117188 198.15625 145.082031 199.398438 L 140.195312 205.265625 C 139.792969 205.746094 139.28125 205.789062 139.011719 205.773438 C 138.742188 205.753906 138.242188 205.648438 137.90625 205.117188 L 137.042969 203.761719 C 136.175781 202.398438 134.363281 201.996094 133 202.863281 C 131.632812 203.734375 131.230469 205.542969 132.097656 206.910156 Z M 132.960938 208.261719 " fill-opacity="1" fill-rule="nonzero"/><path fill="#ffffff" d="M 158.933594 209.425781 L 182.074219 209.425781 C 183.695312 209.425781 185.003906 208.113281 185.003906 206.496094 C 185.003906 204.878906 183.695312 203.566406 182.074219 203.566406 L 158.933594 203.566406 C 157.316406 203.566406 156.003906 204.878906 156.003906 206.496094 C 156.003906 208.113281 157.316406 209.425781 158.933594 209.425781 Z M 158.933594 209.425781 " fill-opacity="1" fill-rule="nonzero"/><g clip-path="url(#382ffbb6d4)"><path fill="#ffffff" d="M 259.957031 211.855469 L 252.652344 210.882812 C 251.84375 207.789062 250.609375 204.847656 248.96875 202.101562 L 253.308594 196.023438 C 254.140625 194.863281 254.011719 193.265625 252.996094 192.25 L 246.535156 185.792969 C 245.5 184.753906 243.851562 184.644531 242.6875 185.535156 L 236.785156 190.046875 C 234.097656 188.476562 231.230469 187.300781 228.21875 186.523438 L 227.234375 179.136719 C 227.042969 177.683594 225.800781 176.59375 224.332031 176.59375 L 215.808594 176.59375 L 215.808594 128.191406 C 215.808594 124.175781 212.539062 120.910156 208.527344 120.910156 L 187.382812 120.910156 L 187.382812 119.78125 C 187.386719 117.835938 186.625 116.007812 185.253906 114.632812 C 183.875 113.253906 182.046875 112.5 180.105469 112.5 L 148.199219 112.5 C 144.1875 112.5 140.921875 115.765625 140.921875 119.78125 L 140.921875 120.910156 L 119.78125 120.910156 C 115.765625 120.910156 112.5 124.175781 112.5 128.191406 L 112.5 239.558594 C 112.5 243.570312 115.765625 246.835938 119.78125 246.835938 L 186.09375 246.835938 L 192.25 252.996094 C 193.265625 254.007812 194.859375 254.140625 196.023438 253.308594 L 202.234375 248.875 C 204.992188 250.523438 207.949219 251.757812 211.058594 252.558594 L 212.308594 260.054688 C 212.542969 261.464844 213.765625 262.5 215.195312 262.5 L 224.332031 262.5 C 225.800781 262.5 227.042969 261.414062 227.234375 259.957031 L 228.21875 252.570312 C 231.292969 251.777344 234.21875 250.5625 236.960938 248.945312 L 243.070312 253.308594 C 244.234375 254.140625 245.828125 254.007812 246.84375 252.996094 L 253.304688 246.535156 C 254.34375 245.5 254.453125 243.851562 253.558594 242.6875 L 249.074219 236.820312 C 250.703125 234.058594 251.917969 231.109375 252.703125 228.011719 L 260.050781 226.785156 C 261.460938 226.550781 262.5 225.332031 262.5 223.898438 L 262.5 214.761719 C 262.5 213.292969 261.414062 212.050781 259.957031 211.855469 Z M 187.382812 126.769531 L 208.527344 126.769531 C 209.308594 126.769531 209.945312 127.410156 209.945312 128.191406 L 209.945312 186.84375 C 208.585938 187.246094 207.246094 187.734375 205.945312 188.308594 L 205.945312 138.050781 C 205.945312 134.039062 202.679688 130.773438 198.664062 130.773438 L 187.382812 130.773438 Z M 141.136719 136.632812 C 141.929688 139.792969 144.796875 142.140625 148.199219 142.140625 L 180.101562 142.140625 C 183.507812 142.140625 186.371094 139.792969 187.164062 136.632812 L 198.664062 136.632812 C 199.445312 136.632812 200.085938 137.269531 200.085938 138.050781 L 200.085938 188.347656 L 196.410156 185.535156 C 195.242188 184.644531 193.597656 184.753906 192.558594 185.792969 L 186.097656 192.25 C 185.085938 193.265625 184.953125 194.859375 185.785156 196.023438 L 190.242188 202.265625 C 188.652344 204.957031 187.457031 207.835938 186.667969 210.851562 L 179.136719 211.855469 C 177.683594 212.050781 176.59375 213.292969 176.59375 214.761719 L 176.59375 223.898438 C 176.59375 225.332031 177.632812 226.550781 179.042969 226.785156 L 186.617188 228.050781 C 186.941406 229.285156 187.316406 230.507812 187.773438 231.699219 L 129.640625 231.699219 C 128.859375 231.699219 128.21875 231.0625 128.21875 230.277344 L 128.21875 138.050781 C 128.21875 137.269531 128.859375 136.632812 129.640625 136.632812 Z M 186.839844 240.976562 L 119.78125 240.976562 C 118.996094 240.976562 118.359375 240.339844 118.359375 239.558594 L 118.359375 128.191406 C 118.359375 127.410156 118.996094 126.769531 119.78125 126.769531 L 140.921875 126.769531 L 140.921875 130.773438 L 129.640625 130.773438 C 125.628906 130.773438 122.359375 134.039062 122.359375 138.050781 L 122.359375 230.277344 C 122.359375 234.292969 125.628906 237.558594 129.640625 237.558594 L 189.453125 237.558594 Z M 256.640625 221.417969 L 249.792969 222.554688 C 248.582031 222.753906 247.625 223.691406 247.398438 224.898438 C 246.679688 228.648438 245.230469 232.164062 243.082031 235.339844 C 242.757812 235.824219 242.582031 236.394531 242.582031 236.980469 C 242.582031 237.625 242.792969 238.25 243.183594 238.761719 L 247.347656 244.207031 L 244.457031 247.097656 L 238.765625 243.03125 C 237.773438 242.324219 236.441406 242.300781 235.425781 242.988281 C 232.257812 245.121094 228.765625 246.566406 225.035156 247.28125 C 223.796875 247.519531 222.847656 248.523438 222.683594 249.773438 L 221.765625 256.640625 L 217.679688 256.640625 L 216.511719 249.65625 C 216.3125 248.453125 215.382812 247.5 214.1875 247.265625 C 210.441406 246.53125 206.945312 245.070312 203.789062 242.921875 C 202.773438 242.230469 201.4375 242.246094 200.4375 242.957031 L 194.640625 247.097656 L 191.746094 244.207031 L 196.027344 238.605469 C 196.792969 237.609375 196.832031 236.238281 196.136719 235.195312 C 195.710938 234.566406 195.304688 233.898438 194.921875 233.207031 C 193.492188 230.625 192.480469 227.839844 191.921875 224.929688 C 191.6875 223.726562 190.734375 222.792969 189.523438 222.59375 L 182.453125 221.417969 L 182.453125 217.328125 L 189.453125 216.390625 C 190.699219 216.226562 191.699219 215.289062 191.941406 214.054688 C 192.664062 210.371094 194.097656 206.921875 196.199219 203.796875 C 196.878906 202.785156 196.863281 201.453125 196.152344 200.460938 L 191.996094 194.640625 L 194.886719 191.746094 L 200.464844 196.007812 C 201.457031 196.769531 202.824219 196.8125 203.867188 196.117188 C 206.960938 194.03125 210.492188 192.539062 214.160156 191.835938 C 215.371094 191.609375 216.308594 190.652344 216.511719 189.4375 L 217.679688 182.453125 L 221.765625 182.453125 L 222.683594 189.320312 C 222.847656 190.574219 223.796875 191.574219 225.035156 191.8125 C 228.722656 192.523438 232.1875 193.941406 235.328125 196.039062 C 236.371094 196.738281 237.742188 196.691406 238.734375 195.929688 L 244.207031 191.746094 L 247.097656 194.640625 L 243.050781 200.304688 C 242.335938 201.304688 242.324219 202.644531 243.015625 203.660156 C 245.171875 206.824219 246.640625 210.332031 247.375 214.082031 C 247.617188 215.3125 248.617188 216.257812 249.863281 216.421875 L 256.640625 217.328125 Z M 256.640625 221.417969 " fill-opacity="1" fill-rule="nonzero"/></g><path fill="#ffffff" d="M 219.65625 205.742188 C 216.535156 205.742188 213.480469 206.8125 211.046875 208.753906 C 207.742188 211.394531 205.851562 215.328125 205.851562 219.546875 C 205.851562 223.765625 207.742188 227.699219 211.046875 230.339844 C 213.480469 232.28125 216.535156 233.351562 219.65625 233.351562 C 227.265625 233.351562 233.460938 227.160156 233.460938 219.546875 C 233.460938 211.9375 227.265625 205.742188 219.65625 205.742188 Z M 219.65625 205.742188 " fill-opacity="1" fill-rule="nonzero"/></svg>