<svg xmlns="http://www.w3.org/2000/svg" xmlns:xlink="http://www.w3.org/1999/xlink" width="500" zoomAndPan="magnify" viewBox="0 0 375 374.999991" height="500" preserveAspectRatio="xMidYMid meet" version="1.0"><defs><clipPath id="bff44730d3"><path d="M 117.46875 112.5 L 257.71875 112.5 L 257.71875 262.5 L 117.46875 262.5 Z M 117.46875 112.5 " clip-rule="nonzero"/></clipPath></defs><g clip-path="url(#bff44730d3)"><path fill="#ffffff" d="M 122.507812 125 C 122.507812 120.863281 125.875 117.5 130.015625 117.5 L 202.613281 117.5 L 202.613281 135 C 202.613281 141.890625 208.230469 147.5 215.128906 147.5 L 232.652344 147.5 L 232.652344 193.957031 C 229.480469 193.011719 226.121094 192.5 222.640625 192.5 C 203.316406 192.5 187.59375 208.199219 187.59375 227.5 C 187.59375 240.21875 194.421875 251.371094 204.605469 257.5 L 130.015625 257.5 C 125.875 257.5 122.507812 254.136719 122.507812 250 Z M 207.621094 121.035156 L 229.113281 142.5 L 215.128906 142.5 C 210.988281 142.5 207.621094 139.136719 207.621094 135 Z M 252.679688 227.5 C 252.679688 244.042969 239.203125 257.5 222.640625 257.5 C 206.078125 257.5 192.601562 244.042969 192.601562 227.5 C 192.601562 210.957031 206.078125 197.5 222.640625 197.5 C 239.203125 197.5 252.679688 210.957031 252.679688 227.5 Z M 117.5 250 C 117.5 256.890625 123.117188 262.5 130.015625 262.5 L 222.640625 262.5 C 241.964844 262.5 257.6875 246.800781 257.6875 227.5 C 257.6875 213.566406 249.492188 201.507812 237.660156 195.882812 L 237.660156 145 C 237.660156 144.335938 237.398438 143.699219 236.925781 143.230469 L 206.886719 113.230469 C 206.417969 112.761719 205.78125 112.5 205.117188 112.5 L 130.015625 112.5 C 123.117188 112.5 117.5 118.109375 117.5 125 L 117.5 250 " fill-opacity="1" fill-rule="nonzero"/></g><path fill="#ffffff" d="M 157.554688 160 C 157.554688 161.378906 158.675781 162.5 160.058594 162.5 L 220.136719 162.5 C 221.519531 162.5 222.640625 161.378906 222.640625 160 C 222.640625 158.621094 221.519531 157.5 220.136719 157.5 L 160.058594 157.5 C 158.675781 157.5 157.554688 158.621094 157.554688 160 " fill-opacity="1" fill-rule="nonzero"/><path fill="#ffffff" d="M 135.023438 177.5 L 185.089844 177.5 C 186.472656 177.5 187.59375 176.378906 187.59375 175 C 187.59375 173.621094 186.472656 172.5 185.089844 172.5 L 135.023438 172.5 C 133.640625 172.5 132.519531 173.621094 132.519531 175 C 132.519531 176.378906 133.640625 177.5 135.023438 177.5 " fill-opacity="1" fill-rule="nonzero"/><path fill="#ffffff" d="M 195.105469 187.5 L 175.078125 187.5 C 173.695312 187.5 172.574219 188.621094 172.574219 190 C 172.574219 191.378906 173.695312 192.5 175.078125 192.5 L 195.105469 192.5 C 196.484375 192.5 197.605469 191.378906 197.605469 190 C 197.605469 188.621094 196.484375 187.5 195.105469 187.5 " fill-opacity="1" fill-rule="nonzero"/><path fill="#ffffff" d="M 135.023438 207.5 L 180.082031 207.5 C 181.464844 207.5 182.585938 206.378906 182.585938 205 C 182.585938 203.621094 181.464844 202.5 180.082031 202.5 L 135.023438 202.5 C 133.640625 202.5 132.519531 203.621094 132.519531 205 C 132.519531 206.378906 133.640625 207.5 135.023438 207.5 " fill-opacity="1" fill-rule="nonzero"/><path fill="#ffffff" d="M 135.023438 162.5 L 150.042969 162.5 C 151.425781 162.5 152.546875 161.378906 152.546875 160 C 152.546875 158.621094 151.425781 157.5 150.042969 157.5 L 135.023438 157.5 C 133.640625 157.5 132.519531 158.621094 132.519531 160 C 132.519531 161.378906 133.640625 162.5 135.023438 162.5 " fill-opacity="1" fill-rule="nonzero"/><path fill="#ffffff" d="M 220.136719 172.5 L 195.105469 172.5 C 193.722656 172.5 192.601562 173.621094 192.601562 175 C 192.601562 176.378906 193.722656 177.5 195.105469 177.5 L 220.136719 177.5 C 221.519531 177.5 222.640625 176.378906 222.640625 175 C 222.640625 173.621094 221.519531 172.5 220.136719 172.5 " fill-opacity="1" fill-rule="nonzero"/><path fill="#ffffff" d="M 135.023438 192.5 L 165.0625 192.5 C 166.445312 192.5 167.566406 191.378906 167.566406 190 C 167.566406 188.621094 166.445312 187.5 165.0625 187.5 L 135.023438 187.5 C 133.640625 187.5 132.519531 188.621094 132.519531 190 C 132.519531 191.378906 133.640625 192.5 135.023438 192.5 " fill-opacity="1" fill-rule="nonzero"/><path fill="#ffffff" d="M 175.078125 232.5 L 165.0625 232.5 C 163.679688 232.5 162.558594 233.621094 162.558594 235 C 162.558594 236.378906 163.679688 237.5 165.0625 237.5 L 175.078125 237.5 C 176.460938 237.5 177.582031 236.378906 177.582031 235 C 177.582031 233.621094 176.460938 232.5 175.078125 232.5 " fill-opacity="1" fill-rule="nonzero"/><path fill="#ffffff" d="M 135.023438 237.5 L 155.050781 237.5 C 156.433594 237.5 157.554688 236.378906 157.554688 235 C 157.554688 233.621094 156.433594 232.5 155.050781 232.5 L 135.023438 232.5 C 133.640625 232.5 132.519531 233.621094 132.519531 235 C 132.519531 236.378906 133.640625 237.5 135.023438 237.5 " fill-opacity="1" fill-rule="nonzero"/><path fill="#ffffff" d="M 135.023438 222.5 L 150.042969 222.5 C 151.425781 222.5 152.546875 221.378906 152.546875 220 C 152.546875 218.621094 151.425781 217.5 150.042969 217.5 L 135.023438 217.5 C 133.640625 217.5 132.519531 218.621094 132.519531 220 C 132.519531 221.378906 133.640625 222.5 135.023438 222.5 " fill-opacity="1" fill-rule="nonzero"/><path fill="#ffffff" d="M 135.023438 147.5 L 165.0625 147.5 C 166.445312 147.5 167.566406 146.378906 167.566406 145 C 167.566406 143.621094 166.445312 142.5 165.0625 142.5 L 135.023438 142.5 C 133.640625 142.5 132.519531 143.621094 132.519531 145 C 132.519531 146.378906 133.640625 147.5 135.023438 147.5 " fill-opacity="1" fill-rule="nonzero"/><path fill="#ffffff" d="M 175.078125 217.5 L 160.058594 217.5 C 158.675781 217.5 157.554688 218.621094 157.554688 220 C 157.554688 221.378906 158.675781 222.5 160.058594 222.5 L 175.078125 222.5 C 176.460938 222.5 177.582031 221.378906 177.582031 220 C 177.582031 218.621094 176.460938 217.5 175.078125 217.5 " fill-opacity="1" fill-rule="nonzero"/><path fill="#ffffff" d="M 208.519531 210.578125 C 207.460938 211.464844 207.316406 213.039062 208.199219 214.101562 L 220.707031 229.089844 C 220.707031 229.089844 220.710938 229.089844 220.710938 229.089844 L 220.71875 229.101562 C 220.726562 229.109375 220.734375 229.117188 220.742188 229.128906 C 220.792969 229.183594 220.839844 229.238281 220.894531 229.289062 C 220.917969 229.3125 220.945312 229.335938 220.972656 229.359375 C 221.007812 229.394531 221.046875 229.425781 221.089844 229.460938 C 221.121094 229.484375 221.152344 229.507812 221.183594 229.527344 C 221.222656 229.558594 221.261719 229.582031 221.300781 229.609375 C 221.332031 229.628906 221.367188 229.652344 221.398438 229.667969 C 221.445312 229.695312 221.488281 229.71875 221.535156 229.738281 C 221.566406 229.753906 221.59375 229.773438 221.628906 229.785156 C 221.679688 229.808594 221.734375 229.828125 221.785156 229.847656 C 221.8125 229.855469 221.839844 229.867188 221.867188 229.875 C 221.929688 229.898438 221.992188 229.914062 222.058594 229.929688 C 222.078125 229.933594 222.097656 229.941406 222.117188 229.945312 C 222.191406 229.960938 222.265625 229.972656 222.339844 229.980469 C 222.351562 229.980469 222.363281 229.984375 222.375 229.984375 C 222.464844 229.996094 222.550781 230 222.640625 230 L 240.164062 230 C 241.546875 230 242.667969 228.878906 242.667969 227.5 C 242.667969 226.121094 241.546875 225 240.164062 225 L 223.8125 225 L 212.046875 210.898438 C 211.160156 209.839844 209.582031 209.695312 208.519531 210.578125 " fill-opacity="1" fill-rule="nonzero"/></svg>