<svg xmlns="http://www.w3.org/2000/svg" xmlns:xlink="http://www.w3.org/1999/xlink" width="500" zoomAndPan="magnify" viewBox="0 0 375 374.999991" height="500" preserveAspectRatio="xMidYMid meet" version="1.0"><defs><clipPath id="15d46021bf"><path d="M 128.8125 112.5 L 246.5625 112.5 L 246.5625 262.5 L 128.8125 262.5 Z M 128.8125 112.5 " clip-rule="nonzero"/></clipPath></defs><path fill="#ffffff" d="M 187.6875 222.710938 C 168.234375 222.710938 152.410156 206.933594 152.410156 187.542969 C 152.410156 168.152344 168.234375 152.375 187.6875 152.375 C 207.140625 152.375 222.96875 168.152344 222.96875 187.542969 C 222.96875 206.933594 207.140625 222.710938 187.6875 222.710938 Z M 187.6875 145.097656 C 164.207031 145.097656 145.105469 164.140625 145.105469 187.542969 C 145.105469 210.945312 164.207031 229.988281 187.6875 229.988281 C 211.167969 229.988281 230.269531 210.945312 230.269531 187.542969 C 230.269531 164.140625 211.167969 145.097656 187.6875 145.097656 " fill-opacity="1" fill-rule="nonzero"/><path fill="#ffffff" d="M 211.9375 171.597656 C 210.574219 170.121094 208.261719 170.03125 206.777344 171.394531 L 179.917969 196.109375 L 168.546875 186.019531 C 167.042969 184.683594 164.734375 184.816406 163.394531 186.316406 C 162.054688 187.816406 162.1875 190.117188 163.691406 191.453125 L 177.535156 203.734375 C 178.226562 204.351562 179.09375 204.660156 179.964844 204.660156 C 180.847656 204.660156 181.738281 204.335938 182.4375 203.691406 L 211.730469 176.738281 C 213.210938 175.375 213.304688 173.074219 211.9375 171.597656 " fill-opacity="1" fill-rule="nonzero"/><g clip-path="url(#15d46021bf)"><path fill="#ffffff" d="M 239.152344 148.132812 L 210.941406 119.808594 L 230.519531 119.808594 C 235.28125 119.808594 239.152344 123.667969 239.152344 128.414062 Z M 239.152344 246.671875 C 239.152344 251.417969 235.28125 255.277344 230.519531 255.277344 L 144.855469 255.277344 C 140.09375 255.277344 136.222656 251.417969 136.222656 246.671875 L 136.222656 128.414062 C 136.222656 123.667969 140.09375 119.808594 144.855469 119.808594 L 200.660156 119.808594 L 239.152344 158.460938 Z M 230.519531 112.53125 L 144.855469 112.53125 C 136.070312 112.53125 128.921875 119.65625 128.921875 128.414062 L 128.921875 246.671875 C 128.921875 255.429688 136.070312 262.554688 144.855469 262.554688 L 230.519531 262.554688 C 239.304688 262.554688 246.453125 255.429688 246.453125 246.671875 L 246.453125 128.414062 C 246.453125 119.65625 239.304688 112.53125 230.519531 112.53125 " fill-opacity="1" fill-rule="nonzero"/></g></svg>