<svg xmlns="http://www.w3.org/2000/svg" xmlns:xlink="http://www.w3.org/1999/xlink" width="500" zoomAndPan="magnify" viewBox="0 0 375 374.999991" height="500" preserveAspectRatio="xMidYMid meet" version="1.0"><defs><clipPath id="a628cfbd31"><path d="M 125.71875 112.5 L 249.46875 112.5 L 249.46875 262.5 L 125.71875 262.5 Z M 125.71875 112.5 " clip-rule="nonzero"/></clipPath></defs><path fill="#ffffff" d="M 155.28125 185.367188 C 155.28125 185.859375 154.882812 186.257812 154.394531 186.257812 L 146.667969 186.257812 C 146.179688 186.257812 145.78125 185.859375 145.78125 185.367188 L 145.78125 177.65625 C 145.78125 177.167969 146.179688 176.769531 146.667969 176.769531 L 154.394531 176.769531 C 154.882812 176.769531 155.28125 177.167969 155.28125 177.65625 Z M 154.394531 173.527344 L 146.667969 173.527344 C 144.386719 173.527344 142.535156 175.378906 142.535156 177.65625 L 142.535156 185.367188 C 142.535156 187.644531 144.386719 189.496094 146.667969 189.496094 L 154.394531 189.496094 C 156.675781 189.496094 158.527344 187.644531 158.527344 185.367188 L 158.527344 177.65625 C 158.527344 175.378906 156.675781 173.527344 154.394531 173.527344 " fill-opacity="1" fill-rule="nonzero"/><path fill="#ffffff" d="M 166.21875 179.890625 C 165.324219 179.890625 164.597656 180.617188 164.597656 181.511719 C 164.597656 182.40625 165.324219 183.132812 166.21875 183.132812 L 219.910156 183.132812 C 220.808594 183.132812 221.535156 182.40625 221.535156 181.511719 C 221.535156 180.617188 220.808594 179.890625 219.910156 179.890625 L 166.21875 179.890625 " fill-opacity="1" fill-rule="nonzero"/><path fill="#ffffff" d="M 155.28125 209.847656 C 155.28125 210.339844 154.882812 210.738281 154.394531 210.738281 L 146.667969 210.738281 C 146.179688 210.738281 145.78125 210.339844 145.78125 209.847656 L 145.78125 202.136719 C 145.78125 201.644531 146.179688 201.246094 146.667969 201.246094 L 154.394531 201.246094 C 154.882812 201.246094 155.28125 201.644531 155.28125 202.136719 Z M 154.394531 198.007812 L 146.667969 198.007812 C 144.386719 198.007812 142.535156 199.859375 142.535156 202.136719 L 142.535156 209.847656 C 142.535156 212.125 144.386719 213.976562 146.667969 213.976562 L 154.394531 213.976562 C 156.675781 213.976562 158.527344 212.125 158.527344 209.847656 L 158.527344 202.136719 C 158.527344 199.859375 156.675781 198.007812 154.394531 198.007812 " fill-opacity="1" fill-rule="nonzero"/><path fill="#ffffff" d="M 219.910156 204.371094 L 166.21875 204.371094 C 165.324219 204.371094 164.597656 205.097656 164.597656 205.992188 C 164.597656 206.886719 165.324219 207.613281 166.21875 207.613281 L 219.910156 207.613281 C 220.808594 207.613281 221.535156 206.886719 221.535156 205.992188 C 221.535156 205.097656 220.808594 204.371094 219.910156 204.371094 " fill-opacity="1" fill-rule="nonzero"/><path fill="#ffffff" d="M 155.28125 234.328125 C 155.28125 234.820312 154.882812 235.21875 154.394531 235.21875 L 146.667969 235.21875 C 146.179688 235.21875 145.78125 234.820312 145.78125 234.328125 L 145.78125 226.617188 C 145.78125 226.125 146.179688 225.726562 146.667969 225.726562 L 154.394531 225.726562 C 154.882812 225.726562 155.28125 226.125 155.28125 226.617188 Z M 154.394531 222.484375 L 146.667969 222.484375 C 144.386719 222.484375 142.535156 224.335938 142.535156 226.617188 L 142.535156 234.328125 C 142.535156 236.605469 144.386719 238.457031 146.667969 238.457031 L 154.394531 238.457031 C 156.675781 238.457031 158.527344 236.605469 158.527344 234.328125 L 158.527344 226.617188 C 158.527344 224.335938 156.675781 222.484375 154.394531 222.484375 " fill-opacity="1" fill-rule="nonzero"/><path fill="#ffffff" d="M 219.910156 228.851562 L 166.21875 228.851562 C 165.324219 228.851562 164.597656 229.574219 164.597656 230.46875 C 164.597656 231.367188 165.324219 232.089844 166.21875 232.089844 L 219.910156 232.089844 C 220.808594 232.089844 221.535156 231.367188 221.535156 230.46875 C 221.535156 229.574219 220.808594 228.851562 219.910156 228.851562 " fill-opacity="1" fill-rule="nonzero"/><g clip-path="url(#a628cfbd31)"><path fill="#ffffff" d="M 223.398438 159.683594 C 222.472656 161.058594 221.003906 161.976562 219.359375 162.203125 C 219.09375 162.242188 218.828125 162.257812 218.558594 162.257812 C 217.1875 162.257812 215.847656 161.773438 214.789062 160.875 L 199.625 148.019531 C 197.167969 145.941406 196.871094 142.269531 198.953125 139.820312 C 201.035156 137.371094 204.710938 137.066406 207.167969 139.148438 L 217.355469 147.789062 L 230.996094 127.488281 C 232.789062 124.816406 236.40625 124.105469 239.082031 125.898438 C 241.753906 127.6875 242.46875 131.300781 240.675781 133.96875 Z M 231.855469 245.390625 C 231.855469 251.210938 227.113281 255.941406 221.289062 255.941406 L 142.785156 255.941406 C 136.957031 255.941406 132.214844 251.210938 132.214844 245.390625 L 132.214844 167.574219 L 133.5625 166.230469 L 148.902344 166.230469 C 156.53125 166.230469 162.714844 160.054688 162.714844 152.433594 L 162.714844 137.117188 L 164.0625 135.777344 L 191.042969 135.777344 C 190.597656 137.8125 190.347656 139.921875 190.347656 142.089844 C 190.347656 158.398438 203.585938 171.609375 219.910156 171.609375 C 224.164062 171.609375 228.199219 170.699219 231.855469 169.082031 Z M 249.476562 142.089844 C 249.476562 125.789062 236.242188 112.574219 219.910156 112.574219 C 208.183594 112.574219 198.082031 119.410156 193.304688 129.292969 L 162.714844 129.292969 C 161.855469 129.292969 161.03125 129.632812 160.421875 130.242188 L 126.675781 163.9375 C 126.066406 164.546875 125.722656 165.371094 125.722656 166.230469 L 125.722656 245.390625 C 125.722656 254.785156 133.375 262.425781 142.785156 262.425781 L 221.289062 262.425781 C 230.695312 262.425781 238.34375 254.785156 238.34375 245.390625 L 238.34375 165.148438 C 245.121094 159.742188 249.476562 151.429688 249.476562 142.089844 " fill-opacity="1" fill-rule="nonzero"/></g></svg>