<svg xmlns="http://www.w3.org/2000/svg" xmlns:xlink="http://www.w3.org/1999/xlink" width="500" zoomAndPan="magnify" viewBox="0 0 375 374.999991" height="500" preserveAspectRatio="xMidYMid meet" version="1.0"><defs><clipPath id="a76aee02c8"><path d="M 115.03125 120 L 257 120 L 257 262.5 L 115.03125 262.5 Z M 115.03125 120 " clip-rule="nonzero"/></clipPath><clipPath id="7869c3662e"><path d="M 143 112.5 L 259.78125 112.5 L 259.78125 233 L 143 233 Z M 143 112.5 " clip-rule="nonzero"/></clipPath></defs><g clip-path="url(#a76aee02c8)"><path fill="#ffffff" d="M 185.730469 120.863281 C 146.757812 120.863281 115.03125 152.632812 115.03125 191.652344 C 115.03125 230.671875 146.757812 262.441406 185.730469 262.441406 C 224.699219 262.441406 256.425781 230.671875 256.425781 191.652344 C 256.425781 174.78125 250.726562 159.699219 241.042969 147.339844 L 234.386719 155.238281 C 242.828125 165.644531 246.128906 177.195312 246.128906 191.652344 C 246.128906 225.089844 219.125 252.117188 185.726562 252.117188 C 152.332031 252.117188 125.324219 225.089844 125.324219 191.652344 C 125.324219 158.214844 152.332031 131.171875 185.726562 131.171875 C 196.308594 131.171875 204.226562 132.695312 212.867188 137.472656 L 219.191406 129.15625 C 209.074219 123.5625 198.078125 120.863281 185.730469 120.863281 Z M 185.730469 120.863281 " fill-opacity="1" fill-rule="evenodd"/></g><g clip-path="url(#7869c3662e)"><path fill="#ffffff" d="M 159.5625 182.34375 C 162.414062 182.34375 164.570312 184.683594 166.03125 189.367188 C 168.957031 198.152344 171.039062 202.542969 172.28125 202.542969 C 173.234375 202.542969 174.21875 201.8125 175.242188 200.347656 C 195.785156 167.410156 214.789062 140.769531 232.261719 120.421875 C 236.792969 115.152344 243.992188 112.515625 253.859375 112.515625 C 256.199219 112.515625 257.769531 112.734375 258.574219 113.175781 C 259.378906 113.613281 259.78125 114.164062 259.78125 114.820312 C 259.78125 115.847656 258.574219 117.859375 256.164062 120.859375 C 227.949219 154.820312 201.777344 190.6875 177.65625 228.453125 C 175.972656 231.089844 172.539062 232.40625 167.347656 232.40625 C 162.085938 232.40625 158.976562 232.1875 158.027344 231.746094 C 155.542969 230.648438 152.617188 225.050781 149.257812 214.949219 C 145.453125 203.75 143.554688 196.722656 143.554688 193.871094 C 143.554688 190.796875 146.113281 187.832031 151.230469 184.976562 C 154.375 183.21875 157.152344 182.339844 159.5625 182.339844 " fill-opacity="1" fill-rule="nonzero"/></g></svg>