<svg xmlns="http://www.w3.org/2000/svg" xmlns:xlink="http://www.w3.org/1999/xlink" width="500" zoomAndPan="magnify" viewBox="0 0 375 374.999991" height="500" preserveAspectRatio="xMidYMid meet" version="1.0"><defs><clipPath id="c853c74dbb"><path d="M 112.5 208 L 167 208 L 167 242 L 112.5 242 Z M 112.5 208 " clip-rule="nonzero"/></clipPath><clipPath id="26ef404e89"><path d="M 208 208 L 262.5 208 L 262.5 242 L 208 242 Z M 208 208 " clip-rule="nonzero"/></clipPath><clipPath id="d92fa53aa4"><path d="M 158 220 L 217 220 L 217 253.96875 L 158 253.96875 Z M 158 220 " clip-rule="nonzero"/></clipPath><clipPath id="c0cd95d6b7"><path d="M 160 121.21875 L 215 121.21875 L 215 176 L 160 176 Z M 160 121.21875 " clip-rule="nonzero"/></clipPath></defs><path fill="#ffffff" d="M 144.992188 167.097656 L 144.992188 157.953125 C 144.992188 154.167969 147.984375 151.175781 151.761719 151.175781 L 155.226562 151.175781 C 155.066406 150.226562 155.066406 149.125 155.066406 148.179688 C 155.066406 147.234375 155.066406 146.128906 155.226562 145.183594 L 151.761719 145.183594 C 144.675781 145.183594 139.007812 150.859375 139.007812 157.953125 L 139.007812 167.097656 C 139.953125 166.941406 141.054688 166.941406 142 166.941406 C 142.945312 166.941406 144.046875 166.941406 144.992188 167.097656 Z M 144.992188 167.097656 " fill-opacity="1" fill-rule="nonzero"/><path fill="#ffffff" d="M 223.710938 151.175781 C 227.332031 151.175781 230.480469 154.167969 230.480469 157.953125 L 230.480469 167.097656 C 231.425781 166.941406 232.527344 166.941406 233.472656 166.941406 C 234.574219 166.941406 235.519531 166.941406 236.464844 167.097656 L 236.464844 157.953125 C 236.464844 150.859375 230.796875 145.183594 223.710938 145.183594 L 220.246094 145.183594 C 220.40625 146.128906 220.40625 147.234375 220.40625 148.179688 C 220.40625 149.125 220.40625 150.226562 220.246094 151.175781 Z M 223.710938 151.175781 " fill-opacity="1" fill-rule="nonzero"/><g clip-path="url(#c853c74dbb)"><path fill="#ffffff" d="M 166.246094 218.96875 C 163.726562 214.238281 159.632812 210.613281 154.753906 208.5625 C 151.132812 211.085938 146.566406 212.503906 141.84375 212.503906 C 137.121094 212.503906 132.710938 211.085938 128.933594 208.5625 C 122.949219 211.242188 118.070312 216.128906 115.867188 222.4375 C 114.132812 227.167969 113.03125 232.210938 112.71875 237.257812 C 112.558594 239.621094 114.449219 241.511719 116.808594 241.511719 L 153.492188 241.511719 C 154.125 238.519531 154.910156 235.523438 155.855469 232.683594 C 158.058594 227.167969 161.679688 222.4375 166.246094 218.96875 Z M 166.246094 218.96875 " fill-opacity="1" fill-rule="nonzero"/></g><path fill="#ffffff" d="M 142 206.511719 C 151.289062 206.511719 158.6875 198.945312 158.6875 189.800781 C 158.6875 180.5 151.132812 173.089844 142 173.089844 C 132.867188 173.089844 125.3125 180.65625 125.3125 189.800781 C 125.15625 198.945312 132.710938 206.511719 142 206.511719 Z M 142 206.511719 " fill-opacity="1" fill-rule="nonzero"/><g clip-path="url(#26ef404e89)"><path fill="#ffffff" d="M 259.292969 222.4375 C 257.085938 215.972656 252.207031 211.085938 246.222656 208.5625 C 242.601562 211.085938 238.195312 212.503906 233.3125 212.503906 C 228.589844 212.503906 224.027344 211.085938 220.40625 208.5625 C 215.523438 210.613281 211.589844 214.238281 208.910156 218.96875 C 213.476562 222.4375 217.097656 227.167969 219.144531 232.84375 C 220.089844 235.679688 221.035156 238.675781 221.507812 241.671875 L 258.191406 241.671875 C 260.550781 241.671875 262.441406 239.78125 262.28125 237.414062 C 262.125 232.210938 261.023438 227.167969 259.292969 222.4375 Z M 259.292969 222.4375 " fill-opacity="1" fill-rule="nonzero"/></g><path fill="#ffffff" d="M 233.3125 206.511719 C 242.601562 206.511719 250.003906 198.945312 250.003906 189.800781 C 250.003906 180.5 242.445312 173.089844 233.3125 173.089844 C 224.027344 173.089844 216.625 180.65625 216.625 189.800781 C 216.625 198.945312 224.183594 206.511719 233.3125 206.511719 Z M 233.3125 206.511719 " fill-opacity="1" fill-rule="nonzero"/><g clip-path="url(#d92fa53aa4)"><path fill="#ffffff" d="M 200.566406 220.859375 C 196.945312 223.382812 192.539062 224.800781 187.65625 224.800781 C 182.933594 224.800781 178.527344 223.382812 174.746094 220.859375 C 168.765625 223.539062 164.042969 228.429688 161.679688 234.890625 C 159.949219 239.621094 159.003906 244.667969 158.53125 249.710938 C 158.375 252.078125 160.261719 253.96875 162.625 253.96875 L 212.691406 253.96875 C 215.050781 253.96875 216.941406 252.078125 216.785156 249.710938 C 216.46875 244.667969 215.367188 239.621094 213.632812 234.890625 C 211.273438 228.429688 206.550781 223.539062 200.566406 220.859375 Z M 200.566406 220.859375 " fill-opacity="1" fill-rule="nonzero"/></g><path fill="#ffffff" d="M 170.96875 202.097656 C 170.96875 211.402344 178.527344 218.808594 187.65625 218.808594 C 196.945312 218.808594 204.347656 211.242188 204.347656 202.097656 C 204.347656 192.796875 196.789062 185.386719 187.65625 185.386719 C 178.367188 185.386719 170.96875 192.796875 170.96875 202.097656 Z M 170.96875 202.097656 " fill-opacity="1" fill-rule="nonzero"/><g clip-path="url(#c0cd95d6b7)"><path fill="#ffffff" d="M 187.65625 175.136719 C 202.457031 175.136719 214.578125 163 214.578125 148.179688 C 214.578125 133.359375 202.457031 121.21875 187.65625 121.21875 C 172.859375 121.21875 160.734375 133.359375 160.734375 148.179688 C 160.734375 163 172.859375 175.136719 187.65625 175.136719 Z M 184.824219 130.363281 C 185.609375 129.574219 186.554688 129.257812 187.816406 129.257812 C 189.074219 129.257812 190.019531 129.730469 190.804688 130.363281 C 191.59375 131.152344 192.066406 132.097656 192.066406 133.359375 C 192.066406 134.621094 191.59375 135.566406 190.804688 136.355469 C 190.019531 137.140625 189.074219 137.457031 187.816406 137.457031 C 186.554688 137.457031 185.609375 136.984375 184.824219 136.355469 C 184.035156 135.566406 183.5625 134.460938 183.5625 133.359375 C 183.5625 132.253906 184.035156 131.152344 184.824219 130.363281 Z M 180.574219 143.605469 C 180.574219 142.816406 181.046875 142.1875 181.832031 142.1875 L 187.816406 141.242188 C 187.816406 141.242188 187.972656 141.242188 188.128906 141.242188 L 189.703125 141.242188 C 190.492188 141.242188 191.121094 141.871094 191.121094 142.660156 L 191.121094 161.738281 C 191.121094 161.738281 193.640625 162.054688 193.640625 162.054688 C 194.269531 162.054688 194.898438 162.683594 194.898438 163.472656 L 194.898438 164.734375 C 194.898438 165.519531 194.269531 166.152344 193.484375 166.152344 L 181.988281 166.152344 C 181.203125 166.152344 180.574219 165.519531 180.574219 164.734375 L 180.574219 163.472656 C 180.574219 162.683594 181.203125 162.054688 181.988281 162.054688 L 184.667969 161.738281 L 184.667969 146.601562 L 181.832031 146.285156 C 181.046875 146.285156 180.414062 145.65625 180.414062 144.867188 L 180.414062 143.605469 Z M 180.574219 143.605469 " fill-opacity="1" fill-rule="nonzero"/></g></svg>