<svg xmlns="http://www.w3.org/2000/svg" xmlns:xlink="http://www.w3.org/1999/xlink" width="500" zoomAndPan="magnify" viewBox="0 0 375 374.999991" height="500" preserveAspectRatio="xMidYMid meet" version="1.0"><defs><clipPath id="62ee24f17f"><path d="M 214 112.5 L 245 112.5 L 245 143 L 214 143 Z M 214 112.5 " clip-rule="nonzero"/></clipPath><clipPath id="af570057f4"><path d="M 197 154 L 260.625 154 L 260.625 262.5 L 197 262.5 Z M 197 154 " clip-rule="nonzero"/></clipPath><clipPath id="6c8e243816"><path d="M 130 112.5 L 162 112.5 L 162 143 L 130 143 Z M 130 112.5 " clip-rule="nonzero"/></clipPath><clipPath id="a85be7effa"><path d="M 114.375 154 L 178 154 L 178 262.5 L 114.375 262.5 Z M 114.375 154 " clip-rule="nonzero"/></clipPath></defs><g clip-path="url(#62ee24f17f)"><path fill="#ffffff" d="M 229.316406 142.960938 C 237.714844 142.960938 244.546875 136.132812 244.546875 127.734375 C 244.546875 119.335938 237.714844 112.503906 229.316406 112.503906 C 220.921875 112.503906 214.089844 119.335938 214.089844 127.734375 C 214.089844 136.128906 220.921875 142.960938 229.316406 142.960938 Z M 229.316406 117.316406 C 235.0625 117.316406 239.738281 121.988281 239.738281 127.734375 C 239.738281 133.480469 235.0625 138.152344 229.316406 138.152344 C 223.574219 138.152344 218.898438 133.480469 218.898438 127.734375 C 218.898438 121.988281 223.574219 117.316406 229.316406 117.316406 Z M 229.316406 117.316406 " fill-opacity="1" fill-rule="nonzero"/></g><g clip-path="url(#af570057f4)"><path fill="#ffffff" d="M 246.015625 156.039062 C 245.796875 154.910156 244.804688 154.097656 243.65625 154.097656 L 214.800781 154.097656 C 213.652344 154.097656 212.660156 154.910156 212.441406 156.039062 L 198.015625 229.863281 C 197.875 230.566406 198.0625 231.296875 198.519531 231.851562 C 198.976562 232.410156 199.65625 232.730469 200.375 232.730469 L 212.398438 232.730469 L 212.398438 260.105469 C 212.398438 261.433594 213.476562 262.507812 214.800781 262.507812 C 216.128906 262.507812 217.207031 261.433594 217.207031 260.105469 L 217.207031 230.324219 C 217.207031 228.996094 216.128906 227.917969 214.800781 227.917969 L 203.292969 227.917969 L 216.78125 158.90625 L 241.675781 158.90625 L 255.164062 227.917969 L 243.65625 227.917969 C 242.328125 227.917969 241.25 228.996094 241.25 230.324219 L 241.25 260.105469 C 241.25 261.433594 242.328125 262.507812 243.65625 262.507812 C 244.984375 262.507812 246.058594 261.433594 246.058594 260.105469 L 246.058594 232.730469 L 258.082031 232.730469 C 258.800781 232.730469 259.480469 232.410156 259.9375 231.851562 C 260.394531 231.296875 260.582031 230.566406 260.441406 229.863281 Z M 246.015625 156.039062 " fill-opacity="1" fill-rule="nonzero"/></g><g clip-path="url(#6c8e243816)"><path fill="#ffffff" d="M 146.03125 142.960938 C 154.425781 142.960938 161.257812 136.132812 161.257812 127.734375 C 161.257812 119.335938 154.425781 112.503906 146.03125 112.503906 C 137.632812 112.503906 130.800781 119.335938 130.800781 127.734375 C 130.800781 136.128906 137.632812 142.960938 146.03125 142.960938 Z M 146.03125 117.316406 C 151.777344 117.316406 156.449219 121.988281 156.449219 127.734375 C 156.449219 133.480469 151.777344 138.152344 146.03125 138.152344 C 140.285156 138.152344 135.609375 133.480469 135.609375 127.734375 C 135.609375 121.988281 140.285156 117.316406 146.03125 117.316406 Z M 146.03125 117.316406 " fill-opacity="1" fill-rule="nonzero"/></g><g clip-path="url(#a85be7effa)"><path fill="#ffffff" d="M 162.179688 155.464844 C 161.769531 154.660156 160.941406 154.152344 160.039062 154.152344 L 131.25 154.152344 C 130.335938 154.152344 129.5 154.671875 129.09375 155.492188 L 114.863281 184.289062 C 114.40625 185.214844 114.589844 186.328125 115.320312 187.054688 L 129.042969 200.777344 L 129.042969 260.105469 C 129.042969 261.433594 130.121094 262.507812 131.445312 262.507812 C 132.773438 262.507812 133.851562 261.433594 133.851562 260.105469 L 133.851562 199.78125 C 133.851562 199.144531 133.597656 198.535156 133.148438 198.082031 L 119.941406 184.875 L 132.742188 158.960938 L 158.5625 158.960938 L 171.789062 184.890625 L 158.601562 198.082031 C 158.148438 198.535156 157.894531 199.144531 157.894531 199.78125 L 157.894531 260.105469 C 157.894531 261.433594 158.972656 262.507812 160.300781 262.507812 C 161.628906 262.507812 162.703125 261.433594 162.703125 260.105469 L 162.703125 200.777344 L 176.425781 187.054688 C 177.164062 186.316406 177.34375 185.191406 176.867188 184.261719 Z M 162.179688 155.464844 " fill-opacity="1" fill-rule="nonzero"/></g></svg>