<svg xmlns="http://www.w3.org/2000/svg" xmlns:xlink="http://www.w3.org/1999/xlink" width="500" zoomAndPan="magnify" viewBox="0 0 375 374.999991" height="500" preserveAspectRatio="xMidYMid meet" version="1.0"><defs><clipPath id="66fa24d715"><path d="M 131 112.5 L 173 112.5 L 173 154 L 131 154 Z M 131 112.5 " clip-rule="nonzero"/></clipPath><clipPath id="c5c0caf5ab"><path d="M 126.75 160 L 176 160 L 176 262.5 L 126.75 262.5 Z M 126.75 160 " clip-rule="nonzero"/></clipPath><clipPath id="4c59079352"><path d="M 199 160 L 248 160 L 248 262.5 L 199 262.5 Z M 199 160 " clip-rule="nonzero"/></clipPath></defs><g clip-path="url(#66fa24d715)"><path fill="#ffffff" d="M 151.996094 153.835938 C 163.390625 153.835938 172.664062 144.5625 172.664062 133.167969 C 172.664062 121.773438 163.390625 112.5 151.996094 112.5 C 140.597656 112.5 131.328125 121.773438 131.328125 133.167969 C 131.328125 144.5625 140.597656 153.835938 151.996094 153.835938 Z M 151.996094 117.613281 C 160.574219 117.613281 167.550781 124.589844 167.550781 133.167969 C 167.550781 141.746094 160.574219 148.722656 151.996094 148.722656 C 143.417969 148.722656 136.441406 141.746094 136.441406 133.167969 C 136.441406 124.589844 143.417969 117.613281 151.996094 117.613281 Z M 151.996094 117.613281 " fill-opacity="1" fill-rule="nonzero"/></g><g clip-path="url(#c5c0caf5ab)"><path fill="#ffffff" d="M 173.679688 160.492188 C 172.335938 160.078125 170.898438 160.835938 170.484375 162.183594 L 151.90625 222.566406 L 133 165.492188 L 158.441406 165.492188 C 159.851562 165.492188 160.996094 164.347656 160.996094 162.933594 C 160.996094 161.523438 159.851562 160.378906 158.441406 160.378906 L 129.460938 160.378906 C 128.640625 160.378906 127.871094 160.773438 127.390625 161.4375 C 126.910156 162.105469 126.777344 162.960938 127.035156 163.738281 L 149.4375 231.378906 L 149.4375 259.945312 C 149.4375 261.355469 150.582031 262.5 151.996094 262.5 C 153.40625 262.5 154.550781 261.355469 154.550781 259.945312 L 154.550781 231.347656 L 175.371094 163.6875 C 175.785156 162.335938 175.027344 160.90625 173.679688 160.492188 Z M 173.679688 160.492188 " fill-opacity="1" fill-rule="nonzero"/></g><path fill="#ffffff" d="M 224.4375 154.976562 C 235.835938 154.976562 245.105469 145.703125 245.105469 134.308594 C 245.105469 122.914062 235.835938 113.640625 224.4375 113.640625 C 213.042969 113.640625 203.773438 122.914062 203.773438 134.308594 C 203.773438 145.703125 213.042969 154.976562 224.4375 154.976562 Z M 224.4375 118.753906 C 233.015625 118.753906 239.992188 125.730469 239.992188 134.308594 C 239.992188 142.886719 233.015625 149.863281 224.4375 149.863281 C 215.859375 149.863281 208.882812 142.886719 208.882812 134.308594 C 208.882812 125.730469 215.859375 118.753906 224.4375 118.753906 Z M 224.4375 118.753906 " fill-opacity="1" fill-rule="nonzero"/><g clip-path="url(#4c59079352)"><path fill="#ffffff" d="M 247.808594 230.1875 L 226.074219 162.15625 C 225.734375 161.097656 224.75 160.378906 223.636719 160.378906 C 222.527344 160.378906 221.542969 161.097656 221.203125 162.15625 L 199.46875 230.1875 C 199.222656 230.964844 199.359375 231.816406 199.839844 232.476562 C 200.324219 233.132812 201.089844 233.523438 201.90625 233.523438 L 221.882812 233.523438 L 221.882812 259.945312 C 221.882812 261.355469 223.027344 262.5 224.4375 262.5 C 225.851562 262.5 226.996094 261.355469 226.996094 259.945312 L 226.996094 233.523438 L 230.882812 233.523438 C 232.292969 233.523438 233.4375 232.378906 233.4375 230.96875 C 233.4375 229.554688 232.292969 228.410156 230.882812 228.410156 L 205.402344 228.410156 L 223.636719 171.332031 L 242.9375 231.742188 C 243.285156 232.832031 244.289062 233.523438 245.371094 233.523438 C 245.628906 233.523438 245.890625 233.484375 246.148438 233.402344 C 247.496094 232.972656 248.234375 231.535156 247.808594 230.1875 Z M 247.808594 230.1875 " fill-opacity="1" fill-rule="nonzero"/></g></svg>