<svg xmlns="http://www.w3.org/2000/svg" xmlns:xlink="http://www.w3.org/1999/xlink" width="500" zoomAndPan="magnify" viewBox="0 0 375 374.999991" height="500" preserveAspectRatio="xMidYMid meet" version="1.0"><path fill="#cfd8dc" d="M 171.402344 223.074219 L 225.121094 169.488281 C 227.40625 167.210938 230.550781 166.023438 233.792969 166.054688 C 240.3125 166.15625 246.832031 163.710938 251.796875 158.761719 C 258.75 151.828125 260.769531 141.757812 257.789062 133.042969 L 243.789062 147.007812 L 231.875 143.40625 L 228.265625 131.523438 L 242.265625 117.558594 C 233.527344 114.585938 223.464844 116.566406 216.515625 123.53125 C 211.585938 128.453125 209.136719 134.988281 209.167969 141.425781 C 209.199219 144.664062 208.042969 147.800781 205.757812 150.078125 L 151.941406 203.695312 C 148.566406 207.0625 144.03125 208.84375 139.265625 209.175781 C 131.949219 209.667969 124.835938 213.335938 120.167969 220.234375 C 114.507812 228.585938 114.574219 239.8125 120.332031 248.066406 C 129.5 261.273438 147.835938 262.429688 158.660156 251.597656 C 163.128906 247.140625 165.546875 241.398438 165.910156 235.585938 C 166.207031 230.929688 168.058594 226.410156 171.402344 223.074219 Z M 145.882812 245.886719 L 136.054688 245.855469 L 129.105469 238.921875 L 129.070312 229.117188 L 136.023438 222.183594 L 145.851562 222.214844 L 152.800781 229.148438 L 152.835938 238.953125 Z M 145.882812 245.886719 " fill-opacity="1" fill-rule="nonzero"/><path fill="#bcc8cc" d="M 171.402344 223.074219 L 225.121094 169.488281 C 227.40625 167.210938 230.550781 166.054688 233.792969 166.054688 C 240.3125 166.15625 246.832031 163.710938 251.796875 158.761719 C 258.75 151.828125 260.769531 141.757812 257.789062 133.042969 L 254.546875 136.277344 C 254.644531 142.746094 252.195312 149.21875 247.230469 154.171875 C 242.300781 159.089844 235.746094 161.535156 229.226562 161.46875 C 225.980469 161.433594 222.871094 162.621094 220.554688 164.902344 L 166.835938 218.484375 C 163.460938 221.851562 161.640625 226.34375 161.339844 231.0625 C 160.976562 236.875 158.5625 242.585938 154.09375 247.074219 C 145.125 256.023438 131.023438 256.75 121.195312 249.253906 C 130.59375 261.371094 148.136719 262.132812 158.660156 251.632812 C 163.128906 247.175781 165.546875 241.464844 165.910156 235.621094 C 166.207031 230.929688 168.058594 226.410156 171.402344 223.074219 Z M 171.402344 223.074219 " fill-opacity="1" fill-rule="nonzero"/><path fill="#546f7a" d="M 207.945312 174.410156 L 174.214844 208.050781 C 172.230469 210.03125 169.019531 210.03125 167.066406 208.050781 C 165.082031 206.070312 165.082031 202.867188 167.035156 200.886719 L 200.726562 167.277344 C 202.714844 165.296875 205.925781 165.296875 207.910156 167.277344 C 209.894531 169.226562 209.894531 172.460938 207.945312 174.410156 Z M 207.945312 174.410156 " fill-opacity="1" fill-rule="nonzero"/><path fill="#263238" d="M 140.984375 260.679688 C 140.191406 260.679688 139.398438 260.644531 138.570312 260.578125 C 130.691406 259.886719 123.511719 255.691406 118.941406 249.089844 C 112.753906 240.207031 112.6875 228.257812 118.746094 219.277344 C 123.445312 212.34375 130.890625 208.050781 139.132812 207.457031 C 143.699219 207.160156 147.804688 205.378906 150.71875 202.472656 L 204.5 148.824219 C 206.421875 146.90625 207.445312 144.265625 207.414062 141.394531 C 207.378906 134.164062 210.128906 127.328125 215.257812 122.246094 C 222.507812 115.015625 233.066406 112.570312 242.796875 115.875 C 243.359375 116.070312 243.789062 116.535156 243.921875 117.09375 C 244.054688 117.65625 243.886719 118.285156 243.457031 118.679688 L 230.183594 131.917969 L 233.230469 141.957031 L 243.292969 144.960938 L 256.5625 131.722656 C 256.960938 131.324219 257.589844 131.125 258.152344 131.257812 C 258.714844 131.390625 259.210938 131.820312 259.378906 132.382812 C 262.6875 142.085938 260.238281 152.621094 252.988281 159.851562 C 247.859375 164.96875 240.976562 167.742188 233.761719 167.675781 C 230.8125 167.609375 228.234375 168.664062 226.3125 170.613281 L 172.628906 224.261719 L 171.402344 223.039062 L 172.628906 224.261719 C 169.683594 227.199219 167.894531 231.261719 167.628906 235.71875 C 167.234375 242.191406 164.484375 248.265625 159.886719 252.820312 C 154.820312 257.90625 148.035156 260.679688 140.984375 260.679688 Z M 234.125 117.921875 C 228.066406 117.921875 222.175781 120.296875 217.707031 124.753906 C 213.238281 129.210938 210.824219 135.15625 210.855469 141.460938 C 210.921875 145.257812 209.53125 148.757812 206.949219 151.332031 L 153.167969 204.914062 C 149.65625 208.414062 144.757812 210.527344 139.363281 210.890625 C 132.183594 211.386719 125.695312 215.117188 121.558594 221.191406 C 116.296875 228.984375 116.328125 239.382812 121.691406 247.109375 C 125.695312 252.855469 131.917969 256.519531 138.800781 257.144531 C 145.71875 257.773438 152.503906 255.328125 157.402344 250.410156 C 161.40625 246.414062 163.789062 241.132812 164.121094 235.519531 C 164.453125 230.207031 166.570312 225.386719 170.113281 221.851562 L 223.832031 168.269531 C 226.414062 165.695312 229.953125 164.273438 233.761719 164.339844 C 240.113281 164.4375 246.039062 161.996094 250.507812 157.539062 C 256.167969 151.894531 258.449219 144.003906 256.828125 136.308594 L 244.914062 148.195312 C 244.449219 148.625 243.820312 148.824219 243.191406 148.625 L 231.277344 145.027344 C 230.714844 144.859375 230.285156 144.429688 230.117188 143.871094 L 226.511719 131.984375 C 226.3125 131.390625 226.476562 130.730469 226.941406 130.269531 L 238.855469 118.382812 C 237.335938 118.085938 235.710938 117.921875 234.125 117.921875 Z M 145.882812 247.605469 L 136.054688 247.570312 C 135.589844 247.570312 135.160156 247.375 134.828125 247.074219 L 127.878906 240.144531 C 127.546875 239.8125 127.382812 239.382812 127.382812 238.921875 L 127.351562 229.117188 C 127.351562 228.652344 127.546875 228.222656 127.847656 227.894531 L 134.796875 220.960938 C 135.128906 220.628906 135.558594 220.464844 136.023438 220.464844 L 145.851562 220.5 C 146.316406 220.5 146.746094 220.695312 147.078125 220.992188 L 154.027344 227.925781 C 154.359375 228.257812 154.523438 228.6875 154.523438 229.148438 L 154.554688 238.953125 C 154.554688 239.417969 154.359375 239.84375 154.058594 240.175781 L 147.109375 247.109375 C 146.777344 247.40625 146.347656 247.605469 145.882812 247.605469 Z M 136.78125 244.171875 L 145.191406 244.203125 L 151.148438 238.261719 L 151.113281 229.875 L 145.191406 223.933594 L 136.78125 223.898438 L 130.824219 229.84375 L 130.859375 238.226562 Z M 136.78125 244.171875 " fill-opacity="1" fill-rule="nonzero"/><path fill="#263238" d="M 170.640625 211.222656 C 168.886719 211.222656 167.199219 210.5625 165.84375 209.242188 C 163.195312 206.597656 163.195312 202.308594 165.808594 199.667969 L 199.503906 166.054688 C 202.152344 163.414062 206.453125 163.414062 209.136719 166.054688 C 211.78125 168.699219 211.78125 172.988281 209.101562 175.632812 L 175.441406 209.273438 C 174.117188 210.59375 172.363281 211.222656 170.640625 211.222656 Z M 204.367188 167.507812 C 203.507812 167.507812 202.648438 167.839844 201.984375 168.5 L 168.257812 202.109375 C 166.96875 203.398438 166.96875 205.542969 168.292969 206.832031 C 169.582031 208.117188 171.734375 208.117188 173.023438 206.832031 L 206.71875 173.222656 C 208.007812 171.933594 208.042969 169.789062 206.75 168.5 C 206.089844 167.839844 205.195312 167.507812 204.367188 167.507812 Z M 204.367188 167.507812 " fill-opacity="1" fill-rule="nonzero"/><path fill="#fcb316" d="M 211.652344 184.148438 L 214.761719 187.253906 C 215.921875 188.40625 215.921875 190.257812 214.761719 191.445312 L 191.394531 214.753906 C 190.234375 215.910156 188.382812 215.910156 187.191406 214.753906 L 184.078125 211.652344 C 182.921875 210.496094 182.921875 208.644531 184.078125 207.457031 L 207.445312 184.148438 C 208.636719 182.960938 210.492188 182.960938 211.652344 184.148438 Z M 211.652344 184.148438 " fill-opacity="1" fill-rule="nonzero"/><path fill="#fcb316" d="M 213.371094 192.800781 L 254.84375 234.199219 C 260.535156 239.878906 260.535156 249.058594 254.84375 254.734375 C 249.152344 260.414062 239.949219 260.414062 234.257812 254.734375 L 192.785156 213.335938 Z M 213.371094 192.800781 " fill-opacity="1" fill-rule="nonzero"/><path fill="#eda30f" d="M 192.851562 213.367188 L 213.472656 192.832031 L 220.125 199.46875 L 199.46875 220.003906 Z M 192.851562 213.367188 " fill-opacity="1" fill-rule="nonzero"/><path fill="#263238" d="M 189.308594 217.296875 C 188.117188 217.296875 186.894531 216.835938 186 215.910156 L 182.886719 212.804688 C 181.066406 210.992188 181.066406 208.019531 182.886719 206.203125 L 206.253906 182.894531 C 208.074219 181.078125 211.054688 181.078125 212.875 182.894531 L 215.984375 185.996094 C 217.804688 187.8125 217.804688 190.785156 215.984375 192.601562 L 192.617188 215.910156 C 191.691406 216.835938 190.5 217.296875 189.308594 217.296875 Z M 209.566406 184.972656 C 209.234375 184.972656 208.9375 185.074219 208.703125 185.335938 L 185.335938 208.644531 C 184.839844 209.140625 184.839844 209.902344 185.335938 210.394531 L 188.449219 213.5 C 188.945312 213.996094 189.707031 213.996094 190.203125 213.5 L 213.570312 190.191406 C 214.066406 189.695312 214.066406 188.9375 213.570312 188.441406 L 210.457031 185.335938 C 210.195312 185.105469 209.863281 184.972656 209.566406 184.972656 Z M 209.566406 184.972656 " fill-opacity="1" fill-rule="nonzero"/><path fill="#263238" d="M 244.550781 260.679688 C 240.214844 260.679688 236.109375 258.996094 233.03125 255.925781 L 191.558594 214.554688 C 190.898438 213.894531 190.898438 212.804688 191.558594 212.144531 L 212.148438 191.609375 C 212.777344 190.984375 213.933594 190.984375 214.5625 191.609375 L 256.035156 232.976562 C 259.113281 236.050781 260.835938 240.144531 260.835938 244.433594 C 260.835938 248.726562 259.144531 252.855469 256.066406 255.925781 C 252.988281 259.027344 248.917969 260.679688 244.550781 260.679688 Z M 195.199219 213.335938 L 235.449219 253.480469 C 240.480469 258.5 248.621094 258.5 253.617188 253.480469 C 258.648438 248.460938 258.648438 240.339844 253.617188 235.355469 L 213.371094 195.210938 Z M 195.199219 213.335938 " fill-opacity="1" fill-rule="nonzero"/><path fill="#263238" d="M 244.847656 239.152344 C 244.417969 239.152344 243.988281 238.988281 243.625 238.65625 L 212.3125 207.425781 C 211.652344 206.765625 211.652344 205.675781 212.3125 205.015625 C 212.972656 204.355469 214.066406 204.355469 214.730469 205.015625 L 246.039062 236.246094 C 246.699219 236.90625 246.699219 237.996094 246.039062 238.65625 C 245.742188 238.988281 245.277344 239.152344 244.847656 239.152344 Z M 244.847656 239.152344 " fill-opacity="1" fill-rule="nonzero"/><path fill="#263238" d="M 237.53125 246.449219 C 237.101562 246.449219 236.671875 246.285156 236.308594 245.953125 L 204.996094 214.722656 C 204.335938 214.0625 204.335938 212.972656 204.996094 212.3125 C 205.660156 211.652344 206.75 211.652344 207.414062 212.3125 L 238.722656 243.542969 C 239.386719 244.203125 239.386719 245.292969 238.722656 245.953125 C 238.425781 246.285156 237.996094 246.449219 237.53125 246.449219 Z M 237.53125 246.449219 " fill-opacity="1" fill-rule="nonzero"/><path fill="#cfd8dc" d="M 141.945312 127.5625 L 146.746094 137.035156 L 200.726562 190.851562 L 190.796875 200.753906 L 136.847656 146.90625 L 127.382812 142.085938 L 115.964844 125.050781 L 124.835938 116.203125 Z M 141.945312 127.5625 " fill-opacity="1" fill-rule="nonzero"/><path fill="#263238" d="M 190.796875 202.4375 C 190.335938 202.4375 189.90625 202.242188 189.574219 201.945312 L 135.824219 148.328125 L 126.589844 143.605469 C 126.324219 143.472656 126.09375 143.277344 125.960938 143.046875 L 114.539062 126.007812 C 114.078125 125.316406 114.175781 124.425781 114.738281 123.832031 L 123.609375 114.980469 C 124.171875 114.421875 125.097656 114.320312 125.792969 114.785156 L 142.90625 126.140625 C 143.171875 126.304688 143.335938 126.539062 143.46875 126.800781 L 148.167969 136.046875 L 201.953125 189.664062 C 202.613281 190.324219 202.613281 191.414062 201.953125 192.074219 L 192.023438 201.976562 C 191.691406 202.273438 191.261719 202.4375 190.796875 202.4375 Z M 128.574219 140.765625 L 137.644531 145.390625 C 137.808594 145.488281 137.941406 145.585938 138.074219 145.71875 L 190.796875 198.34375 L 198.277344 190.882812 L 145.519531 138.257812 C 145.386719 138.125 145.289062 137.992188 145.191406 137.828125 L 140.589844 128.75 L 125.03125 118.414062 L 118.183594 125.28125 Z M 128.574219 140.765625 " fill-opacity="1" fill-rule="nonzero"/></svg>