<svg xmlns="http://www.w3.org/2000/svg" xmlns:xlink="http://www.w3.org/1999/xlink" width="500" zoomAndPan="magnify" viewBox="0 0 375 374.999991" height="500" preserveAspectRatio="xMidYMid meet" version="1.0"><defs><clipPath id="bac0713b60"><path d="M 112.5 128.625 L 262.5 128.625 L 262.5 246.375 L 112.5 246.375 Z M 112.5 128.625 " clip-rule="nonzero"/></clipPath></defs><g clip-path="url(#bac0713b60)"><path fill="#ffffff" d="M 260.585938 156.417969 L 257.085938 155.472656 C 256.945312 154.941406 256.808594 154.433594 256.695312 153.699219 L 259.226562 151.347656 C 260.082031 150.566406 260.265625 149.296875 259.6875 148.285156 L 257.175781 143.929688 C 256.601562 142.914062 255.425781 142.453125 254.320312 142.800781 L 250.796875 143.746094 C 250.425781 143.351562 250.058594 142.960938 249.574219 142.429688 L 250.609375 139.042969 C 250.910156 137.914062 250.425781 136.761719 249.457031 136.234375 L 245.082031 133.699219 C 244.089844 133.121094 242.824219 133.304688 242.039062 134.160156 L 239.503906 136.738281 C 238.976562 136.578125 238.421875 136.417969 237.753906 136.1875 L 236.96875 132.800781 C 236.714844 131.695312 235.726562 130.910156 234.550781 130.910156 L 229.550781 130.910156 C 228.398438 130.910156 227.40625 131.695312 227.132812 132.824219 L 226.234375 136.300781 C 225.65625 136.417969 225.125 136.554688 224.414062 136.695312 L 222.0625 134.160156 C 221.277344 133.304688 220.011719 133.121094 218.996094 133.699219 L 214.664062 136.210938 C 213.652344 136.761719 213.167969 137.960938 213.515625 139.089844 L 214.480469 142.59375 C 214.066406 142.984375 213.675781 143.375 213.144531 143.835938 L 209.828125 142.824219 C 208.722656 142.476562 207.546875 142.9375 206.945312 143.953125 L 204.414062 148.328125 C 203.835938 149.320312 204.019531 150.585938 204.875 151.371094 L 206.507812 152.984375 L 191.09375 152.984375 C 190.816406 152.085938 190.3125 151.324219 189.597656 150.910156 L 189.757812 149.433594 C 189.757812 149.34375 189.734375 149.273438 189.734375 149.183594 L 193.304688 149.183594 C 193.953125 149.183594 194.457031 148.675781 194.457031 148.03125 C 194.457031 147.386719 193.953125 146.878906 193.304688 146.878906 L 192.316406 146.878906 C 191.96875 140.792969 189.019531 135.472656 184.574219 132.199219 C 182.386719 130.585938 178.144531 128.929688 174.183594 128.929688 C 169.019531 128.929688 164.894531 131.210938 162.683594 133.167969 C 158.90625 136.464844 156.441406 141.371094 156.140625 146.878906 L 155.148438 146.878906 C 154.503906 146.878906 153.996094 147.386719 153.996094 148.03125 C 153.996094 148.675781 154.503906 149.183594 155.148438 149.183594 L 158.652344 149.183594 L 158.859375 150.933594 C 158.167969 151.347656 157.660156 152.085938 157.40625 152.960938 L 129.664062 152.960938 C 124.917969 152.960938 121.046875 156.832031 121.046875 161.578125 L 121.046875 227.316406 L 116.140625 227.316406 C 114.917969 227.316406 113.835938 227.9375 113.214844 228.976562 C 112.59375 230.011719 112.570312 231.277344 113.167969 232.339844 L 117.683594 240.566406 C 119.550781 243.976562 123.121094 246.09375 127.015625 246.09375 L 236.601562 246.09375 C 240.496094 246.09375 244.066406 243.976562 245.933594 240.566406 L 250.449219 232.339844 C 251.003906 231.277344 250.980469 230.035156 250.355469 228.976562 C 249.734375 227.9375 248.652344 227.316406 247.429688 227.316406 L 242.546875 227.316406 L 242.546875 188.789062 C 243.304688 189.296875 244.296875 189.367188 245.125 188.90625 L 249.503906 186.394531 C 250.519531 185.816406 250.980469 184.644531 250.632812 183.535156 L 249.621094 180.058594 C 250.058594 179.6875 250.449219 179.273438 251.003906 178.8125 L 254.34375 179.828125 C 255.449219 180.171875 256.625 179.710938 257.199219 178.699219 L 259.757812 174.296875 C 260.289062 173.261719 260.105469 172.0625 259.273438 171.277344 L 256.714844 168.699219 L 256.832031 168.261719 C 256.945312 167.890625 257.039062 167.5 257.222656 166.992188 L 260.609375 166.210938 C 261.738281 165.957031 262.523438 164.964844 262.523438 163.8125 L 262.523438 158.8125 C 262.5 157.660156 261.714844 156.671875 260.585938 156.417969 Z M 171.484375 130.265625 C 171.554688 130.242188 171.625 130.21875 171.695312 130.195312 C 172.339844 129.988281 173.074219 129.941406 173.746094 129.894531 C 174.414062 129.851562 175.082031 129.894531 175.726562 129.964844 C 176.234375 130.011719 176.714844 130.105469 177.175781 130.195312 C 177.199219 132.109375 177.199219 136.253906 177.199219 136.253906 C 177.199219 137.84375 175.910156 139.136719 174.320312 139.136719 C 172.730469 139.136719 171.441406 137.84375 171.441406 136.253906 C 171.464844 136.253906 171.464844 132.175781 171.484375 130.265625 Z M 204.503906 174.34375 L 207.039062 178.722656 C 207.613281 179.710938 208.789062 180.171875 209.894531 179.851562 L 213.398438 178.882812 C 213.789062 179.296875 214.183594 179.710938 214.644531 180.21875 L 213.628906 183.558594 C 213.285156 184.664062 213.746094 185.839844 214.757812 186.417969 L 219.136719 188.929688 C 220.125 189.503906 221.371094 189.320312 222.15625 188.46875 L 224.480469 185.933594 C 224.527344 185.886719 224.621094 185.863281 224.664062 185.886719 C 225.195312 186.046875 225.703125 186.1875 226.417969 186.441406 L 227.199219 189.851562 C 227.453125 190.957031 228.445312 191.738281 229.574219 191.738281 L 232.867188 191.738281 L 232.984375 220.082031 L 213.90625 220.082031 L 213.746094 215.933594 C 213.121094 199.917969 212.683594 188.351562 208.628906 184.203125 C 205.035156 180.519531 193.996094 177.523438 185.011719 175.585938 C 185.011719 175.519531 185.035156 175.449219 185.035156 175.355469 C 185.035156 175.21875 185.011719 175.082031 184.964844 174.941406 C 184.367188 173.351562 183.882812 171.625 183.515625 169.78125 C 183.515625 169.757812 183.492188 169.734375 183.492188 169.710938 C 185.472656 167.683594 186.96875 165.242188 187.890625 162.570312 L 201.714844 162.523438 L 201.714844 163.8125 C 201.714844 164.988281 202.5 165.980469 203.605469 166.210938 L 207.132812 167.109375 C 207.246094 167.683594 207.386719 168.214844 207.523438 168.929688 L 204.988281 171.300781 C 204.113281 172.109375 203.929688 173.351562 204.503906 174.34375 Z M 151.761719 220.082031 L 151.761719 181.023438 C 152.890625 180.65625 154.136719 180.3125 155.425781 179.941406 L 155.425781 196.554688 C 155.425781 197.199219 155.933594 197.707031 156.578125 197.707031 L 192.085938 197.707031 C 192.730469 197.707031 193.238281 197.199219 193.238281 196.554688 L 193.238281 179.941406 C 194.550781 180.3125 195.773438 180.65625 196.902344 181.023438 L 196.902344 220.082031 Z M 137.085938 220.082031 L 137.246094 216.210938 C 137.824219 201.210938 138.285156 189.34375 141.738281 185.816406 C 143.007812 184.527344 145.65625 183.167969 149.480469 181.808594 L 149.480469 220.082031 Z M 130.585938 220.082031 L 130.585938 162.730469 L 160.863281 162.660156 C 161.785156 165.289062 163.261719 167.707031 165.21875 169.710938 C 165.21875 169.734375 165.195312 169.757812 165.195312 169.78125 C 164.851562 171.601562 164.34375 173.351562 163.746094 174.941406 C 163.699219 175.082031 163.675781 175.21875 163.675781 175.355469 C 163.675781 175.425781 163.699219 175.496094 163.699219 175.585938 C 154.710938 177.5 143.675781 180.519531 140.082031 184.203125 C 136.003906 188.375 135.542969 200.011719 134.917969 216.117188 L 134.757812 220.082031 Z M 157.730469 179.34375 C 159.6875 178.835938 161.808594 178.351562 164.066406 177.867188 C 165.355469 182.0625 169.851562 184.25 174.34375 184.25 C 178.8125 184.25 183.304688 182.039062 184.621094 177.867188 C 186.878906 178.351562 188.996094 178.835938 190.957031 179.34375 L 190.957031 195.402344 L 157.730469 195.402344 Z M 181.554688 171.601562 C 181.878906 172.984375 182.246094 174.320312 182.707031 175.566406 C 182.59375 179.941406 178.304688 181.945312 174.34375 181.945312 C 170.355469 181.945312 166.09375 179.941406 165.980469 175.566406 C 166.441406 174.320312 166.808594 172.960938 167.132812 171.578125 L 168.285156 172.683594 C 169.574219 173.90625 171.234375 174.574219 173.007812 174.574219 L 175.679688 174.574219 C 177.453125 174.574219 179.136719 173.90625 180.402344 172.683594 Z M 199.203125 181.785156 C 203.03125 183.144531 205.679688 184.503906 206.945312 185.792969 C 210.378906 189.320312 210.839844 201.09375 211.417969 216.003906 L 211.578125 220.058594 L 199.203125 220.058594 Z M 203.582031 156.417969 C 202.476562 156.671875 201.695312 157.660156 201.695312 158.789062 L 201.695312 160.242188 L 188.515625 160.289062 C 188.582031 159.988281 188.605469 159.6875 188.675781 159.390625 C 189.828125 158.835938 190.816406 157.59375 191.234375 155.980469 C 191.300781 155.726562 191.324219 155.496094 191.347656 155.265625 L 207.15625 155.265625 C 207.132812 155.3125 207.132812 155.378906 207.109375 155.449219 C 207.085938 155.519531 207.039062 155.632812 206.96875 155.632812 Z M 187.570312 149.160156 L 186.507812 158.421875 C 186.023438 162.269531 184.203125 165.863281 181.417969 168.558594 L 178.835938 171.023438 C 177.984375 171.832031 176.878906 172.292969 175.703125 172.292969 L 173.03125 172.292969 C 171.855469 172.292969 170.75 171.855469 169.894531 171.023438 L 167.316406 168.558594 C 164.527344 165.886719 162.707031 162.292969 162.222656 158.46875 L 161.09375 149.183594 L 187.570312 149.183594 Z M 248.375 230.148438 C 248.46875 230.3125 248.675781 230.75 248.398438 231.234375 L 243.882812 239.457031 C 242.429688 242.132812 239.621094 243.789062 236.578125 243.789062 L 126.992188 243.789062 C 123.953125 243.789062 121.140625 242.132812 119.6875 239.457031 L 115.171875 231.234375 C 114.894531 230.726562 115.105469 230.3125 115.195312 230.148438 C 115.289062 229.988281 115.585938 229.621094 116.140625 229.621094 L 157.867188 229.621094 L 160.566406 234.527344 C 160.773438 234.894531 161.164062 235.125 161.578125 235.125 L 201.992188 235.125 C 202.40625 235.125 202.800781 234.894531 203.007812 234.527344 L 205.703125 229.621094 L 247.429688 229.621094 C 248.007812 229.621094 248.285156 229.988281 248.375 230.148438 Z M 160.496094 229.621094 L 203.054688 229.621094 L 201.300781 232.824219 L 162.269531 232.824219 Z M 123.351562 227.316406 L 123.351562 161.578125 C 123.351562 158.097656 126.1875 155.265625 129.664062 155.265625 L 157.339844 155.265625 C 157.363281 155.496094 157.40625 155.75 157.476562 155.980469 C 157.890625 157.613281 158.882812 158.859375 160.035156 159.390625 C 160.082031 159.710938 160.125 160.035156 160.195312 160.335938 L 129.433594 160.402344 C 128.789062 160.402344 128.285156 160.910156 128.285156 161.554688 L 128.285156 221.210938 C 128.285156 221.855469 128.789062 222.363281 129.433594 222.363281 L 150.585938 222.363281 C 150.609375 222.363281 150.609375 222.363281 150.632812 222.363281 C 150.65625 222.363281 150.65625 222.363281 150.679688 222.363281 L 198.054688 222.363281 C 198.074219 222.363281 198.074219 222.363281 198.097656 222.363281 C 198.121094 222.363281 198.121094 222.363281 198.144531 222.363281 L 234.160156 222.363281 C 234.457031 222.363281 234.757812 222.246094 234.964844 222.015625 C 235.171875 221.808594 235.3125 221.507812 235.3125 221.210938 L 235.195312 191.625 C 236.09375 191.417969 236.832031 190.75 237.039062 189.804688 L 237.984375 186.300781 C 238.535156 186.164062 239.042969 186.023438 239.734375 185.886719 L 240.242188 186.441406 L 240.242188 227.292969 L 123.351562 227.292969 Z M 260.058594 163.996094 L 256.671875 164.78125 C 255.75 164.988281 255.011719 165.726562 254.828125 166.671875 C 254.757812 167.015625 254.664062 167.339844 254.574219 167.660156 L 254.457031 168.074219 C 254.160156 168.996094 254.414062 169.988281 255.125 170.632812 L 257.660156 172.984375 C 257.753906 173.054688 257.683594 173.191406 257.683594 173.191406 L 254.988281 177.613281 L 251.671875 176.601562 C 250.773438 176.324219 249.828125 176.554688 249.089844 177.316406 C 248.789062 177.660156 248.445312 178.007812 248.054688 178.351562 C 247.363281 179.042969 247.109375 179.988281 247.40625 180.863281 L 248.351562 184.390625 L 243.789062 186.855469 L 242.199219 185.195312 C 242.199219 185.195312 242.175781 185.171875 242.175781 185.171875 L 241.394531 184.34375 C 240.75 183.652344 239.757812 183.398438 238.835938 183.675781 C 238.351562 183.8125 237.890625 183.953125 237.429688 184.066406 C 236.484375 184.273438 235.75 184.988281 235.542969 185.910156 L 234.597656 189.433594 L 229.433594 189.34375 L 228.652344 185.957031 C 228.445312 185.035156 227.707031 184.296875 226.808594 184.113281 C 226.300781 183.996094 225.839844 183.859375 225.289062 183.699219 C 225.058594 183.628906 224.851562 183.605469 224.621094 183.605469 C 223.929688 183.605469 223.261719 183.882812 222.800781 184.390625 L 220.242188 186.945312 L 215.792969 184.273438 L 216.808594 180.957031 C 217.085938 180.058594 216.855469 179.113281 216.09375 178.375 C 215.726562 178.054688 215.402344 177.730469 215.058594 177.363281 C 214.390625 176.648438 213.398438 176.394531 212.546875 176.671875 L 209.019531 177.613281 L 206.507812 173.054688 L 209.042969 170.703125 C 209.734375 170.058594 209.988281 169.066406 209.710938 168.144531 C 209.574219 167.683594 209.433594 167.222656 209.34375 166.671875 C 209.089844 165.726562 208.375 165.035156 207.5 164.851562 L 203.996094 163.90625 L 203.996094 161.484375 C 203.996094 161.464844 203.996094 161.464844 203.996094 161.464844 C 203.996094 161.441406 203.996094 161.441406 203.996094 161.441406 L 203.996094 158.882812 L 207.523438 157.960938 C 208.421875 157.730469 209.089844 157.039062 209.34375 156.046875 C 209.433594 155.585938 209.574219 155.105469 209.710938 154.664062 C 210.011719 153.765625 209.757812 152.753906 209.066406 152.132812 L 206.484375 149.574219 L 209.203125 145.125 L 212.523438 146.140625 C 213.445312 146.441406 214.457031 146.140625 215.082031 145.425781 C 215.402344 145.082031 215.75 144.734375 216.117188 144.390625 C 216.832031 143.722656 217.085938 142.730469 216.808594 141.878906 L 215.863281 138.351562 L 220.425781 135.863281 L 222.777344 138.398438 C 223.421875 139.089844 224.414062 139.34375 225.335938 139.042969 C 225.792969 138.90625 226.253906 138.765625 226.808594 138.675781 C 227.753906 138.421875 228.445312 137.707031 228.628906 136.832031 L 229.597656 133.328125 L 234.757812 133.445312 L 235.542969 136.808594 C 235.726562 137.707031 236.441406 138.421875 237.429688 138.699219 C 237.914062 138.789062 238.375 138.90625 238.835938 139.066406 C 239.78125 139.367188 240.75 139.113281 241.394531 138.421875 L 243.953125 135.839844 L 248.398438 138.558594 L 247.386719 141.878906 C 247.085938 142.777344 247.363281 143.765625 248.054688 144.414062 C 248.421875 144.757812 248.765625 145.105469 249.066406 145.425781 C 249.710938 146.164062 250.726562 146.464844 251.648438 146.164062 L 255.171875 145.21875 L 257.660156 149.78125 L 255.125 152.132812 C 254.433594 152.777344 254.183594 153.765625 254.457031 154.644531 L 254.851562 156.117188 C 255.035156 157.015625 255.726562 157.730469 256.695312 158.007812 L 260.21875 158.953125 Z M 260.058594 163.996094 " fill-opacity="1" fill-rule="nonzero"/></g><path fill="#ffffff" d="M 235.886719 148.492188 C 231.070312 147.132812 226.117188 148.398438 222.636719 151.878906 C 219.160156 155.355469 217.890625 160.3125 219.25 165.125 C 220.496094 169.550781 224.160156 173.121094 228.582031 174.25 C 229.734375 174.550781 230.910156 174.6875 232.0625 174.6875 C 235.585938 174.6875 238.976562 173.328125 241.53125 170.773438 C 244.917969 167.386719 246.210938 162.546875 245.011719 157.824219 C 243.882812 153.398438 240.3125 149.734375 235.886719 148.492188 Z M 239.917969 169.136719 C 237.109375 171.945312 233.097656 173.007812 229.183594 172.015625 C 225.542969 171.09375 222.523438 168.121094 221.484375 164.480469 C 220.355469 160.472656 221.394531 156.371094 224.273438 153.492188 C 227.15625 150.609375 231.253906 149.574219 235.265625 150.703125 C 238.90625 151.714844 241.855469 154.734375 242.800781 158.398438 C 243.789062 162.316406 242.730469 166.347656 239.917969 169.136719 Z M 239.917969 169.136719 " fill-opacity="1" fill-rule="nonzero"/><path fill="#ffffff" d="M 183.191406 211.253906 L 165.496094 211.253906 C 165.105469 211.253906 164.734375 211.464844 164.527344 211.785156 C 164.320312 212.132812 164.296875 212.546875 164.457031 212.890625 C 166.300781 216.761719 170.105469 219.160156 174.367188 219.160156 C 178.605469 219.160156 182.40625 216.761719 184.25 212.890625 C 184.414062 212.546875 184.390625 212.109375 184.183594 211.785156 C 183.953125 211.464844 183.582031 211.253906 183.191406 211.253906 Z M 174.34375 216.878906 C 171.648438 216.878906 169.160156 215.632812 167.546875 213.558594 L 181.140625 213.558594 C 179.503906 215.632812 177.039062 216.878906 174.34375 216.878906 Z M 174.34375 216.878906 " fill-opacity="1" fill-rule="nonzero"/><path fill="#ffffff" d="M 168.445312 204.6875 C 168.90625 205.125 169.621094 205.125 170.082031 204.6875 C 170.519531 204.226562 170.519531 203.515625 170.082031 203.054688 C 167.132812 200.125 162.363281 200.125 159.433594 203.054688 C 158.976562 203.515625 158.976562 204.226562 159.433594 204.6875 C 159.664062 204.917969 159.964844 205.035156 160.242188 205.035156 C 160.519531 205.035156 160.839844 204.917969 161.046875 204.6875 C 163.097656 202.660156 166.394531 202.660156 168.445312 204.6875 Z M 168.445312 204.6875 " fill-opacity="1" fill-rule="nonzero"/><path fill="#ffffff" d="M 178.605469 203.054688 C 178.144531 203.515625 178.144531 204.226562 178.605469 204.6875 C 178.835938 204.917969 179.136719 205.035156 179.414062 205.035156 C 179.6875 205.035156 180.011719 204.917969 180.21875 204.6875 C 182.246094 202.660156 185.566406 202.660156 187.613281 204.6875 C 188.074219 205.125 188.789062 205.125 189.25 204.6875 C 189.6875 204.226562 189.6875 203.515625 189.25 203.054688 C 186.300781 200.125 181.53125 200.125 178.605469 203.054688 Z M 178.605469 203.054688 " fill-opacity="1" fill-rule="nonzero"/></svg>