<svg xmlns="http://www.w3.org/2000/svg" xmlns:xlink="http://www.w3.org/1999/xlink" width="500" zoomAndPan="magnify" viewBox="0 0 375 374.999991" height="500" preserveAspectRatio="xMidYMid meet" version="1.0"><defs><clipPath id="49e9f47064"><path d="M 112.5 123 L 173 123 L 173 262.5 L 112.5 262.5 Z M 112.5 123 " clip-rule="nonzero"/></clipPath><clipPath id="db56a5c3fb"><path d="M 251 188 L 262.5 188 L 262.5 220 L 251 220 Z M 251 188 " clip-rule="nonzero"/></clipPath><clipPath id="7d1303201e"><path d="M 207 112.5 L 214 112.5 L 214 124 L 207 124 Z M 207 112.5 " clip-rule="nonzero"/></clipPath></defs><g clip-path="url(#49e9f47064)"><path fill="#ffffff" d="M 142.617188 262.496094 C 135.296875 262.496094 128.871094 256.125 128.871094 248.859375 L 128.871094 180.125 C 118.875 175.023438 112.507812 164.726562 112.507812 153.394531 C 112.507812 140.226562 121.144531 128.3125 133.511719 124.425781 L 137.054688 123.308594 L 137.054688 147.9375 L 147.964844 147.9375 L 147.964844 123.265625 L 151.503906 124.367188 C 163.875 128.210938 172.515625 140.152344 172.515625 153.390625 C 172.515625 154.917969 172.402344 156.445312 172.171875 157.929688 L 166.78125 157.117188 C 166.964844 155.898438 167.058594 154.644531 167.058594 153.390625 C 167.058594 143.832031 161.605469 135.109375 153.421875 131.003906 L 153.421875 147.9375 C 153.421875 150.945312 150.972656 153.390625 147.964844 153.390625 L 137.054688 153.390625 C 134.050781 153.390625 131.601562 150.945312 131.601562 147.9375 L 131.601562 131.070312 C 123.414062 135.199219 117.964844 143.894531 117.964844 153.390625 C 117.964844 162.890625 123.746094 171.988281 132.695312 175.898438 L 134.332031 176.613281 L 134.332031 248.859375 C 134.332031 253.066406 138.363281 257.042969 142.621094 257.042969 C 146.882812 257.042969 150.695312 253.371094 150.695312 248.859375 L 150.695312 177.945312 L 156.148438 177.945312 L 156.148438 248.859375 C 156.148438 256.378906 150.082031 262.496094 142.621094 262.496094 Z M 142.617188 262.496094 " fill-opacity="1" fill-rule="nonzero"/></g><path fill="#ffffff" d="M 145.238281 243.402344 L 139.78125 243.402344 L 139.78125 248.863281 L 145.238281 248.863281 Z M 145.238281 243.402344 " fill-opacity="1" fill-rule="nonzero"/><path fill="#ffffff" d="M 201.152344 248.945312 L 200.488281 248.78125 C 200.382812 248.753906 197.773438 248.089844 193.988281 246.3125 L 196.308594 241.371094 C 198.53125 242.417969 200.269531 243.019531 201.164062 243.300781 C 206.148438 241.789062 235.246094 231.195312 235.246094 190.054688 L 235.246094 173.515625 L 201.164062 151.214844 L 167.054688 173.953125 L 167.054688 190.054688 C 167.054688 204.964844 170.898438 217.445312 178.476562 227.152344 L 174.175781 230.507812 C 165.832031 219.816406 161.597656 206.207031 161.597656 190.054688 L 161.597656 171.03125 L 201.136719 144.675781 L 240.699219 170.5625 L 240.699219 190.054688 C 240.699219 238.457031 202.203125 248.683594 201.8125 248.78125 L 201.148438 248.945312 Z M 201.152344 248.945312 " fill-opacity="1" fill-rule="nonzero"/><path fill="#ffffff" d="M 186.167969 241.796875 C 183.839844 240.199219 181.621094 238.394531 179.566406 236.445312 L 183.320312 232.488281 C 185.175781 234.246094 187.171875 235.871094 189.261719 237.3125 L 186.167969 241.800781 Z M 186.167969 241.796875 " fill-opacity="1" fill-rule="nonzero"/><path fill="#ffffff" d="M 236.398438 169.816406 L 247.308594 162.089844 L 250.464844 166.542969 L 239.550781 174.273438 Z M 236.398438 169.816406 " fill-opacity="1" fill-rule="nonzero"/><path fill="#ffffff" d="M 218.398438 240.164062 L 215.246094 235.710938 C 216.3125 234.953125 217.402344 234.203125 218.5 233.4375 C 232.097656 224.03125 246.15625 214.300781 246.15625 181.871094 L 246.15625 165.761719 L 212.386719 143.09375 L 202.761719 150.144531 L 199.539062 145.746094 L 212.25 136.429688 L 251.609375 162.855469 L 251.609375 181.871094 C 251.609375 217.164062 235.671875 228.191406 221.605469 237.921875 C 220.523438 238.675781 219.449219 239.414062 218.398438 240.164062 Z M 218.398438 240.164062 " fill-opacity="1" fill-rule="nonzero"/><g clip-path="url(#db56a5c3fb)"><path fill="#ffffff" d="M 256.332031 219.449219 L 251.402344 217.113281 C 255.214844 209.078125 257.066406 199.835938 257.066406 188.855469 L 262.523438 188.855469 C 262.523438 200.664062 260.496094 210.667969 256.332031 219.449219 Z M 256.332031 219.449219 " fill-opacity="1" fill-rule="nonzero"/></g><path fill="#ffffff" d="M 246.789062 233.53125 L 242.765625 229.84375 C 244.65625 227.78125 246.296875 225.703125 247.773438 223.492188 L 252.308594 226.527344 C 250.671875 228.96875 248.867188 231.257812 246.785156 233.527344 Z M 246.789062 233.53125 " fill-opacity="1" fill-rule="nonzero"/><path fill="#ffffff" d="M 199.789062 225.441406 L 171.386719 197.035156 L 186.152344 182.269531 L 199.789062 195.90625 L 207.519531 188.175781 L 211.378906 192.03125 L 199.789062 203.625 L 186.152344 189.984375 L 179.097656 197.035156 L 199.789062 217.726562 L 226.839844 190.675781 L 230.695312 194.535156 Z M 199.789062 225.441406 " fill-opacity="1" fill-rule="nonzero"/><path fill="#ffffff" d="M 212.691406 183.007812 L 218.457031 177.242188 L 222.316406 181.097656 L 216.550781 186.863281 Z M 212.691406 183.007812 " fill-opacity="1" fill-rule="nonzero"/><g clip-path="url(#7d1303201e)"><path fill="#ffffff" d="M 207.972656 112.484375 L 213.425781 112.484375 L 213.425781 123.394531 L 207.972656 123.394531 Z M 207.972656 112.484375 " fill-opacity="1" fill-rule="nonzero"/></g><path fill="#ffffff" d="M 177.234375 121.0625 L 181.09375 117.203125 L 189.730469 125.84375 L 185.875 129.699219 Z M 177.234375 121.0625 " fill-opacity="1" fill-rule="nonzero"/><path fill="#ffffff" d="M 231.671875 125.84375 L 240.308594 117.207031 L 244.167969 121.0625 L 235.527344 129.703125 Z M 231.671875 125.84375 " fill-opacity="1" fill-rule="nonzero"/></svg>