<svg xmlns="http://www.w3.org/2000/svg" xmlns:xlink="http://www.w3.org/1999/xlink" width="500" zoomAndPan="magnify" viewBox="0 0 375 374.999991" height="500" preserveAspectRatio="xMidYMid meet" version="1.0"><defs><clipPath id="f187967842"><path d="M 112.5 135.9375 L 262.5 135.9375 L 262.5 239.4375 L 112.5 239.4375 Z M 112.5 135.9375 " clip-rule="nonzero"/></clipPath></defs><g clip-path="url(#f187967842)"><path fill="#ffffff" d="M 255.46875 135.9375 L 119.53125 135.9375 C 115.664062 135.9375 112.5 139.113281 112.5 142.996094 L 112.5 222.972656 C 112.5 226.851562 115.664062 230.027344 119.53125 230.027344 L 173.4375 230.027344 L 173.4375 234.734375 L 160.546875 234.734375 C 159.257812 234.734375 158.203125 235.792969 158.203125 237.085938 C 158.203125 238.378906 159.257812 239.4375 160.546875 239.4375 L 214.453125 239.4375 C 215.742188 239.4375 216.796875 238.378906 216.796875 237.085938 C 216.796875 235.792969 215.742188 234.734375 214.453125 234.734375 L 201.5625 234.734375 L 201.5625 230.027344 L 255.46875 230.027344 C 259.335938 230.027344 262.5 226.851562 262.5 222.972656 L 262.5 142.996094 C 262.5 139.113281 259.335938 135.9375 255.46875 135.9375 Z M 196.875 234.734375 L 178.125 234.734375 L 178.125 230.027344 L 196.875 230.027344 Z M 173.4375 225.324219 L 119.53125 225.324219 C 118.242188 225.324219 117.1875 224.265625 117.1875 222.972656 L 117.1875 142.996094 C 117.1875 141.699219 118.242188 140.640625 119.53125 140.640625 L 255.46875 140.640625 C 256.757812 140.640625 257.8125 141.699219 257.8125 142.996094 L 257.8125 199.800781 L 254.179688 196.273438 C 253.125 195.214844 251.71875 194.746094 250.3125 194.625 C 249.140625 194.625 247.851562 194.980469 246.796875 195.804688 L 242.929688 191.804688 C 244.921875 187.6875 246.09375 183.101562 246.09375 178.277344 C 246.09375 161.34375 232.5 147.699219 215.625 147.699219 C 198.75 147.699219 185.15625 161.34375 185.15625 178.277344 C 185.15625 195.214844 198.75 208.859375 215.625 208.859375 C 221.71875 208.859375 227.460938 207.09375 232.148438 203.917969 L 235.429688 207.328125 C 234.726562 208.269531 234.375 209.5625 234.375 210.738281 C 234.375 212.386719 234.960938 213.796875 236.132812 214.972656 L 246.914062 225.324219 Z M 238.710938 203.917969 L 235.898438 201.09375 C 237.539062 199.566406 239.0625 197.917969 240.351562 196.039062 L 243.398438 199.214844 Z M 215.625 204.152344 C 201.445312 204.152344 189.84375 192.507812 189.84375 178.277344 C 189.84375 164.046875 201.445312 152.402344 215.625 152.402344 C 229.804688 152.402344 241.40625 164.046875 241.40625 178.277344 C 241.40625 192.507812 229.804688 204.152344 215.625 204.152344 Z M 255.46875 225.324219 L 253.828125 225.324219 C 253.828125 225.324219 239.296875 211.5625 239.296875 211.445312 C 238.828125 210.976562 238.945312 210.269531 239.414062 209.800781 L 249.84375 199.449219 C 250.195312 199.332031 250.546875 199.332031 250.898438 199.683594 L 257.8125 206.269531 L 257.8125 222.972656 C 257.8125 224.265625 256.757812 225.324219 255.46875 225.324219 Z M 255.46875 225.324219 " fill-opacity="1" fill-rule="nonzero"/></g><path fill="#ffffff" d="M 147.65625 147.699219 L 138.28125 147.699219 C 136.992188 147.699219 135.9375 148.757812 135.9375 150.050781 L 135.9375 159.460938 C 135.9375 160.753906 136.992188 161.8125 138.28125 161.8125 L 147.65625 161.8125 C 148.945312 161.8125 150 160.753906 150 159.460938 L 150 150.050781 C 150 148.757812 148.945312 147.699219 147.65625 147.699219 Z M 145.3125 157.109375 L 140.625 157.109375 L 140.625 152.402344 L 145.3125 152.402344 Z M 145.3125 157.109375 " fill-opacity="1" fill-rule="nonzero"/><path fill="#ffffff" d="M 138.28125 180.628906 L 147.65625 180.628906 C 148.945312 180.628906 150 179.570312 150 178.277344 L 150 168.871094 C 150 167.574219 148.945312 166.515625 147.65625 166.515625 L 138.28125 166.515625 C 136.992188 166.515625 135.9375 167.574219 135.9375 168.871094 L 135.9375 178.277344 C 135.9375 179.570312 136.992188 180.628906 138.28125 180.628906 Z M 140.625 171.222656 L 145.3125 171.222656 L 145.3125 175.925781 L 140.625 175.925781 Z M 140.625 171.222656 " fill-opacity="1" fill-rule="nonzero"/><path fill="#ffffff" d="M 138.28125 199.449219 L 147.65625 199.449219 C 148.945312 199.449219 150 198.390625 150 197.097656 L 150 187.6875 C 150 186.394531 148.945312 185.335938 147.65625 185.335938 L 138.28125 185.335938 C 136.992188 185.335938 135.9375 186.394531 135.9375 187.6875 L 135.9375 197.097656 C 135.9375 198.390625 136.992188 199.449219 138.28125 199.449219 Z M 140.625 190.039062 L 145.3125 190.039062 L 145.3125 194.746094 L 140.625 194.746094 Z M 140.625 190.039062 " fill-opacity="1" fill-rule="nonzero"/><path fill="#ffffff" d="M 147.65625 204.152344 L 138.28125 204.152344 C 136.992188 204.152344 135.9375 205.210938 135.9375 206.503906 L 135.9375 215.914062 C 135.9375 217.207031 136.992188 218.265625 138.28125 218.265625 L 147.65625 218.265625 C 148.945312 218.265625 150 217.207031 150 215.914062 L 150 206.503906 C 150 205.210938 148.945312 204.152344 147.65625 204.152344 Z M 145.3125 213.5625 L 140.625 213.5625 L 140.625 208.859375 L 145.3125 208.859375 Z M 145.3125 213.5625 " fill-opacity="1" fill-rule="nonzero"/><path fill="#ffffff" d="M 157.03125 161.8125 L 184.570312 161.8125 C 185.390625 160.164062 186.445312 158.636719 187.5 157.109375 L 157.03125 157.109375 C 155.742188 157.109375 154.6875 158.167969 154.6875 159.460938 C 154.6875 160.753906 155.742188 161.8125 157.03125 161.8125 Z M 157.03125 161.8125 " fill-opacity="1" fill-rule="nonzero"/><path fill="#ffffff" d="M 157.03125 152.402344 L 191.71875 152.402344 C 193.59375 150.640625 195.820312 148.992188 198.046875 147.699219 L 157.03125 147.699219 C 155.742188 147.699219 154.6875 148.757812 154.6875 150.050781 C 154.6875 151.34375 155.742188 152.402344 157.03125 152.402344 Z M 157.03125 152.402344 " fill-opacity="1" fill-rule="nonzero"/><path fill="#ffffff" d="M 157.03125 171.222656 L 181.171875 171.222656 C 181.523438 169.574219 181.992188 168.046875 182.460938 166.515625 L 157.03125 166.515625 C 155.742188 166.515625 154.6875 167.574219 154.6875 168.871094 C 154.6875 170.164062 155.742188 171.222656 157.03125 171.222656 Z M 157.03125 171.222656 " fill-opacity="1" fill-rule="nonzero"/><path fill="#ffffff" d="M 157.03125 180.628906 L 180.585938 180.628906 C 180.585938 179.808594 180.46875 179.101562 180.46875 178.277344 C 180.46875 177.457031 180.46875 176.75 180.585938 175.925781 L 157.03125 175.925781 C 155.742188 175.925781 154.6875 176.984375 154.6875 178.277344 C 154.6875 179.570312 155.742188 180.628906 157.03125 180.628906 Z M 157.03125 180.628906 " fill-opacity="1" fill-rule="nonzero"/><path fill="#ffffff" d="M 157.03125 190.039062 L 182.460938 190.039062 C 181.875 188.511719 181.523438 186.980469 181.171875 185.335938 L 157.03125 185.335938 C 155.742188 185.335938 154.6875 186.394531 154.6875 187.6875 C 154.6875 188.980469 155.742188 190.039062 157.03125 190.039062 Z M 157.03125 190.039062 " fill-opacity="1" fill-rule="nonzero"/><path fill="#ffffff" d="M 157.03125 199.449219 L 187.5 199.449219 C 186.445312 197.917969 185.390625 196.390625 184.570312 194.746094 L 157.03125 194.746094 C 155.742188 194.746094 154.6875 195.804688 154.6875 197.097656 C 154.6875 198.390625 155.742188 199.449219 157.03125 199.449219 Z M 157.03125 199.449219 " fill-opacity="1" fill-rule="nonzero"/><path fill="#ffffff" d="M 157.03125 208.859375 L 198.164062 208.859375 C 195.820312 207.5625 193.710938 205.917969 191.835938 204.152344 L 157.03125 204.152344 C 155.742188 204.152344 154.6875 205.210938 154.6875 206.503906 C 154.6875 207.800781 155.742188 208.859375 157.03125 208.859375 Z M 157.03125 208.859375 " fill-opacity="1" fill-rule="nonzero"/><path fill="#ffffff" d="M 230.039062 213.5625 L 215.742188 213.5625 C 215.742188 213.5625 215.742188 213.5625 215.625 213.5625 C 215.507812 213.5625 215.625 213.5625 215.507812 213.5625 L 157.03125 213.5625 C 155.742188 213.5625 154.6875 214.621094 154.6875 215.914062 C 154.6875 217.207031 155.742188 218.265625 157.03125 218.265625 L 232.734375 218.265625 C 231.445312 216.972656 230.507812 215.328125 230.039062 213.5625 Z M 230.039062 213.5625 " fill-opacity="1" fill-rule="nonzero"/></svg>