<svg xmlns="http://www.w3.org/2000/svg" xmlns:xlink="http://www.w3.org/1999/xlink" width="500" zoomAndPan="magnify" viewBox="0 0 375 374.999991" height="500" preserveAspectRatio="xMidYMid meet" version="1.0"><defs><clipPath id="a7ee09be19"><path d="M 112.5 133.4375 L 254 133.4375 L 254 232 L 112.5 232 Z M 112.5 133.4375 " clip-rule="nonzero"/></clipPath></defs><path fill="#ffffff" d="M 161.722656 184.765625 L 161.722656 198.714844 C 161.722656 199.992188 162.773438 201.039062 164.050781 201.039062 C 165.332031 201.039062 166.378906 199.992188 166.378906 198.714844 L 166.378906 184.765625 C 166.378906 183.484375 165.332031 182.4375 164.050781 182.4375 C 162.773438 182.4375 161.722656 183.484375 161.722656 184.765625 Z M 161.722656 184.765625 " fill-opacity="1" fill-rule="nonzero"/><path fill="#ffffff" d="M 152.414062 177.789062 L 152.414062 198.714844 C 152.414062 199.992188 153.460938 201.039062 154.742188 201.039062 C 156.023438 201.039062 157.070312 199.992188 157.070312 198.714844 L 157.070312 177.789062 C 157.070312 176.511719 156.023438 175.464844 154.742188 175.464844 C 153.460938 175.464844 152.414062 176.511719 152.414062 177.789062 Z M 152.414062 177.789062 " fill-opacity="1" fill-rule="nonzero"/><path fill="#ffffff" d="M 143.105469 166.164062 L 143.105469 198.714844 C 143.105469 199.992188 144.152344 201.039062 145.433594 201.039062 C 146.710938 201.039062 147.761719 199.992188 147.761719 198.714844 L 147.761719 166.164062 C 147.761719 164.886719 146.710938 163.839844 145.433594 163.839844 C 144.152344 163.839844 143.105469 164.886719 143.105469 166.164062 Z M 143.105469 166.164062 " fill-opacity="1" fill-rule="nonzero"/><path fill="#ffffff" d="M 133.796875 154.539062 L 133.796875 198.714844 C 133.796875 199.992188 134.84375 201.039062 136.121094 201.039062 C 137.402344 201.039062 138.449219 199.992188 138.449219 198.714844 L 138.449219 154.539062 C 138.449219 153.261719 137.402344 152.214844 136.121094 152.214844 C 134.84375 152.214844 133.796875 153.261719 133.796875 154.539062 Z M 133.796875 154.539062 " fill-opacity="1" fill-rule="nonzero"/><g clip-path="url(#a7ee09be19)"><path fill="#ffffff" d="M 117.621094 226.613281 C 117.621094 226.613281 123.207031 222.078125 123.324219 221.960938 L 225.027344 221.960938 L 223.167969 220.101562 C 222.351562 219.289062 221.65625 218.359375 221.074219 217.3125 L 125.648438 217.3125 L 125.648438 140.589844 C 125.648438 139.3125 126.695312 138.265625 127.976562 138.265625 L 246.671875 138.265625 C 247.953125 138.265625 249 139.3125 249 140.589844 L 249 209.757812 L 253.65625 214.40625 L 253.65625 140.589844 C 253.65625 136.753906 250.515625 133.617188 246.671875 133.617188 L 127.976562 133.617188 C 124.136719 133.617188 120.996094 136.753906 120.996094 140.589844 L 120.996094 218.007812 C 120.53125 218.242188 113.894531 223.707031 113.78125 223.820312 C 112.5 224.867188 112.5 227.078125 113.316406 228.703125 C 114.128906 230.332031 115.757812 231.261719 117.503906 231.261719 L 234.339844 231.261719 L 229.683594 226.613281 Z M 117.621094 226.613281 " fill-opacity="1" fill-rule="nonzero"/></g><path fill="#ffffff" d="M 259.824219 227.191406 L 237.945312 205.339844 C 235.617188 203.015625 232.128906 202.78125 229.566406 204.523438 L 226.078125 201.039062 C 230.265625 196.039062 232.710938 189.53125 232.710938 182.554688 C 232.710938 166.515625 219.675781 153.496094 203.617188 153.496094 C 187.558594 153.496094 174.523438 166.398438 174.523438 182.4375 C 174.523438 198.480469 187.558594 211.5 203.617188 211.5 C 210.949219 211.5 217.699219 208.828125 222.816406 204.292969 L 226.308594 207.78125 C 223.980469 210.335938 224.097656 214.40625 226.542969 216.847656 C 226.542969 216.847656 248.304688 238.699219 248.417969 238.699219 C 250.980469 241.257812 255.285156 241.257812 257.84375 238.699219 L 259.941406 236.609375 C 262.5 233.933594 262.5 229.75 259.824219 227.191406 Z M 179.179688 182.4375 C 179.179688 168.953125 190.117188 158.027344 203.617188 158.027344 C 217.117188 158.027344 228.054688 168.953125 228.054688 182.4375 C 228.054688 195.921875 217.117188 206.851562 203.617188 206.851562 C 190.117188 206.851562 179.179688 195.921875 179.179688 182.4375 Z M 256.566406 233.238281 L 254.46875 235.328125 C 253.65625 236.144531 252.375 236.144531 251.675781 235.328125 L 229.800781 213.476562 C 228.984375 212.664062 228.984375 211.382812 229.800781 210.6875 C 229.800781 210.6875 231.894531 208.59375 231.894531 208.59375 C 232.59375 207.894531 233.988281 207.78125 234.6875 208.59375 L 256.566406 230.449219 C 257.378906 231.261719 257.378906 232.539062 256.566406 233.238281 Z M 256.566406 233.238281 " fill-opacity="1" fill-rule="nonzero"/><path fill="#ffffff" d="M 218.746094 183.601562 C 217.464844 183.601562 216.300781 182.4375 216.417969 181.160156 C 216.652344 177.207031 213.277344 173.023438 208.855469 171.976562 C 207.574219 171.628906 206.875 170.351562 207.109375 169.1875 C 207.457031 167.910156 208.738281 167.210938 209.902344 167.445312 C 216.535156 169.070312 221.304688 175.230469 220.957031 181.507812 C 220.957031 182.671875 219.910156 183.601562 218.746094 183.601562 Z M 218.746094 183.601562 " fill-opacity="1" fill-rule="nonzero"/></svg>