<svg xmlns="http://www.w3.org/2000/svg" xmlns:xlink="http://www.w3.org/1999/xlink" width="500" zoomAndPan="magnify" viewBox="0 0 375 374.999991" height="500" preserveAspectRatio="xMidYMid meet" version="1.0"><defs><clipPath id="29e5b0ab0e"><path d="M 112.5 112.5 L 262.5 112.5 L 262.5 262 L 112.5 262 Z M 112.5 112.5 " clip-rule="nonzero"/></clipPath></defs><g clip-path="url(#29e5b0ab0e)"><path fill="#ffffff" d="M 258.011719 232.789062 C 261.039062 226.195312 262.535156 219.269531 262.5 212.015625 C 262.5 210.382812 262.421875 208.753906 262.261719 207.128906 C 262.101562 205.503906 261.859375 203.890625 261.542969 202.289062 C 261.222656 200.6875 260.828125 199.105469 260.351562 197.542969 C 259.878906 195.976562 259.328125 194.441406 258.703125 192.933594 C 258.078125 191.425781 257.382812 189.949219 256.613281 188.511719 C 255.84375 187.070312 255.003906 185.671875 254.097656 184.3125 C 253.191406 182.957031 252.21875 181.644531 251.183594 180.382812 C 250.144531 179.121094 249.050781 177.914062 247.894531 176.757812 C 246.742188 175.601562 245.53125 174.507812 244.269531 173.472656 C 243.007812 172.4375 241.699219 171.464844 240.339844 170.558594 C 238.980469 169.648438 237.582031 168.8125 236.144531 168.042969 C 234.703125 167.273438 233.226562 166.574219 231.71875 165.949219 C 230.210938 165.324219 228.675781 164.773438 227.113281 164.300781 C 225.550781 163.828125 223.96875 163.429688 222.367188 163.113281 C 220.765625 162.792969 219.152344 162.554688 217.527344 162.394531 C 215.902344 162.234375 214.273438 162.152344 212.636719 162.152344 C 212.636719 160.519531 212.558594 158.890625 212.398438 157.265625 C 212.238281 155.640625 212 154.027344 211.679688 152.425781 C 211.363281 150.824219 210.964844 149.242188 210.492188 147.679688 C 210.015625 146.117188 209.46875 144.582031 208.84375 143.074219 C 208.21875 141.5625 207.519531 140.089844 206.75 138.648438 C 205.980469 137.207031 205.144531 135.808594 204.234375 134.453125 C 203.328125 133.09375 202.355469 131.785156 201.320312 130.523438 C 200.285156 129.257812 199.1875 128.050781 198.035156 126.894531 C 196.878906 125.742188 195.671875 124.644531 194.410156 123.609375 C 193.144531 122.574219 191.835938 121.601562 190.480469 120.695312 C 189.121094 119.789062 187.722656 118.949219 186.28125 118.179688 C 184.839844 117.410156 183.367188 116.710938 181.859375 116.085938 C 180.347656 115.460938 178.8125 114.914062 177.25 114.4375 C 175.6875 113.964844 174.105469 113.570312 172.503906 113.25 C 170.902344 112.933594 169.289062 112.691406 167.664062 112.53125 C 166.039062 112.371094 164.410156 112.292969 162.777344 112.292969 C 161.144531 112.292969 159.515625 112.371094 157.890625 112.53125 C 156.265625 112.691406 154.652344 112.933594 153.050781 113.25 C 151.449219 113.570312 149.867188 113.964844 148.304688 114.4375 C 146.742188 114.914062 145.203125 115.460938 143.695312 116.085938 C 142.1875 116.710938 140.710938 117.410156 139.273438 118.179688 C 137.832031 118.949219 136.433594 119.789062 135.074219 120.695312 C 133.71875 121.601562 132.40625 122.574219 131.144531 123.609375 C 129.882812 124.644531 128.675781 125.742188 127.519531 126.894531 C 126.363281 128.050781 125.269531 129.257812 124.234375 130.523438 C 123.199219 131.785156 122.226562 133.09375 121.320312 134.453125 C 120.410156 135.808594 119.574219 137.207031 118.804688 138.648438 C 118.035156 140.089844 117.335938 141.5625 116.710938 143.074219 C 116.085938 144.582031 115.535156 146.117188 115.0625 147.679688 C 114.589844 149.242188 114.191406 150.824219 113.875 152.425781 C 113.554688 154.027344 113.316406 155.640625 113.15625 157.265625 C 112.996094 158.890625 112.914062 160.519531 112.914062 162.152344 C 112.878906 169.410156 114.375 176.335938 117.402344 182.929688 L 112.914062 207.113281 C 112.859375 207.414062 112.839844 207.71875 112.851562 208.027344 C 112.863281 208.332031 112.910156 208.636719 112.988281 208.933594 C 113.066406 209.230469 113.179688 209.515625 113.320312 209.785156 C 113.464844 210.058594 113.632812 210.3125 113.832031 210.546875 C 114.03125 210.78125 114.253906 210.992188 114.5 211.175781 C 114.742188 211.363281 115.007812 211.519531 115.285156 211.644531 C 115.566406 211.773438 115.855469 211.867188 116.15625 211.929688 C 116.460938 211.992188 116.761719 212.019531 117.070312 212.015625 L 117.820312 212.015625 L 142 207.527344 C 148.597656 210.554688 155.519531 212.050781 162.777344 212.015625 C 162.777344 213.648438 162.855469 215.277344 163.015625 216.902344 C 163.175781 218.527344 163.417969 220.140625 163.734375 221.742188 C 164.054688 223.34375 164.449219 224.925781 164.925781 226.488281 C 165.398438 228.050781 165.949219 229.585938 166.574219 231.097656 C 167.199219 232.605469 167.894531 234.078125 168.664062 235.519531 C 169.433594 236.960938 170.273438 238.359375 171.179688 239.714844 C 172.085938 241.074219 173.058594 242.382812 174.09375 243.648438 C 175.132812 244.910156 176.226562 246.117188 177.382812 247.273438 C 178.535156 248.425781 179.746094 249.523438 181.007812 250.558594 C 182.269531 251.59375 183.578125 252.566406 184.9375 253.472656 C 186.292969 254.378906 187.695312 255.21875 189.132812 255.988281 C 190.574219 256.757812 192.046875 257.457031 193.558594 258.082031 C 195.066406 258.707031 196.601562 259.253906 198.164062 259.730469 C 199.726562 260.203125 201.308594 260.601562 202.910156 260.917969 C 204.511719 261.238281 206.125 261.476562 207.75 261.636719 C 209.375 261.796875 211.003906 261.875 212.636719 261.875 C 219.894531 261.910156 226.820312 260.414062 233.414062 257.390625 L 257.597656 261.875 L 258.34375 261.875 C 258.652344 261.882812 258.957031 261.851562 259.257812 261.789062 C 259.558594 261.726562 259.847656 261.632812 260.128906 261.507812 C 260.410156 261.378906 260.671875 261.222656 260.917969 261.039062 C 261.160156 260.851562 261.382812 260.644531 261.582031 260.410156 C 261.78125 260.175781 261.953125 259.921875 262.09375 259.648438 C 262.238281 259.375 262.347656 259.089844 262.425781 258.792969 C 262.507812 258.496094 262.550781 258.195312 262.566406 257.886719 C 262.578125 257.582031 262.554688 257.277344 262.5 256.972656 Z M 144.578125 199.550781 C 144 199.269531 143.390625 199.132812 142.75 199.132812 L 142 199.132812 L 122.222656 202.75 L 125.839844 182.929688 C 125.96875 182.019531 125.816406 181.160156 125.382812 180.351562 C 122.578125 174.609375 121.195312 168.542969 121.226562 162.152344 C 121.226562 160.792969 121.292969 159.433594 121.425781 158.082031 C 121.558594 156.726562 121.757812 155.382812 122.023438 154.046875 C 122.289062 152.710938 122.621094 151.394531 123.015625 150.09375 C 123.410156 148.789062 123.867188 147.511719 124.386719 146.253906 C 124.910156 144.996094 125.492188 143.765625 126.132812 142.566406 C 126.773438 141.367188 127.472656 140.199219 128.226562 139.070312 C 128.984375 137.9375 129.792969 136.847656 130.65625 135.792969 C 131.519531 134.742188 132.433594 133.734375 133.394531 132.773438 C 134.359375 131.808594 135.363281 130.898438 136.417969 130.035156 C 137.46875 129.171875 138.5625 128.359375 139.691406 127.605469 C 140.824219 126.847656 141.988281 126.148438 143.191406 125.507812 C 144.390625 124.867188 145.617188 124.285156 146.875 123.765625 C 148.132812 123.246094 149.414062 122.785156 150.714844 122.390625 C 152.015625 121.996094 153.335938 121.667969 154.671875 121.402344 C 156.003906 121.136719 157.351562 120.9375 158.703125 120.800781 C 160.058594 120.667969 161.417969 120.601562 162.777344 120.601562 C 164.136719 120.601562 165.496094 120.667969 166.851562 120.800781 C 168.203125 120.9375 169.546875 121.136719 170.882812 121.402344 C 172.21875 121.667969 173.535156 121.996094 174.839844 122.390625 C 176.140625 122.785156 177.421875 123.246094 178.679688 123.765625 C 179.933594 124.285156 181.164062 124.867188 182.363281 125.507812 C 183.5625 126.148438 184.730469 126.847656 185.863281 127.605469 C 186.992188 128.359375 188.085938 129.171875 189.136719 130.035156 C 190.1875 130.898438 191.195312 131.808594 192.15625 132.773438 C 193.121094 133.734375 194.035156 134.742188 194.898438 135.792969 C 195.761719 136.847656 196.570312 137.9375 197.324219 139.070312 C 198.082031 140.199219 198.78125 141.367188 199.421875 142.566406 C 200.0625 143.765625 200.644531 144.996094 201.164062 146.253906 C 201.6875 147.511719 202.144531 148.789062 202.539062 150.09375 C 202.933594 151.394531 203.265625 152.710938 203.53125 154.046875 C 203.796875 155.382812 203.996094 156.726562 204.128906 158.082031 C 204.261719 159.433594 204.328125 160.792969 204.328125 162.152344 C 204.328125 163.515625 204.261719 164.871094 204.128906 166.226562 C 203.996094 167.582031 203.796875 168.925781 203.53125 170.261719 C 203.265625 171.59375 202.933594 172.914062 202.539062 174.214844 C 202.144531 175.519531 201.6875 176.796875 201.164062 178.054688 C 200.644531 179.3125 200.0625 180.539062 199.421875 181.742188 C 198.78125 182.941406 198.082031 184.105469 197.324219 185.238281 C 196.570312 186.371094 195.761719 187.460938 194.898438 188.511719 C 194.035156 189.566406 193.121094 190.574219 192.15625 191.535156 C 191.195312 192.496094 190.1875 193.410156 189.136719 194.273438 C 188.085938 195.136719 186.992188 195.945312 185.863281 196.703125 C 184.730469 197.457031 183.5625 198.15625 182.363281 198.796875 C 181.164062 199.441406 179.933594 200.019531 178.679688 200.542969 C 177.421875 201.0625 176.140625 201.519531 174.839844 201.914062 C 173.535156 202.3125 172.21875 202.640625 170.882812 202.90625 C 169.546875 203.171875 168.203125 203.371094 166.851562 203.503906 C 165.496094 203.636719 164.136719 203.703125 162.777344 203.703125 C 156.386719 203.738281 150.320312 202.351562 144.578125 199.550781 Z M 249.578125 232.789062 L 253.191406 252.570312 L 233.414062 248.953125 C 232.515625 248.796875 231.65625 248.921875 230.839844 249.328125 C 225.101562 252.160156 219.035156 253.570312 212.636719 253.566406 C 211.277344 253.566406 209.921875 253.5 208.566406 253.367188 C 207.210938 253.234375 205.867188 253.035156 204.53125 252.769531 C 203.199219 252.503906 201.878906 252.171875 200.578125 251.777344 C 199.273438 251.382812 197.996094 250.925781 196.738281 250.402344 C 195.480469 249.882812 194.25 249.300781 193.050781 248.660156 C 191.851562 248.019531 190.683594 247.320312 189.554688 246.5625 C 188.421875 245.808594 187.332031 245 186.277344 244.136719 C 185.226562 243.269531 184.21875 242.359375 183.257812 241.394531 C 182.296875 240.433594 181.382812 239.425781 180.519531 238.375 C 179.65625 237.324219 178.847656 236.230469 178.089844 235.101562 C 177.332031 233.96875 176.636719 232.800781 175.992188 231.601562 C 175.351562 230.402344 174.769531 229.171875 174.25 227.917969 C 173.730469 226.660156 173.269531 225.378906 172.875 224.078125 C 172.480469 222.773438 172.152344 221.457031 171.886719 220.121094 C 171.621094 218.785156 171.421875 217.441406 171.289062 216.089844 C 171.152344 214.734375 171.085938 213.375 171.085938 212.015625 L 171.085938 211.265625 C 172.351562 211.050781 173.605469 210.789062 174.851562 210.476562 C 176.09375 210.164062 177.324219 209.804688 178.542969 209.398438 C 179.757812 208.992188 180.957031 208.539062 182.136719 208.042969 C 183.320312 207.542969 184.480469 207 185.621094 206.410156 C 186.757812 205.820312 187.875 205.1875 188.964844 204.515625 C 190.054688 203.839844 191.121094 203.125 192.15625 202.367188 C 193.191406 201.609375 194.195312 200.8125 195.167969 199.980469 C 196.144531 199.144531 197.085938 198.273438 197.992188 197.367188 C 198.898438 196.460938 199.769531 195.519531 200.601562 194.546875 C 201.4375 193.570312 202.234375 192.566406 202.988281 191.53125 C 203.746094 190.496094 204.460938 189.433594 205.136719 188.34375 C 205.8125 187.25 206.445312 186.136719 207.03125 184.996094 C 207.621094 183.855469 208.164062 182.695312 208.664062 181.515625 C 209.164062 180.332031 209.617188 179.132812 210.023438 177.917969 C 210.429688 176.703125 210.789062 175.472656 211.101562 174.226562 C 211.414062 172.984375 211.675781 171.726562 211.890625 170.464844 L 212.636719 170.464844 C 214 170.464844 215.355469 170.53125 216.710938 170.664062 C 218.066406 170.796875 219.410156 170.996094 220.746094 171.261719 C 222.078125 171.527344 223.398438 171.859375 224.699219 172.253906 C 226.003906 172.648438 227.28125 173.105469 228.539062 173.625 C 229.796875 174.148438 231.027344 174.730469 232.226562 175.371094 C 233.425781 176.011719 234.589844 176.710938 235.722656 177.464844 C 236.855469 178.222656 237.945312 179.03125 239 179.894531 C 240.050781 180.757812 241.058594 181.671875 242.019531 182.632812 C 242.980469 183.597656 243.894531 184.601562 244.757812 185.65625 C 245.621094 186.707031 246.429688 187.800781 247.1875 188.929688 C 247.941406 190.0625 248.640625 191.226562 249.285156 192.429688 C 249.925781 193.628906 250.507812 194.855469 251.027344 196.113281 C 251.546875 197.371094 252.003906 198.652344 252.402344 199.953125 C 252.796875 201.253906 253.125 202.574219 253.390625 203.910156 C 253.65625 205.242188 253.855469 206.589844 253.988281 207.941406 C 254.125 209.296875 254.191406 210.65625 254.191406 212.015625 C 254.222656 218.40625 252.835938 224.472656 250.035156 230.214844 C 249.597656 231.023438 249.445312 231.882812 249.578125 232.789062 Z M 249.578125 232.789062 " fill-opacity="1" fill-rule="nonzero"/></g><path fill="#ffffff" d="M 167.847656 142.292969 C 167.847656 142.625 167.8125 142.953125 167.75 143.28125 C 167.683594 143.609375 167.585938 143.925781 167.460938 144.230469 C 167.332031 144.539062 167.175781 144.832031 166.992188 145.109375 C 166.808594 145.386719 166.597656 145.640625 166.363281 145.875 C 166.125 146.113281 165.871094 146.320312 165.59375 146.507812 C 165.316406 146.691406 165.023438 146.847656 164.71875 146.976562 C 164.410156 147.101562 164.09375 147.199219 163.765625 147.265625 C 163.441406 147.328125 163.109375 147.363281 162.777344 147.363281 C 162.445312 147.363281 162.113281 147.328125 161.789062 147.265625 C 161.460938 147.199219 161.144531 147.101562 160.835938 146.976562 C 160.53125 146.847656 160.238281 146.691406 159.960938 146.507812 C 159.683594 146.320312 159.429688 146.113281 159.191406 145.875 C 158.957031 145.640625 158.746094 145.386719 158.5625 145.109375 C 158.378906 144.832031 158.222656 144.539062 158.09375 144.230469 C 157.964844 143.925781 157.871094 143.609375 157.804688 143.28125 C 157.738281 142.953125 157.707031 142.625 157.707031 142.292969 C 157.707031 141.960938 157.738281 141.628906 157.804688 141.304688 C 157.871094 140.976562 157.964844 140.660156 158.09375 140.351562 C 158.222656 140.042969 158.378906 139.753906 158.5625 139.476562 C 158.746094 139.199219 158.957031 138.941406 159.191406 138.707031 C 159.429688 138.472656 159.683594 138.261719 159.960938 138.078125 C 160.238281 137.890625 160.53125 137.734375 160.835938 137.609375 C 161.144531 137.480469 161.460938 137.386719 161.789062 137.320312 C 162.113281 137.253906 162.445312 137.222656 162.777344 137.222656 C 163.109375 137.222656 163.441406 137.253906 163.765625 137.320312 C 164.09375 137.386719 164.410156 137.480469 164.71875 137.609375 C 165.023438 137.734375 165.316406 137.890625 165.59375 138.078125 C 165.871094 138.261719 166.125 138.472656 166.363281 138.707031 C 166.597656 138.941406 166.808594 139.199219 166.992188 139.476562 C 167.175781 139.753906 167.332031 140.042969 167.460938 140.351562 C 167.585938 140.660156 167.683594 140.976562 167.75 141.304688 C 167.8125 141.628906 167.847656 141.960938 167.847656 142.292969 Z M 167.847656 142.292969 " fill-opacity="1" fill-rule="nonzero"/><path fill="#ffffff" d="M 167.847656 187.085938 C 168.117188 187.085938 168.390625 187.058594 168.65625 187.003906 C 168.925781 186.953125 169.183594 186.871094 169.4375 186.769531 C 169.6875 186.664062 169.929688 186.535156 170.15625 186.382812 C 170.382812 186.234375 170.589844 186.058594 170.785156 185.867188 C 170.976562 185.675781 171.148438 185.464844 171.300781 185.238281 C 171.453125 185.011719 171.582031 184.773438 171.683594 184.519531 C 171.789062 184.265625 171.867188 184.007812 171.921875 183.738281 C 171.976562 183.472656 172 183.203125 172 182.929688 C 172 182.65625 171.976562 182.386719 171.921875 182.117188 C 171.867188 181.851562 171.789062 181.589844 171.683594 181.339844 C 171.582031 181.085938 171.453125 180.847656 171.300781 180.621094 C 171.148438 180.394531 170.976562 180.183594 170.785156 179.992188 C 170.589844 179.796875 170.382812 179.625 170.15625 179.472656 C 169.929688 179.324219 169.6875 179.195312 169.4375 179.089844 C 169.183594 178.984375 168.925781 178.90625 168.65625 178.855469 C 168.390625 178.800781 168.117188 178.773438 167.847656 178.773438 L 166.933594 178.773438 L 166.933594 157.542969 C 166.933594 157.269531 166.90625 157 166.851562 156.730469 C 166.800781 156.464844 166.71875 156.203125 166.617188 155.953125 C 166.511719 155.699219 166.382812 155.460938 166.230469 155.234375 C 166.082031 155.007812 165.90625 154.796875 165.714844 154.601562 C 165.523438 154.410156 165.3125 154.238281 165.085938 154.085938 C 164.859375 153.933594 164.621094 153.808594 164.367188 153.703125 C 164.113281 153.597656 163.855469 153.519531 163.585938 153.464844 C 163.320312 153.414062 163.050781 153.386719 162.777344 153.386719 L 157.707031 153.386719 C 157.433594 153.386719 157.164062 153.414062 156.898438 153.464844 C 156.628906 153.519531 156.371094 153.597656 156.117188 153.703125 C 155.867188 153.808594 155.625 153.933594 155.398438 154.085938 C 155.171875 154.238281 154.960938 154.410156 154.769531 154.601562 C 154.578125 154.796875 154.40625 155.007812 154.253906 155.234375 C 154.101562 155.460938 153.972656 155.699219 153.867188 155.953125 C 153.765625 156.203125 153.6875 156.464844 153.632812 156.730469 C 153.578125 157 153.550781 157.269531 153.550781 157.542969 C 153.550781 157.8125 153.578125 158.085938 153.632812 158.351562 C 153.6875 158.621094 153.765625 158.878906 153.867188 159.132812 C 153.972656 159.382812 154.101562 159.625 154.253906 159.851562 C 154.40625 160.078125 154.578125 160.285156 154.769531 160.480469 C 154.960938 160.671875 155.171875 160.84375 155.398438 160.996094 C 155.625 161.148438 155.867188 161.277344 156.117188 161.378906 C 156.371094 161.484375 156.628906 161.5625 156.898438 161.617188 C 157.164062 161.671875 157.433594 161.695312 157.707031 161.695312 L 158.621094 161.695312 L 158.621094 178.773438 L 157.707031 178.773438 C 157.433594 178.773438 157.164062 178.800781 156.898438 178.855469 C 156.628906 178.90625 156.371094 178.984375 156.117188 179.089844 C 155.867188 179.195312 155.625 179.324219 155.398438 179.472656 C 155.171875 179.625 154.960938 179.796875 154.769531 179.992188 C 154.578125 180.183594 154.40625 180.394531 154.253906 180.621094 C 154.101562 180.847656 153.972656 181.085938 153.867188 181.339844 C 153.765625 181.589844 153.6875 181.851562 153.632812 182.117188 C 153.578125 182.386719 153.550781 182.65625 153.550781 182.929688 C 153.550781 183.203125 153.578125 183.472656 153.632812 183.738281 C 153.6875 184.007812 153.765625 184.265625 153.867188 184.519531 C 153.972656 184.773438 154.101562 185.011719 154.253906 185.238281 C 154.40625 185.464844 154.578125 185.675781 154.769531 185.867188 C 154.960938 186.058594 155.171875 186.234375 155.398438 186.382812 C 155.625 186.535156 155.867188 186.664062 156.117188 186.769531 C 156.371094 186.871094 156.628906 186.953125 156.898438 187.003906 C 157.164062 187.058594 157.433594 187.085938 157.707031 187.085938 Z M 167.847656 187.085938 " fill-opacity="1" fill-rule="nonzero"/><path fill="#ffffff" d="M 229.257812 191.238281 L 216.792969 191.238281 C 216.519531 191.238281 216.25 191.265625 215.984375 191.320312 C 215.714844 191.371094 215.457031 191.453125 215.203125 191.554688 C 214.953125 191.660156 214.710938 191.789062 214.484375 191.941406 C 214.257812 192.089844 214.046875 192.265625 213.855469 192.457031 C 213.664062 192.648438 213.492188 192.859375 213.339844 193.085938 C 213.1875 193.3125 213.058594 193.550781 212.953125 193.804688 C 212.851562 194.058594 212.773438 194.316406 212.71875 194.585938 C 212.664062 194.851562 212.636719 195.121094 212.636719 195.394531 C 212.636719 195.667969 212.664062 195.9375 212.71875 196.207031 C 212.773438 196.472656 212.851562 196.734375 212.953125 196.984375 C 213.058594 197.238281 213.1875 197.476562 213.339844 197.703125 C 213.492188 197.929688 213.664062 198.140625 213.855469 198.332031 C 214.046875 198.527344 214.257812 198.699219 214.484375 198.847656 C 214.710938 199 214.953125 199.128906 215.203125 199.234375 C 215.457031 199.339844 215.714844 199.417969 215.984375 199.46875 C 216.25 199.523438 216.519531 199.550781 216.792969 199.550781 L 229.257812 199.550781 C 229.53125 199.550781 229.800781 199.523438 230.070312 199.46875 C 230.335938 199.417969 230.597656 199.339844 230.847656 199.234375 C 231.101562 199.128906 231.339844 199 231.566406 198.847656 C 231.792969 198.699219 232.003906 198.527344 232.195312 198.332031 C 232.390625 198.140625 232.5625 197.929688 232.714844 197.703125 C 232.867188 197.476562 232.992188 197.238281 233.097656 196.984375 C 233.203125 196.734375 233.28125 196.472656 233.335938 196.207031 C 233.386719 195.9375 233.414062 195.667969 233.414062 195.394531 C 233.414062 195.121094 233.386719 194.851562 233.335938 194.585938 C 233.28125 194.316406 233.203125 194.058594 233.097656 193.804688 C 232.992188 193.550781 232.867188 193.3125 232.714844 193.085938 C 232.5625 192.859375 232.390625 192.648438 232.195312 192.457031 C 232.003906 192.265625 231.792969 192.089844 231.566406 191.941406 C 231.339844 191.789062 231.101562 191.660156 230.847656 191.554688 C 230.597656 191.453125 230.335938 191.371094 230.070312 191.320312 C 229.800781 191.265625 229.53125 191.238281 229.257812 191.238281 Z M 229.257812 191.238281 " fill-opacity="1" fill-rule="nonzero"/><path fill="#ffffff" d="M 229.257812 207.859375 L 196.019531 207.859375 C 195.746094 207.859375 195.476562 207.886719 195.207031 207.941406 C 194.941406 207.992188 194.679688 208.070312 194.429688 208.175781 C 194.175781 208.28125 193.9375 208.410156 193.710938 208.558594 C 193.484375 208.710938 193.273438 208.882812 193.078125 209.078125 C 192.886719 209.269531 192.714844 209.480469 192.5625 209.707031 C 192.410156 209.933594 192.285156 210.171875 192.179688 210.425781 C 192.074219 210.675781 191.996094 210.9375 191.941406 211.203125 C 191.890625 211.472656 191.863281 211.742188 191.863281 212.015625 C 191.863281 212.289062 191.890625 212.558594 191.941406 212.824219 C 191.996094 213.09375 192.074219 213.351562 192.179688 213.605469 C 192.285156 213.855469 192.410156 214.097656 192.5625 214.324219 C 192.714844 214.550781 192.886719 214.761719 193.078125 214.953125 C 193.273438 215.144531 193.484375 215.320312 193.710938 215.46875 C 193.9375 215.621094 194.175781 215.75 194.429688 215.855469 C 194.679688 215.957031 194.941406 216.039062 195.207031 216.089844 C 195.476562 216.144531 195.746094 216.171875 196.019531 216.171875 L 229.257812 216.171875 C 229.53125 216.171875 229.800781 216.144531 230.070312 216.089844 C 230.335938 216.039062 230.597656 215.957031 230.847656 215.855469 C 231.101562 215.75 231.339844 215.621094 231.566406 215.46875 C 231.792969 215.320312 232.003906 215.144531 232.195312 214.953125 C 232.390625 214.761719 232.5625 214.550781 232.714844 214.324219 C 232.867188 214.097656 232.992188 213.855469 233.097656 213.605469 C 233.203125 213.351562 233.28125 213.09375 233.335938 212.824219 C 233.386719 212.558594 233.414062 212.289062 233.414062 212.015625 C 233.414062 211.742188 233.386719 211.472656 233.335938 211.203125 C 233.28125 210.9375 233.203125 210.675781 233.097656 210.425781 C 232.992188 210.171875 232.867188 209.933594 232.714844 209.707031 C 232.5625 209.480469 232.390625 209.269531 232.195312 209.078125 C 232.003906 208.882812 231.792969 208.710938 231.566406 208.558594 C 231.339844 208.410156 231.101562 208.28125 230.847656 208.175781 C 230.597656 208.070312 230.335938 207.992188 230.070312 207.941406 C 229.800781 207.886719 229.53125 207.859375 229.257812 207.859375 Z M 229.257812 207.859375 " fill-opacity="1" fill-rule="nonzero"/><path fill="#ffffff" d="M 229.257812 224.480469 L 196.019531 224.480469 C 195.746094 224.480469 195.476562 224.507812 195.207031 224.558594 C 194.941406 224.613281 194.679688 224.691406 194.429688 224.796875 C 194.175781 224.902344 193.9375 225.027344 193.710938 225.179688 C 193.484375 225.332031 193.273438 225.503906 193.078125 225.699219 C 192.886719 225.890625 192.714844 226.101562 192.5625 226.328125 C 192.410156 226.554688 192.285156 226.792969 192.179688 227.046875 C 192.074219 227.296875 191.996094 227.558594 191.941406 227.824219 C 191.890625 228.09375 191.863281 228.363281 191.863281 228.636719 C 191.863281 228.910156 191.890625 229.179688 191.941406 229.445312 C 191.996094 229.714844 192.074219 229.972656 192.179688 230.226562 C 192.285156 230.476562 192.410156 230.71875 192.5625 230.945312 C 192.714844 231.171875 192.886719 231.382812 193.078125 231.574219 C 193.273438 231.765625 193.484375 231.9375 193.710938 232.089844 C 193.9375 232.242188 194.175781 232.371094 194.429688 232.472656 C 194.679688 232.578125 194.941406 232.65625 195.207031 232.710938 C 195.476562 232.765625 195.746094 232.789062 196.019531 232.789062 L 229.257812 232.789062 C 229.53125 232.789062 229.800781 232.765625 230.070312 232.710938 C 230.335938 232.65625 230.597656 232.578125 230.847656 232.472656 C 231.101562 232.371094 231.339844 232.242188 231.566406 232.089844 C 231.792969 231.9375 232.003906 231.765625 232.195312 231.574219 C 232.390625 231.382812 232.5625 231.171875 232.714844 230.945312 C 232.867188 230.71875 232.992188 230.476562 233.097656 230.226562 C 233.203125 229.972656 233.28125 229.714844 233.335938 229.445312 C 233.386719 229.179688 233.414062 228.910156 233.414062 228.636719 C 233.414062 228.363281 233.386719 228.09375 233.335938 227.824219 C 233.28125 227.558594 233.203125 227.296875 233.097656 227.046875 C 232.992188 226.792969 232.867188 226.554688 232.714844 226.328125 C 232.5625 226.101562 232.390625 225.890625 232.195312 225.699219 C 232.003906 225.503906 231.792969 225.332031 231.566406 225.179688 C 231.339844 225.027344 231.101562 224.902344 230.847656 224.796875 C 230.597656 224.691406 230.335938 224.613281 230.070312 224.558594 C 229.800781 224.507812 229.53125 224.480469 229.257812 224.480469 Z M 229.257812 224.480469 " fill-opacity="1" fill-rule="nonzero"/></svg>