<svg xmlns="http://www.w3.org/2000/svg" xmlns:xlink="http://www.w3.org/1999/xlink" width="500" zoomAndPan="magnify" viewBox="0 0 375 374.999991" height="500" preserveAspectRatio="xMidYMid meet" version="1.0"><defs><clipPath id="88240eff8c"><path d="M 113 126 L 236 126 L 236 248.90625 L 113 248.90625 Z M 113 126 " clip-rule="nonzero"/></clipPath></defs><g clip-path="url(#88240eff8c)"><path fill="#ffffff" d="M 213.3125 248.90625 C 196.878906 248.90625 171.820312 230.972656 151.71875 210.878906 C 131.59375 190.804688 117.648438 170.144531 114.386719 155.628906 C 112.550781 147.402344 114.101562 141.296875 118.996094 137.488281 L 130.390625 128.65625 C 133.917969 125.90625 139.035156 126.558594 141.769531 130.078125 L 154.550781 146.488281 C 158.078125 151.007812 159.507812 157.257812 158.304688 162.773438 C 157.324219 167.191406 154.757812 170.691406 151.046875 172.625 L 146.007812 175.234375 C 152.71875 187.34375 175.308594 209.882812 187.4375 216.578125 L 190.046875 211.570312 C 191.984375 207.84375 195.472656 205.28125 199.917969 204.304688 C 205.441406 203.101562 211.679688 204.546875 216.207031 208.046875 L 232.660156 220.8125 C 236.1875 223.5625 236.820312 228.671875 234.085938 232.171875 L 225.21875 243.550781 C 222.445312 247.113281 218.449219 248.90625 213.3125 248.90625 Z M 135.347656 130.34375 C 134.304688 130.34375 133.308594 130.691406 132.472656 131.320312 L 121.09375 140.15625 C 117.300781 143.109375 116.179688 148.054688 117.710938 154.894531 C 120.789062 168.597656 134.734375 189.136719 154.105469 208.496094 C 173.492188 227.835938 194.066406 241.78125 207.785156 244.835938 C 214.636719 246.382812 219.613281 245.242188 222.546875 241.476562 L 231.398438 230.097656 C 232.988281 228.058594 232.621094 225.089844 230.5625 223.5 L 214.128906 210.734375 C 210.375 207.824219 205.195312 206.625 200.628906 207.621094 C 198.203125 208.152344 194.921875 209.535156 193.066406 213.117188 L 189.660156 219.632812 C 189.234375 220.445312 188.253906 220.773438 187.417969 220.386719 C 174.53125 214.257812 148.332031 188.097656 142.195312 175.234375 C 141.808594 174.398438 142.136719 173.421875 142.949219 172.992188 L 149.476562 169.613281 C 153.0625 167.742188 154.449219 164.464844 154.980469 162.039062 C 155.980469 157.480469 154.796875 152.332031 151.882812 148.585938 L 139.078125 132.15625 C 138.179688 130.996094 136.8125 130.34375 135.347656 130.34375 Z M 223.875 242.515625 Z M 223.875 242.515625 " fill-opacity="1" fill-rule="evenodd"/></g><path fill="#ffffff" d="M 231.785156 234.046875 C 231.558594 234.046875 231.335938 234.003906 231.109375 233.902344 C 218.429688 228.285156 203.382812 218.777344 193.675781 209.65625 C 192.921875 208.945312 192.964844 207.703125 193.800781 207.070312 C 199.773438 202.492188 209.601562 202.9375 216.207031 208.046875 L 232.660156 220.8125 C 236.1875 223.5625 236.820312 228.652344 234.066406 232.171875 L 233.128906 233.394531 C 232.804688 233.820312 232.292969 234.046875 231.785156 234.046875 Z M 197.632812 208.660156 C 206.707031 216.722656 219.898438 225.089844 231.273438 230.257812 C 232.109375 229.179688 232.519531 228.039062 232.335938 226.636719 C 232.191406 225.371094 231.558594 224.253906 230.5625 223.5 L 214.128906 210.734375 C 209.316406 206.988281 202.464844 206.238281 197.632812 208.660156 Z M 197.632812 208.660156 " fill-opacity="1" fill-rule="evenodd"/><path fill="#ffffff" d="M 154.183594 169.511719 C 153.714844 169.511719 153.269531 169.328125 152.941406 168.984375 C 143.867188 159.292969 134.226562 144.25 128.660156 131.605469 C 128.351562 130.894531 128.558594 130.058594 129.167969 129.589844 L 130.390625 128.65625 C 133.917969 125.90625 139.035156 126.539062 141.769531 130.078125 L 154.550781 146.488281 C 159.691406 153.082031 160.117188 162.894531 155.53125 168.859375 C 155.203125 169.269531 154.714844 169.511719 154.183594 169.511719 Z M 132.308594 131.445312 C 137.464844 142.804688 145.886719 155.996094 153.941406 165.035156 C 156.367188 160.207031 155.613281 153.390625 151.882812 148.5625 L 139.078125 132.15625 C 137.507812 130.121094 134.53125 129.734375 132.472656 131.320312 Z M 132.308594 131.445312 " fill-opacity="1" fill-rule="evenodd"/><path fill="#ffffff" d="M 181.792969 196.402344 C 180.527344 196.402344 179.710938 195.082031 180.28125 193.941406 L 188.988281 176.636719 C 184.339844 172.035156 181.894531 166.621094 181.894531 160.902344 C 181.894531 153.550781 185.972656 146.671875 193.371094 141.539062 C 208.277344 131.21875 232.230469 131.21875 247.136719 141.539062 C 262.449219 152.148438 262.449219 169.65625 247.136719 180.261719 C 239.9375 185.25 230.398438 187.996094 220.265625 187.996094 C 215.1875 187.996094 210.273438 187.324219 205.625 185.980469 L 182.484375 196.261719 C 182.261719 196.363281 182.035156 196.402344 181.792969 196.402344 Z M 220.265625 137.203125 C 200.976562 137.203125 185.296875 147.832031 185.296875 160.902344 C 185.296875 166.011719 187.683594 170.894531 192.210938 175.007812 C 192.761719 175.515625 192.921875 176.351562 192.578125 177.023438 L 185.441406 191.234375 L 204.832031 182.621094 C 205.195312 182.460938 205.625 182.417969 206.011719 182.539062 C 210.519531 183.90625 215.308594 184.617188 220.265625 184.617188 C 239.53125 184.617188 255.210938 173.96875 255.210938 160.902344 C 255.210938 147.832031 239.53125 137.203125 220.265625 137.203125 Z M 220.265625 137.203125 " fill-opacity="1" fill-rule="evenodd"/><path fill="#ffffff" d="M 220.265625 181.074219 C 217.390625 181.074219 215.042969 178.734375 215.042969 175.882812 L 215.042969 158.316406 C 215.042969 155.445312 217.390625 153.105469 220.265625 153.105469 C 223.117188 153.105469 225.464844 155.445312 225.464844 158.316406 L 225.464844 175.882812 C 225.464844 178.734375 223.117188 181.074219 220.265625 181.074219 Z M 220.265625 156.503906 C 219.265625 156.503906 218.449219 157.316406 218.449219 158.316406 L 218.449219 175.882812 C 218.449219 176.882812 219.265625 177.675781 220.265625 177.675781 C 221.242188 177.675781 222.058594 176.882812 222.058594 175.882812 L 222.058594 158.316406 C 222.058594 157.316406 221.242188 156.503906 220.265625 156.503906 Z M 220.265625 156.503906 " fill-opacity="1" fill-rule="evenodd"/><path fill="#ffffff" d="M 220.425781 150.824219 L 220.082031 150.824219 C 217.289062 150.824219 215.023438 148.5625 215.023438 145.773438 C 215.023438 142.984375 217.289062 140.726562 220.082031 140.726562 L 220.425781 140.726562 C 223.21875 140.726562 225.484375 142.984375 225.484375 145.773438 C 225.484375 148.5625 223.21875 150.824219 220.425781 150.824219 Z M 220.082031 144.125 C 219.164062 144.125 218.410156 144.859375 218.410156 145.773438 C 218.410156 146.691406 219.164062 147.425781 220.082031 147.425781 L 220.425781 147.425781 C 221.34375 147.425781 222.097656 146.691406 222.097656 145.773438 C 222.097656 144.859375 221.34375 144.125 220.425781 144.125 Z M 220.082031 144.125 " fill-opacity="1" fill-rule="evenodd"/></svg>