<svg xmlns="http://www.w3.org/2000/svg" xmlns:xlink="http://www.w3.org/1999/xlink" width="500" zoomAndPan="magnify" viewBox="0 0 375 374.999991" height="500" preserveAspectRatio="xMidYMid meet" version="1.0"><defs><clipPath id="1f891f872a"><path d="M 122.25 112.5 L 252.75 112.5 L 252.75 262.5 L 122.25 262.5 Z M 122.25 112.5 " clip-rule="nonzero"/></clipPath></defs><g clip-path="url(#1f891f872a)"><path fill="#ffffff" d="M 244.824219 253.59375 C 244.824219 254.019531 244.476562 254.367188 244.046875 254.367188 L 210.183594 254.367188 C 209.753906 254.367188 209.40625 254.019531 209.40625 253.59375 L 209.40625 201.582031 C 209.40625 196.78125 205.503906 192.878906 200.703125 192.878906 L 174.515625 192.878906 C 169.71875 192.878906 165.8125 196.78125 165.8125 201.582031 L 165.8125 253.59375 C 165.8125 254.019531 165.464844 254.367188 165.039062 254.367188 L 131.171875 254.367188 C 130.746094 254.367188 130.398438 254.019531 130.398438 253.59375 L 130.398438 182.433594 C 130.398438 182.402344 130.398438 182.371094 130.398438 182.335938 L 130.25 176.652344 C 130.214844 175.335938 130.746094 174.054688 131.703125 173.148438 L 186.828125 120.835938 C 186.976562 120.699219 187.160156 120.625 187.363281 120.625 C 187.566406 120.625 187.753906 120.699219 187.898438 120.839844 L 243.21875 173.328125 C 244.121094 174.1875 244.640625 175.347656 244.671875 176.59375 L 244.824219 182.484375 Z M 122.472656 253.59375 C 122.472656 258.390625 126.375 262.292969 131.171875 262.292969 L 165.039062 262.292969 C 169.835938 262.292969 173.738281 258.390625 173.738281 253.59375 L 173.738281 201.582031 C 173.738281 201.152344 174.089844 200.804688 174.515625 200.804688 L 200.703125 200.804688 C 201.132812 200.804688 201.480469 201.152344 201.480469 201.582031 L 201.480469 253.59375 C 201.480469 258.390625 205.382812 262.292969 210.183594 262.292969 L 244.046875 262.292969 C 248.84375 262.292969 252.75 258.390625 252.75 253.59375 L 252.75 182.433594 C 252.75 182.402344 252.75 182.371094 252.75 182.339844 L 252.59375 176.390625 C 252.507812 173.027344 251.113281 169.898438 248.671875 167.582031 L 193.351562 115.089844 C 191.730469 113.546875 189.605469 112.699219 187.363281 112.699219 C 185.125 112.699219 183 113.546875 181.375 115.089844 L 126.246094 167.398438 C 123.664062 169.851562 122.234375 173.296875 122.328125 176.859375 L 122.472656 182.484375 L 122.472656 253.59375 " fill-opacity="1" fill-rule="nonzero"/></g></svg>