<svg xmlns="http://www.w3.org/2000/svg" xmlns:xlink="http://www.w3.org/1999/xlink" width="500" zoomAndPan="magnify" viewBox="0 0 375 374.999991" height="500" preserveAspectRatio="xMidYMid meet" version="1.0"><defs><clipPath id="9bc39db339"><path d="M 158.40625 160.234375 L 360 160.234375 L 360 298.234375 L 158.40625 298.234375 Z M 158.40625 160.234375 " clip-rule="nonzero"/></clipPath><clipPath id="6fb55b5fec"><path d="M 19.539062 77.546875 L 208.539062 77.546875 L 208.539062 286.796875 L 19.539062 286.796875 Z M 19.539062 77.546875 " clip-rule="nonzero"/></clipPath></defs><rect x="-37.5" width="450" fill="#ffffff" y="-37.499999" height="449.999989" fill-opacity="1"/><rect x="-37.5" width="450" fill="#ffffff" y="-37.499999" height="449.999989" fill-opacity="1"/><rect x="-37.5" width="450" fill="#6d68fe" y="-37.499999" height="449.999989" fill-opacity="1"/><g clip-path="url(#9bc39db339)"><path fill="#ffffff" d="M 359.992188 229.1875 C 359.992188 247.605469 352.808594 264.921875 339.769531 277.945312 C 326.726562 290.964844 309.382812 298.140625 290.941406 298.140625 L 257.5625 298.140625 L 269.160156 275.234375 L 290.945312 275.234375 C 316.375 275.234375 337.0625 254.574219 337.0625 229.183594 C 337.0625 203.789062 316.375 183.128906 290.945312 183.128906 L 197.074219 183.128906 L 234.441406 252.015625 L 260.484375 204.527344 L 286.632812 204.527344 L 235.253906 298.226562 C 234.644531 298.226562 234.035156 298.222656 233.425781 298.222656 L 158.5625 160.234375 L 290.941406 160.234375 C 309.386719 160.234375 326.726562 167.40625 339.769531 180.429688 C 352.808594 193.453125 359.992188 210.769531 359.992188 229.1875 Z M 359.992188 229.1875 " fill-opacity="1" fill-rule="nonzero"/></g><g clip-path="url(#6fb55b5fec)"><path fill="#fffff9" d="M 135.613281 204.742188 L 137.011719 204.726562 C 147.785156 204.609375 159.703125 213.566406 159.878906 222.570312 C 160.050781 231.472656 148.578125 240.417969 141.890625 240.488281 C 141.890625 240.488281 127.9375 240.691406 124.46875 240.863281 C 123.75 240.898438 123.035156 240.921875 122.320312 240.929688 L 83.289062 241.359375 C 77.726562 241.414062 73.15625 245.789062 72.984375 251.167969 C 72.808594 256.714844 77.5625 261.207031 83.273438 261.148438 L 109.257812 260.882812 C 110.859375 260.863281 112.140625 262.109375 112.128906 263.664062 C 112.125 263.691406 112.125 263.714844 112.125 263.738281 C 112.113281 265.421875 110.691406 266.804688 108.957031 266.820312 L 97.144531 266.945312 C 91.585938 267 87.011719 271.375 86.839844 276.753906 C 86.664062 282.300781 91.417969 286.792969 97.128906 286.734375 L 147.570312 286.214844 C 148.351562 286.207031 149.117188 286.113281 149.851562 285.941406 C 166.480469 284.644531 180.625 278.386719 191.011719 267.675781 C 202.09375 256.242188 208.070312 240.632812 208.292969 222.53125 L 208.296875 222.222656 C 208.519531 204.085938 202.890625 188.453125 192.011719 177.011719 C 180.585938 164.996094 164.394531 158.75 145.191406 158.949219 L 136.84375 159.035156 C 136.132812 159.042969 135.425781 159.085938 134.726562 159.152344 L 89.304688 159.570312 C 87.257812 159.519531 85.835938 159.484375 85.835938 159.484375 C 79.148438 159.355469 67.757812 150.308594 68.007812 141.410156 C 68.261719 132.40625 80.261719 123.554688 91.035156 123.769531 L 100.328125 123.949219 C 100.695312 123.957031 101.0625 123.953125 101.421875 123.941406 C 102.277344 123.921875 103.132812 123.902344 103.996094 123.917969 L 132.347656 124.433594 L 142.277344 124.625 L 156.132812 124.894531 C 161.839844 125.003906 166.636719 120.554688 166.507812 115.007812 C 166.386719 109.625 161.851562 105.207031 156.292969 105.101562 L 142.210938 104.832031 L 137.453125 104.738281 C 135.839844 104.707031 134.527344 103.40625 134.523438 101.835938 L 134.523438 101.757812 C 134.515625 100.09375 135.902344 98.769531 137.621094 98.800781 L 147.375 98.992188 C 153.082031 99.101562 157.878906 94.652344 157.753906 89.105469 C 157.628906 83.722656 153.097656 79.308594 147.535156 79.199219 L 93.730469 78.21875 C 93.03125 78.144531 92.328125 78.09375 91.613281 78.082031 L 83.269531 77.921875 C 64.066406 77.546875 47.820312 83.648438 36.289062 95.558594 C 25.304688 106.902344 19.535156 122.484375 19.59375 140.625 L 19.597656 140.933594 C 19.65625 159.03125 25.492188 174.695312 36.46875 186.226562 C 44.0625 194.199219 53.722656 199.753906 64.9375 202.707031 M 57.445312 241.625 L 49.792969 241.703125 C 44.167969 241.761719 39.550781 246.238281 39.484375 251.703125 C 39.417969 257.171875 43.921875 261.554688 49.546875 261.496094 L 57.199219 261.417969 C 62.824219 261.359375 67.441406 256.878906 67.507812 251.414062 C 67.574219 245.949219 63.070312 241.5625 57.445312 241.625 Z M 161.867188 89.375 C 161.851562 83.90625 166.394531 79.5625 172.019531 79.675781 L 179.671875 79.820312 C 185.292969 79.929688 189.871094 84.449219 189.886719 89.914062 C 189.90625 95.382812 185.363281 99.726562 179.734375 99.617188 L 172.085938 99.46875 C 166.464844 99.359375 161.886719 94.839844 161.867188 89.375 " fill-opacity="1" fill-rule="nonzero"/></g></svg>